<?xml version="1.0" encoding="utf-8"?>
<!-- Generator: Adobe Illustrator 23.1.0, SVG Export Plug-In . SVG Version: 6.00 Build 0)  -->
<svg version="1.1" id="Capa_1" xmlns="http://www.w3.org/2000/svg" xmlns:xlink="http://www.w3.org/1999/xlink" x="0px" y="0px"
	 viewBox="0 0 50 50" style="enable-background:new 0 0 50 50;" xml:space="preserve">
<style type="text/css">
	.st0{fill:#040404;}
	.st1{fill:#0E0E0E;}
	.st2{fill:#FCFCFC;}
</style>
<g>
	<path class="st0" d="M23.2,34.5c0.2,0.2-0.2,0.2-0.2,0.5c0.5,0.1,0.9,0,1.3-0.3c1.3-0.9,2.6-1.8,3.8-2.7c0.2-0.1,0.3-0.3,0.7-0.2
		c-1.2,1.1-2.4,2.1-3.7,3.2c0.7,0,1.3,0,2,0c-0.4-0.5-0.2-0.7,0.2-0.9c1.3-0.9,2.7-1.8,4-2.7c0.2-0.1,0.3-0.3,0.6-0.3
		c0,0.2-0.1,0.3-0.2,0.4c-1.4,1.2-2.8,2.3-4.1,3.5c-0.2,0.2-0.4,0.2-0.6,0.2c-1.3,0.3-2.7,0.5-4,0.8c-0.4,0.1-0.6,0.3-0.8,0.7
		c-1.2,3.9-2.5,7.7-3.7,11.6c-0.1,0.3-0.2,0.5-0.5,0.5c-5.2,0.3-10.4,0.7-15.5,1.1c0-0.1,0-0.1,0-0.2c0.4-0.1,0.9-0.1,1.3-0.2
		c0.5,0,0.7-0.2,0.4-0.7c-0.2,0.1-0.4,0.3-0.6,0.4c-0.1,0.1-0.3,0.4-0.5,0.2c-0.2-0.2-0.6-0.4-0.4-0.8c0-0.1,0-0.1,0-0.2
		c0,0-0.1,0-0.1,0.1c0,0,0.1,0.1,0.1,0.1c-0.2-0.2-0.3,0-0.5,0.1c-0.5,0.4-1.2,0.7-1.6,1.3c-0.1,0.2-0.2,0.1-0.4,0
		c-0.1-0.1-0.2-0.4-0.4-0.4c0,0,0-0.1,0-0.1c4.3-3,8.6-5.9,12.8-8.9c2.3-1.7,4.7-3.2,7-5c1.4-1.1,2.9-2.1,4.3-3c0,0,0.1,0.1,0.1,0.1
		c-1,0.8-2.1,1.5-3.2,2.4c0.8,0.1,1.5,0.2,2.1-0.4C23.1,34.5,23.2,34.5,23.2,34.5z M10.5,48.1c0.2,0.1,0.3-0.3,0.5-0.1
		c0.4,0.3,0.8,0.1,1.2-0.1c0.1-0.1,0.2-0.2,0.4-0.1c0.3,0.2,0.6,0,0.8-0.1c0.2-0.1,0.3-0.1,0.5-0.1c0.7,0,1.4-0.1,2.1-0.2
		c0.2,0,0.2-0.2,0.2-0.4c1-3.1,2-6.2,3-9.2c0-0.1,0-0.1,0-0.2c-0.1-0.1-0.1,0-0.1,0.1c-1.3,0.9-2.5,1.8-3.7,2.7
		c-1.4,1.1-2.9,2.1-4.3,3.2c-2.2,1.6-4.3,3.2-6.5,4.8c0,0.1,0.1,0.1,0.1,0.2c1.7-1.2,3.4-2.4,5.2-3.5c0,0.1,0.1,0.1,0.1,0.2
		c-1.7,1.3-3.5,2.5-5.2,3.8c0.8-0.2,1.7,0.1,2.5-0.4c0.1-0.1,0.2,0,0.4,0c0.3,0.1,0.6,0.1,0.8-0.1c0.1-0.1,0.2-0.2,0.3-0.1
		C9.5,48.6,10,48.1,10.5,48.1L10.5,48.1z M4,47.4c0.4,0.1,0.6-0.1,0.8-0.3c3.5-2.4,7.1-4.7,10.5-7.3c1.2-0.9,2.5-1.7,3.8-2.6
		c0.6-0.4,0.7-0.9,0.9-1.6C14.6,39.7,9.5,43.7,4,47.4z"/>
	<path class="st0" d="M44.9,47.1c0.4-0.3,0.9-0.1,1.3-0.2c0.4,0,0.5-0.1,0.3-0.5c-0.6-1.9-1.2-3.7-1.8-5.6
		c-1.8-5.4-3.7-10.7-5.6-16.1c-1.7-5-3.5-10.1-5.2-15.1c-0.8-2.4-1.7-4.8-2.4-7.2c-0.2-0.6-0.4-0.7-1-0.7c-0.8,0.1-1.6,0.1-2.5,0.1
		c0-0.1,0-0.1,0-0.2c1.5-0.1,3.1-0.2,4.6-0.4c0.3,0,0.5,0,0.6,0.4c2.7,7.5,5.5,15,8.2,22.4c1.9,5.2,3.8,10.3,5.7,15.5
		c0.8,2.3,1.7,4.6,2.5,6.8c0.1,0.3,0.2,0.5-0.3,0.5C47.9,47,46.4,47.1,44.9,47.1C44.9,47.1,44.9,47.1,44.9,47.1z"/>
	<path class="st1" d="M6,43.6c1.1-0.5,2.1-1.3,3.1-2c6.1-4.5,12.4-8.7,18.6-13.1c0.2-0.1,0.3-0.3,0.6-0.3c-0.1,0.3-0.3,0.3-0.5,0.5
		c-5.1,3.7-10.2,7.4-15.2,11.2c-3.4,2.6-6.9,5.1-10.3,7.6c-0.2,0.1-0.3,0.5-0.6,0.1c-0.2-0.3-0.5-0.6,0-0.9c0.6-0.3,1.1-0.7,1.6-1.2
		l0,0c0.1,0,0.3,0,0.3-0.3l0,0C4.5,44.8,5.3,44.2,6,43.6L6,43.6z"/>
	<path class="st1" d="M21.9,29.5c0,0.3-0.3,0.4-0.4,0.5c-4.3,3.2-8.7,6.4-12.9,9.7c-1.5,1.1-3,2.3-4.5,3.4c-0.2,0.2-0.4,0.4-0.6,0
		c-0.1-0.3-0.5-0.5,0-0.8c0.9-0.6,1.8-1.2,2.7-1.9c4.9-3.6,10-6.9,14.9-10.4C21.4,29.8,21.6,29.6,21.9,29.5z"/>
	<path class="st1" d="M3.3,45.4c-0.2-0.1-0.4,0-0.6-0.2c-0.3-0.3-0.3-0.5,0.1-0.7c1.8-1.2,3.6-2.4,5.3-3.7
		c4.7-3.5,9.6-6.8,14.4-10.2c0.2-0.1,0.4-0.3,0.7-0.5c-0.1,0.4-0.3,0.5-0.4,0.6c-3.9,2.9-7.8,5.7-11.7,8.7c-1.7,1.3-3.3,2.6-5,3.8
		c-0.1,0.1-0.4,0.1-0.2,0.3c0,0,0,0,0,0c0-0.1-0.1-0.1-0.2-0.1c-0.7,0.6-1.6,1.1-2.2,1.7c0,0,0,0,0,0C3.5,45.2,3.3,45.2,3.3,45.4
		L3.3,45.4z"/>
	<path class="st0" d="M23.2,19c0.1,0.9-0.1,1.9-0.2,2.8c-0.1,0.8-0.2,1.6-0.3,2.4c-0.1,0.4,0,0.6,0.5,0.6c1.3,0.2,2.5,0.4,3.8,0.8
		c-2.2,0.3-4.3,0.5-6.6,0.8C21.2,23.8,22.1,21.4,23.2,19z"/>
	<path class="st1" d="M19.8,29.7c-0.3,0.2-0.5,0.4-0.8,0.6c-4.2,3.1-8.4,6.1-12.7,9.2c-0.4,0.3-0.8,0.7-1.2,1
		c-0.3,0.3-0.4,0.1-0.6-0.1c-0.2-0.3-0.1-0.4,0.1-0.6c2.2-1.5,4.4-3,6.6-4.5c2.7-1.8,5.4-3.6,8-5.4C19.4,29.8,19.5,29.6,19.8,29.7z"
		/>
	<path class="st1" d="M18,29.3c0,0.2-0.3,0.3-0.4,0.4C14,32.4,10.4,35,6.8,37.7c-0.4,0.3-0.5,0.2-0.8-0.1c-0.3-0.4,0-0.5,0.2-0.6
		c3.8-2.5,7.7-5,11.5-7.5C17.7,29.4,17.8,29.2,18,29.3z"/>
	<path class="st1" d="M26,7.9c-0.9,0.7-1.7,1.3-2.5,1.9c-2.5,1.8-5,3.5-7.5,5.3c-0.4,0.3-0.5,0.1-0.7-0.2c-0.2-0.3-0.3-0.5,0.1-0.7
		c2.7-1.6,5.3-3.2,8-4.9c0.7-0.4,1.3-1,2-1.3C25.5,8,25.6,7.8,26,7.9z"/>
	<path class="st1" d="M27.3,3.9c-0.9,0.6-1.7,1.3-2.6,1.9c-2.1,1.6-4.2,3.2-6.4,4.8c-0.2,0.1-0.4,0.4-0.6,0c-0.1-0.2-0.5-0.5,0-0.8
		c3-2.1,6.1-3.9,9.1-5.9C27,3.8,27.1,3.7,27.3,3.9z"/>
	<path class="st1" d="M24.1,13.9c-1.6,1.2-3.1,2.3-4.7,3.4c-1.5,1.1-3,2.2-4.5,3.3c-0.2,0.1-0.4,0.4-0.5,0c-0.1-0.3-0.6-0.5-0.1-0.8
		c3.1-2,6.2-3.9,9.4-5.9C23.8,13.8,23.8,13.7,24.1,13.9z"/>
	<path class="st1" d="M16,12.5c3.6-2.2,7-4.9,10.7-7.1c0,0.4-0.3,0.4-0.4,0.5c-1.3,0.9-2.6,1.8-3.8,2.8c-1.7,1.4-3.6,2.6-5.3,4
		C16.7,13.1,16.4,13.2,16,12.5z"/>
	<path class="st1" d="M20.1,20.4c-1.4,1-2.7,2-4,3c-1.2,0.9-2.5,1.9-3.7,2.8c-0.1,0.1-0.4,0.5-0.5,0c-0.1-0.2-0.6-0.5-0.1-0.8
		c2.5-1.7,5.1-3.3,7.7-4.9C19.7,20.4,19.8,20.3,20.1,20.4z"/>
	<path class="st1" d="M16.9,28.8c-1,0.7-1.9,1.4-2.7,2c-1.8,1.4-3.7,2.7-5.5,4.1C8.1,35.3,8,35,7.8,34.8c-0.3-0.4,0.1-0.4,0.3-0.5
		c2.7-1.8,5.4-3.5,8.2-5.2C16.4,28.9,16.5,28.7,16.9,28.8z"/>
	<path class="st1" d="M23.6,11.8c-0.2,0.3-0.6,0.5-0.9,0.7c-2.5,1.8-5,3.6-7.4,5.4c-0.2,0.2-0.4,0.4-0.7,0c-0.3-0.4-0.1-0.5,0.2-0.7
		c2.8-1.8,5.5-3.5,8.3-5.3C23.3,11.9,23.4,11.7,23.6,11.8z"/>
	<path class="st1" d="M17.7,26.4c-0.9,0.7-1.8,1.3-2.7,2c-1.7,1.3-3.4,2.6-5.2,3.8c-0.2,0.1-0.4,0.4-0.6,0c-0.2-0.3-0.3-0.5,0.1-0.8
		c2.6-1.6,5.1-3.3,7.7-4.9C17.3,26.5,17.4,26.3,17.7,26.4z"/>
	<path class="st1" d="M18.2,23.9c-0.3,0.3-0.7,0.7-1,0.9c-1.9,1.4-3.8,2.8-5.6,4.2c-0.7,0.5-0.7,0.5-1.2-0.2
		c2.6-1.7,5.3-3.2,7.8-5.1C18.1,23.8,18.1,23.9,18.2,23.9z"/>
	<path class="st1" d="M20.9,18c0,0.2-0.2,0.3-0.4,0.4c-2.2,1.6-4.4,3.2-6.6,4.8c-0.3,0.2-0.4,0.3-0.7-0.1c-0.2-0.3-0.1-0.4,0.2-0.6
		c2.4-1.5,4.7-3,7.1-4.4C20.6,18,20.7,17.8,20.9,18z"/>
	<path class="st1" d="M34.6,31.5c-0.3,0.3-0.7,0.6-1,0.9c-1.5,1.2-3,2.4-4.5,3.6c-0.1,0.1-0.3,0.4-0.5,0c-0.1-0.3-0.6-0.5-0.1-0.8
		c2-1.3,4-2.6,5.9-3.8C34.5,31.4,34.6,31.4,34.6,31.5z"/>
	<path class="st1" d="M25.7,3.6c-1.8,1.3-3.5,2.6-5.3,3.9c-0.5,0.4-0.4-0.3-0.8-0.5c2.1-1.3,4.1-2.5,6.1-3.7
		C25.6,3.4,25.6,3.5,25.7,3.6z"/>
	<path class="st1" d="M30.4,39.2c-0.6-0.9-0.6-0.9,0.2-1.4c1.1-0.8,2.2-1.6,3.3-2.4c0.2-0.1,0.3-0.3,0.5-0.3
		C33.1,36.4,31.8,37.8,30.4,39.2z"/>
	<path class="st1" d="M35.7,39.8c-1.1,1.4-2.4,2.5-3.6,3.8c-0.7-0.8-0.7-0.8,0.2-1.4c1-0.7,2.1-1.4,2.9-2.2
		C35.3,39.8,35.4,39.7,35.7,39.8z"/>
	<path class="st1" d="M33.8,33.8c-0.1,0.3-0.4,0.4-0.6,0.6c-1.1,1-2.2,1.9-3.3,2.9c-0.3,0.3-0.5,0.1-0.7-0.1
		c-0.3-0.3-0.1-0.4,0.1-0.6c1.4-0.9,2.7-1.9,4.1-2.8C33.5,33.8,33.6,33.6,33.8,33.8z"/>
	<path class="st1" d="M44.9,47.1C44.9,47.1,44.9,47.1,44.9,47.1c-2,0.2-4,0.4-6,0.4c-0.2,0-0.5,0.1-0.6-0.1
		c-0.1-0.2,0.3-0.3,0.4-0.4c0.9-0.6,1.8-1.2,2.6-1.8c0.1-0.1,0.2-0.2,0.4-0.1c-0.5,0.6-1.3,0.8-1.8,1.5l0,0c-0.2,0-0.3,0-0.3,0.3
		l0,0c-0.5-0.1-0.7,0.5-1.1,0.6c0.8-0.3,1.7,0.1,2.3-0.5c0,0,0.1,0.1,0.1,0.1c0,0.1-0.1,0.2,0,0.2c0.8,0,1.5,0.1,2.3-0.1
		C44,46.9,44.4,47,44.9,47.1z"/>
	<path class="st1" d="M34.3,37.3c0.1,0.2-0.2,0.3-0.3,0.4c-0.9,0.9-1.9,1.6-2.6,2.6c-0.1,0.1-0.3,0.4-0.4,0.1
		c-0.1-0.3-0.6-0.6-0.3-0.8c1.1-0.8,2.3-1.7,3.5-2.3C34.2,37.2,34.2,37.3,34.3,37.3z"/>
	<path class="st1" d="M34.9,38.6c-1,1.1-2.1,2.1-3.1,3.2c-0.1,0.1-0.3,0.4-0.5,0.1c-0.1-0.2-0.6-0.4-0.1-0.7
		c1.2-0.9,2.3-1.9,3.6-2.6C34.8,38.5,34.8,38.5,34.9,38.6z"/>
	<path class="st1" d="M36.7,44.3c-1.1,1.1-2.2,2.2-3.3,3.3c-0.5-0.6-0.5-0.6,0.2-1.1c0.9-0.6,1.7-1.3,2.6-1.9
		C36.3,44.4,36.4,44.3,36.7,44.3z"/>
	<path class="st1" d="M35.6,41.8c-1,1-2,2-2.9,3c-0.2,0.3-0.4,0.1-0.5-0.1c-0.1-0.2-0.5-0.3-0.2-0.5c1.1-0.8,2.2-1.6,3.3-2.4
		C35.4,41.8,35.4,41.8,35.6,41.8z"/>
	<path class="st1" d="M33.1,46.5c-0.5-0.4-0.5-0.7,0-1.1c0.9-0.6,1.7-1.3,2.5-2c0,0,0.1,0.1,0.1,0.1C34.8,44.5,33.9,45.5,33.1,46.5z
		"/>
	<path class="st1" d="M24.1,3c-0.9,0.8-1.8,1.5-2.7,2.3c-0.3,0.2-0.3-0.2-0.5-0.3c-0.2-0.2-0.1-0.3,0.1-0.4c1-0.6,2-1.1,3.1-1.7
		C24.1,2.9,24.1,3,24.1,3z"/>
	<path class="st1" d="M37.4,45.5c-0.6,0.4-1.2,0.9-1.8,1.3c-0.3,0.2-0.6,0.5-1,0.7c-0.1,0.1-0.1,0.3-0.2,0.1c-0.1-0.1-0.1-0.2,0-0.3
		c0.2-0.1,0.4-0.3,0.6-0.4c0.8-0.5,1.5-1,2.3-1.5C37.3,45.4,37.4,45.4,37.4,45.5z"/>
	<path class="st1" d="M28.1,1.7c0,0.1,0,0.1,0,0.2c-0.9,0-1.8,0.1-2.7,0.1c0,0,0-0.1,0-0.1C26.3,1.8,27.2,1.7,28.1,1.7z"/>
	<path class="st1" d="M40.1,46.5c0.4,0.2,0.6-0.4,1-0.4c-0.3,0.4-0.7,0.5-1,0.8c-0.2,0.2-0.1-0.2-0.3-0.2c0,0,0,0,0,0
		C40,46.7,40.2,46.7,40.1,46.5L40.1,46.5z"/>
	<path class="st1" d="M36.3,46.9c-0.4,0.3-0.4,0.7-0.8,0.7c-0.1,0-0.2-0.1-0.1-0.2C35.5,47.2,35.8,47,36.3,46.9z"/>
	<path class="st1" d="M43.5,45.3c-0.4,0.3-0.7,0.6-1.2,0.7C42.6,45.7,42.9,45.3,43.5,45.3C43.4,45.2,43.4,45.2,43.5,45.3z"/>
	<path class="st1" d="M24.2,32.6c0,0-0.1-0.1-0.1-0.1c0.3-0.3,0.6-0.5,1.1-0.7C24.9,32.2,24.6,32.4,24.2,32.6z"/>
	<path class="st1" d="M23.4,34.3c0.3-0.2,0.7-0.4,1-0.7c0,0,0.1,0.1,0.1,0.1c-0.3,0.2-0.6,0.5-1,0.7C23.5,34.4,23.4,34.4,23.4,34.3z
		"/>
	<path class="st1" d="M2.6,49.6c0,0.1,0,0.1,0,0.2c-0.4,0.1-0.9,0.1-1.3,0C1.7,49.7,2.1,49.7,2.6,49.6z"/>
	<path class="st1" d="M34.8,38.5c0.1-0.1,0.1-0.1,0.2-0.2c0,0,0,0.1,0.1,0.1c-0.1,0.1-0.1,0.1-0.2,0.2
		C34.8,38.5,34.8,38.5,34.8,38.5z"/>
	<path class="st1" d="M41.1,46.8c0.1-0.1,0.2-0.1,0.2-0.1c0.1,0.1,0,0.1-0.1,0.2C41.2,46.9,41.1,46.8,41.1,46.8z"/>
	<path class="st1" d="M43.4,45.2c0.1-0.1,0.2-0.2,0.2-0.1C43.7,45.2,43.5,45.2,43.4,45.2C43.4,45.2,43.4,45.2,43.4,45.2z"/>
	<path class="st1" d="M35,38.3c0.1,0,0.1-0.1,0.2,0C35.2,38.3,35.1,38.4,35,38.3C35,38.4,35,38.3,35,38.3z"/>
	<path class="st0" d="M23.1,34.6c0-0.1,0-0.1,0.1-0.1C23.2,34.5,23.1,34.5,23.1,34.6z"/>
	<path class="st2" d="M19.3,37.8c-1,3.1-2,6.2-3,9.2c0,0.1,0,0.3-0.2,0.4c-0.7,0.1-1.4,0.2-2.1,0.2c-0.2,0-0.3,0-0.5,0.1
		c-0.3,0.1-0.5,0.3-0.8,0.1c-0.2-0.1-0.3,0.1-0.4,0.1c-0.4,0.2-0.7,0.4-1.2,0.1c-0.2-0.1-0.3,0.2-0.5,0.1c0-0.4,0.4-0.4,0.5-0.6
		c0.1,0,0.1,0,0.1-0.1c0,0-0.1,0-0.2,0c-0.3,0.2-0.6,0.3-0.8,0.6c0.1,0.2,0.3-0.1,0.4,0.2c-0.6,0-1.1,0.5-1.7,0.2
		c-0.1-0.1-0.2,0.1-0.3,0.1c-0.3,0.2-0.5,0.2-0.8,0.1c-0.1,0-0.3-0.1-0.4,0c-0.7,0.6-1.6,0.3-2.5,0.4c1.7-1.3,3.5-2.5,5.2-3.8
		c0-0.1-0.1-0.1-0.1-0.2c-1.7,1.2-3.4,2.4-5.2,3.5c0-0.1-0.1-0.1-0.1-0.2c2.2-1.6,4.3-3.2,6.5-4.8c1.4-1.1,2.9-2.1,4.3-3.2
		c1.2-1,2.4-1.9,3.7-2.7C19.2,37.7,19.2,37.8,19.3,37.8z M9.7,46.4c0-0.1-0.1-0.1-0.1-0.2c-1.1,0.8-2.3,1.5-3.4,2.3
		c-0.1,0.1-0.1,0.2,0,0.3c0.1,0.1,0.2,0.1,0.3,0C7.5,48,8.6,47.2,9.7,46.4z M11.8,44c0,0-0.1-0.1-0.1-0.1c-0.6,0.3-1.1,0.7-1.6,1.1
		c0,0.1,0.1,0.1,0.1,0.2C10.8,44.8,11.3,44.4,11.8,44z M11.9,43.8C11.9,43.8,11.9,43.8,11.9,43.8C11.9,43.8,11.9,43.9,11.9,43.8
		C11.8,43.9,11.9,43.9,11.9,43.8C11.9,43.9,11.9,43.9,11.9,43.8z"/>
	<path class="st2" d="M4,47.4c5.4-3.8,10.5-7.8,16-11.7c-0.2,0.7-0.4,1.2-0.9,1.6c-1.3,0.8-2.6,1.6-3.8,2.6c-3.4,2.6-7,4.8-10.5,7.3
		C4.6,47.3,4.5,47.5,4,47.4z"/>
	<path class="st2" d="M19.2,37.7c0-0.1,0.1-0.1,0.1-0.1c0,0,0,0.1,0,0.2C19.2,37.8,19.2,37.7,19.2,37.7z"/>
	<path class="st2" d="M2.9,48.5c0,0-0.1-0.1-0.1-0.1c0,0,0.1,0,0.1-0.1C2.9,48.4,2.9,48.5,2.9,48.5C2.9,48.5,2.9,48.5,2.9,48.5z"/>
	<path class="st2" d="M3.6,45.2c0.7-0.7,1.5-1.1,2.2-1.7c0.1-0.1,0.2,0,0.2,0.1C5.3,44.2,4.5,44.8,3.6,45.2z"/>
	<path class="st2" d="M3.3,45.5c-0.1-0.2,0.1-0.2,0.3-0.3C3.7,45.4,3.5,45.4,3.3,45.5z"/>
	<path class="st2" d="M40.1,46.4c0.1,0.2-0.1,0.3-0.3,0.3C39.8,46.5,39.9,46.4,40.1,46.4z"/>
	<path class="st1" d="M9.7,46.4c-1.1,0.8-2.2,1.6-3.3,2.4c-0.1,0.1-0.2,0.1-0.3,0c-0.1-0.1-0.1-0.2,0-0.3c1.1-0.8,2.3-1.5,3.4-2.3
		C9.6,46.3,9.7,46.4,9.7,46.4z"/>
	<path class="st1" d="M11.8,44c-0.5,0.4-1,0.8-1.6,1.1c0-0.1-0.1-0.1-0.1-0.2c0.5-0.4,1-0.8,1.6-1.1C11.7,43.9,11.8,44,11.8,44z"/>
	<path class="st1" d="M10.5,48.1c0-0.2-0.3,0.1-0.4-0.2c0.2-0.3,0.5-0.4,0.8-0.6c0,0,0.1,0.1,0.1,0.1C11,47.8,10.5,47.7,10.5,48.1
		C10.5,48.1,10.5,48.1,10.5,48.1z"/>
	<path class="st1" d="M11.9,43.8C11.9,43.9,11.9,43.9,11.9,43.8C11.9,43.9,11.8,43.9,11.9,43.8C11.9,43.9,11.9,43.8,11.9,43.8
		C11.9,43.8,11.9,43.8,11.9,43.8z"/>
	<path class="st1" d="M11,47.4c0.1,0,0.1,0,0.2,0C11.2,47.4,11.1,47.5,11,47.4C11.1,47.4,11,47.4,11,47.4z"/>
</g>
</svg>
