<?xml version="1.0" encoding="utf-8"?>
<!-- Generator: Adobe Illustrator 23.1.0, SVG Export Plug-In . SVG Version: 6.00 Build 0)  -->
<svg version="1.1" id="Capa_1" xmlns="http://www.w3.org/2000/svg" xmlns:xlink="http://www.w3.org/1999/xlink" x="0px" y="0px"
	 viewBox="0 0 308 564" style="enable-background:new 0 0 308 564;" xml:space="preserve">
<style type="text/css">
	.st0{fill:#F4F4F4;}
	.st1{fill:#EEEEEE;}
	.st2{fill:#F2F2F2;}
	.st3{fill:#EAEAEA;}
	.st4{fill:#DCDCDD;}
	.st5{fill:#D5D5D5;}
	.st6{fill:#D6D6D6;}
	.st7{fill:#D1D1D1;}
	.st8{fill:#C2C2C2;}
	.st9{fill:#FDFDFD;}
	.st10{fill:#010101;}
	.st11{fill:#020202;}
	.st12{fill:#040404;}
	.st13{fill:#DBDBDB;}
	.st14{fill:#030303;}
	.st15{fill:#E4E4E4;}
	.st16{fill:#121212;}
	.st17{fill:#050505;}
	.st18{fill:#0B0B0B;}
	.st19{fill:#050406;}
	.st20{fill:#080808;}
	.st21{fill:#060406;}
	.st22{fill:#060404;}
	.st23{fill:#0E0C0E;}
	.st24{fill:#060607;}
	.st25{fill:#070607;}
	.st26{fill:#DADADA;}
	.st27{fill:#0A090B;}
	.st28{fill:#DEE0E1;}
	.st29{fill:#0B090B;}
	.st30{fill:#060606;}
	.st31{fill:#080505;}
	.st32{fill:#ECEEEB;}
	.st33{fill:#070404;}
	.st34{fill:#0A0809;}
	.st35{fill:#141013;}
	.st36{fill:#040305;}
	.st37{fill:#120E11;}
	.st38{fill:#0C0A0A;}
	.st39{fill:#CBCBCB;}
	.st40{fill:#201D1F;}
	.st41{fill:#313131;}
	.st42{fill:#0C090A;}
	.st43{fill:#DCDEDE;}
	.st44{fill:#121013;}
	.st45{fill:#C9C9C9;}
	.st46{fill:#181417;}
	.st47{fill:#161616;}
	.st48{fill:#171215;}
	.st49{fill:#D9D9D9;}
	.st50{fill:#DCDCDC;}
	.st51{fill:#1C181D;}
	.st52{fill:#262626;}
	.st53{fill:#0F0B0D;}
	.st54{fill:#1E191E;}
	.st55{fill:#151317;}
	.st56{fill:#111111;}
	.st57{fill:#282127;}
	.st58{fill:#383838;}
	.st59{fill:#1D191D;}
	.st60{fill:#DEDEDE;}
	.st61{fill:#1E1A1E;}
	.st62{fill:#BABABA;}
	.st63{fill:#211C1E;}
	.st64{fill:#1D191C;}
	.st65{fill:#DFDFDF;}
	.st66{fill:#221C20;}
	.st67{fill:#3B3B3B;}
	.st68{fill:#D4D4D4;}
	.st69{fill:#221D1F;}
	.st70{fill:#C7C7C7;}
	.st71{fill:#2D2D2D;}
	.st72{fill:#181818;}
	.st73{fill:#E1E1E1;}
	.st74{fill:#262127;}
	.st75{fill:#342F3B;}
	.st76{fill:#201E25;}
	.st77{fill:#25212B;}
	.st78{fill:#D8D8D8;}
	.st79{fill:#DDDFDE;}
	.st80{fill:#D0D0D0;}
	.st81{fill:#BDBDBD;}
	.st82{fill:#211D20;}
	.st83{fill:#241E24;}
	.st84{fill:#151515;}
	.st85{fill:#271E26;}
	.st86{fill:#171116;}
	.st87{fill:#3F3F3F;}
	.st88{fill:#CACACA;}
	.st89{fill:#241F25;}
	.st90{fill:#2E2E2E;}
	.st91{fill:#B3B3B3;}
	.st92{fill:#D2D2D2;}
	.st93{fill:#CFCFCF;}
	.st94{fill:#4D4549;}
	.st95{fill:#4D454B;}
	.st96{fill:#B7BFBC;}
	.st97{fill:#D7D7D7;}
	.st98{fill:#C3C3C3;}
	.st99{fill:#ACAAA9;}
	.st100{fill:#393939;}
	.st101{fill:#353535;}
	.st102{fill:#3A3140;}
	.st103{fill:#C4C4C4;}
	.st104{fill:#252332;}
	.st105{fill:#4C4349;}
	.st106{fill:#261815;}
	.st107{fill:#C1C1C1;}
	.st108{fill:#524748;}
	.st109{fill:#B7B7B0;}
	.st110{fill:#B1B6AF;}
	.st111{fill:#868681;}
	.st112{fill:#AAAAAA;}
	.st113{fill:#9E9E9E;}
	.st114{fill:#C8C8C8;}
	.st115{fill:#272830;}
	.st116{fill:#4A3C46;}
	.st117{fill:#282828;}
	.st118{fill:#CECECE;}
	.st119{fill:#CCCCCC;}
	.st120{fill:#BCBCBC;}
	.st121{fill:#3D3D3D;}
	.st122{fill:#AEACAC;}
	.st123{fill:#B3ACAD;}
	.st124{fill:#A7A7A7;}
	.st125{fill:#7D7D7D;}
	.st126{fill:#A6A6A6;}
	.st127{fill:#BFBFBF;}
	.st128{fill:#ADADAD;}
	.st129{fill:#585456;}
	.st130{fill:#575757;}
	.st131{fill:#524D55;}
	.st132{fill:#323232;}
	.st133{fill:#070707;}
	.st134{fill:#513A45;}
	.st135{fill:#9D9D9D;}
	.st136{fill:#7F7F7F;}
	.st137{fill:#4D4D4D;}
	.st138{fill:#635F5F;}
	.st139{fill:#B4B4B4;}
	.st140{fill:#65616C;}
	.st141{fill:#373D51;}
	.st142{fill:#393D56;}
	.st143{fill:#E3E3E3;}
	.st144{fill:#BEBEBE;}
	.st145{fill:#B5B5B5;}
	.st146{fill:#7A7A7A;}
	.st147{fill:#D3D3D3;}
	.st148{fill:#777777;}
	.st149{fill:#747474;}
	.st150{fill:#242424;}
	.st151{fill:#141414;}
	.st152{fill:#1B1B1B;}
	.st153{fill:#1A1A1A;}
	.st154{fill:#1F1F1F;}
	.st155{fill:#F3F3F3;}
	.st156{fill:#B3B0AD;}
	.st157{fill:#7D7573;}
	.st158{fill:#E6E6E6;}
	.st159{fill:#E8E8E8;}
	.st160{fill:#F0F0F0;}
	.st161{fill:#E7E7E7;}
	.st162{fill:#FCFCFC;}
	.st163{fill:#F1F1F1;}
	.st164{fill:#DADED8;}
	.st165{fill:#E1E5DD;}
	.st166{fill:#B4BBB5;}
	.st167{fill:#3D3942;}
	.st168{fill:#E3E5E1;}
	.st169{fill:#BFCACA;}
	.st170{fill:#6E736F;}
	.st171{fill:#829298;}
	.st172{fill:#2A2A2A;}
	.st173{fill:#1E1E1E;}
	.st174{fill:#2B2B2B;}
	.st175{fill:#F33B3B;}
	.st176{fill:#F23535;}
	.st177{fill:#F53939;}
	.st178{fill:#F83636;}
	.st179{fill:#6F3838;}
	.st180{fill:#593B3B;}
	.st181{fill:#4F2E2E;}
	.st182{fill:#372828;}
	.st183{fill:#3B2B2B;}
	.st184{fill:#303030;}
	.st185{fill:#101010;}
	.st186{fill:#2C2C2C;}
	.st187{fill:#292929;}
</style>
<g>
	<g>
		<path class="st0" d="M307.9,1.1c0,29.9,0,59.8,0,89.7c-0.5,0.5-1.4,0.9-1.8,0.5c-2.9-3.7-8.6-2.4-11.1-6.8
			c-1.4,0.8-2.1,2.5-3.5,3.2c-1,0.6-2,1.4-3,1.2c-3.7-1-6.9-0.1-10.2,1.7c-1.5,0.8-2.8-0.5-4-1.4c-2.2-1.7-4.5-2.6-7.1-0.7
			c-1.4,1-3.2,1.2-4.5-0.2c-1.1-1.1-2.3-0.9-3.5-0.8c-3.9,0.1-7.8,1-11.5-1.3c-0.2-0.1-0.6-0.2-0.8-0.1c-5.9,2.8-11.8-0.4-17.7-0.4
			c-2.3,0-4,0.4-5,2.7c-0.2,0.5-0.4,1.2-0.8,1.5c-4.6,2.7-2.3,6.4-0.9,9.4c1.4,3.1,1.1,5.6-0.5,8.2c-1.5,0.7-2.9,0.7-4.1-0.7
			c-0.5-1-0.9-2.2-2.3-1.9c-4.3,1.2-8.8,0-13.2,1.2c-2.3,0.4-4.6,0.6-6.9-0.2c-2.8-0.9-5.4-0.1-8.1,0.5c-2.5-0.5-3.1,3.2-5.6,2.6
			c-1-0.4-1.9-1.1-2.7-1.9c-2.2-2.1-8.7-2.5-11.1-0.8c-0.6,0.4-0.7,1.2-0.9,1.8c-0.9,2.1-1.9,3.4-3.8,0.8c-2.3-1-2.7-4.8-6.5-4
			c-3,0.6-4.7,1.8-6.1,4.6c-4.2,8.4-8.9,16.4-12.9,24.9c1.9,1.5,2.6,4.7,5.8,4.4c1.5-0.1,3-0.2,4.2-1.4c2.2-2.3,4.8-2.4,7.6-1.5
			c2,2.4,4.4,3.4,7.4,2.2c0.9-0.3,1.9-0.3,2.8-0.2c3.7,0.5,6.9,0.4,7.9-4.5c0.4-1.9,2-2.1,3.3-0.3c3.7,4.7,5.3,5.2,9.4,3.4
			c2-0.9,2.9-2.3,3.4-4.3c0.9-3.4,1.8-6.8,3-10c1.4-3.6,4-4,6-1.1c-0.3,4.4-2.2,8.5-2.6,12.9c0,0.5-0.7,1.3,0.4,1.6
			c3.1-1.2,2.8,1.4,3.1,2.9c5.7-0.5,8.3-3.9,8.9-9.4c0.1-1.4,0.4-2.8,1.7-3.7c0.4-0.2,0.8-0.2,1.1-0.1c1.5,1.6,1.7,4,3.2,5.7
			c3.5,5.2,8.7,7.5,14.2,9.6c0.4,0.9,0.2,2,1.3,2.5c0.3,0.1,0.7,0.2,0.7,0.3c1.4,3.2,3,6.3,5,9.3c1.5,2.4-2.5,6.2-5.3,5.6
			c-1-0.2-2.3-0.8-2.1-1.7c0.6-3.5-3-4.3-3.7-7.6c-0.5,2.1,0.3,3,0.8,4.1c0.6,1.3,0.6,2.5-0.4,3.5c-1,1-2.2,1-3.4,0.5
			c-0.9-0.4-1.7-0.9-2.5-1.4c-3.1-2-4-1.5-4.2,2.4c-0.1,2.2,0.8,4.1,1.3,6.1c0.4,1.6,1.6,3,0.8,4.8c-4.8,1.3-5.9,5.3-6.3,9.6
			c-0.3,3.1-3.4,7.5-1,8.8c2.7,1.4,7.1,0,10.4-2c1-0.1,1.4,0.5,1.7,1.3c0.3,0.9,0.5,1.9,1.3,2.5c2.4,3.3-0.5,6-1.1,8.9
			c-0.2,1-1.3,1.8-1.5,2.9c-0.2,0.6-0.4,1.3-1.1,1.7c1-0.2,2-0.4,3-0.4c2.3-0.2,3.7-2.4,6-2.5c1.8-0.5,1.7-2.6,2.8-3.7
			c1.4-1,2-2.6,2.5-4.1c0.9-2.7,2.6-4.1,5.4-3.8c5.1,1.7,10.2,2.4,14.9-1.3c3.7-3,6.8-6.5,5.8-11.8c-1.1-5.1-5.4-5.8-9.6-6.3
			c-1.8-0.7-4.3-0.9-4.7-2.9c-0.5-2.7-1.5-5.4-1.4-8.1c0.1-1.9,1.9-3.2,3.8-3.1c2,0,3.2-1.4,4.7-2.2c0.6-0.3,1.3-0.8,0.9-1.6
			c-1.3-2.2-0.9-3.9,1-5.5c1.6-1.4,3.5-1.5,5.4-1.4c0.3,0,0.5-0.1,0.8-0.2c0.9-0.3,1.8-0.6,2.8-0.6c0.4,0,0.7,0.2,1.1,0.4
			c2,2.1,4.1,1.2,6.1,0.2c2.5-1.3,4.5,0.2,6.6,1.3c1.5,0.7,1,1.8,0.3,2.8c-1.3,1.7-0.3,2.3,1.1,3.1c4.7,2.6,4.3,2.9,1.6,7.4
			c-2.1,3.5-4.1,7-6.6,10.2c-0.1,0.1-0.2,0.2-0.3,0.2c-7.4-0.1-9.6,4.7-10.3,11.1c-0.3,2.7-1.4,5.3-1.4,8c0.5,0.3,0.9,0.4,1,0.2
			c1.7-4.6,5.4-7.1,9.2-9.5c2.6-1.6,3.4-4.6,4.3-7.4c0.5-0.9,1-2,2.2-0.7c1,4.2-0.9,8-1.6,11.9c-0.2,1.4-0.7,2.7-0.9,4.1
			c-0.1,0.9-0.1,2,1,1.7c2.9-0.8,6.3,0,9.1-2.5c-1.4-0.6-2.5-0.1-3.6-0.3c-1.3-0.2-3-0.1-3.2-2c-0.2-1.8,0.9-2.8,2.5-3.4
			c0.9-0.3,1.9-0.3,2.6-1.1c0.3-0.8-0.3-1-0.8-1.1c-1.1-0.4-2.6-0.5-2.4-2.3c0.2-1.4,1-2.3,2.2-2.8c1-0.5,2.2-0.4,3.1-1
			c0.9-0.6,2-1.2,0.6-2.5c-4.1-2-3.1-6.8-5.1-9.9c-0.7-1.1,0.6-2.7,2-3.2c1.4-0.5,2.3,0.5,2.9,1.7c0.3,0.5,0.2-0.1,0.1,0.4
			c-0.2,5,3.5,7.4,6.2,10.6c-0.3,6.6-3.1,12.7-3.9,19.2c1.2,0.2,1.7-0.6,2.1-1.2c1.2-1.8,2.5-2,3.9-0.4c0.9,1,1.9,2.4,3.4,1
			c1.3-1.2,0.1-2.3-0.6-3.2c-1.5-2-0.9-3.6,0.7-5.1c0.3-0.3,0.6-0.5,1-0.8c4.6-4,4.6-5.4,0.7-9.8c-1.4-2.1,0.8-4.1,0.2-6.3
			c2.4-3.2,4.6-1.8,6.8,0.2c0,16.9,0,33.9,0,50.8c-2.5,0.9-5-0.9-7.4,0.1c-2,0.4-0.2,1.3-0.3,2c0.2,0,0-0.2,0-0.2
			c-0.3-0.7-0.3-1.3,0.3-1.9c2.3-0.6,4.1,0,5,2.5c0.4,1.2,1.7,1.7,2.4,2.6c0,4.5,0,9,0,13.5c-1.8,0.8-3.4,0.8-4.6-1
			c0,3.3,1.5,5.8,4.6,7c0,0.8,0,1.7,0,2.5c-0.7,0.7-2,1-2.2,1.9c-0.1,0.4,1.6-0.3,2.2,0.7c0,3.9,0,7.9,0,11.8
			c-1.8,3.3-4.1,4.7-7.6,2.3c-0.9-0.6-2.1-0.2-3.2-0.2c-3,0.1-8.7-6.2-8.4-9.3c0.2-2.1-0.3-4.6,2.1-6c1.3-0.8,0.6-1.6,0-2.4
			c-2-2.7-2.2-5.6-2-8.9c0.1-2.6-2.3-1.8-4-2.8c1,1.3,2.6,1.8,1.8,3.3c-0.7,1.3-1.9,0.7-2.9,0.4c-1.6-0.5-3.1-0.9-4.7-1.4
			c-2.9,0.9-5.3,1.3-5.8-3.1c-0.2-1.3-2.3-2.2-2.8-3.9c-0.1-0.4-0.2-0.8-0.3-1.2c-0.2,0.1-0.2,0.4-0.1,0.7c0.1,0.7,0.2,1.4,0.2,2.1
			c-0.2,2.1-0.8,3.6-3.3,2.4c1,1.1,2.7,1.5,2.7,3.3c-1.1,1.9-1.9,4.3-4.8,2.2c-0.5-0.3-0.2,0.3-0.1,0.4c0.3,1.8-0.1,3.6-0.5,5.4
			c-0.5,1.2-1.3,2-2.6,2.1c-2.6,0.7-4.6,3.5-7.8,2.6c-0.4-0.1-1.4,0.4-1.8-0.1c-2.1-2.7-2.8-0.7-4.4,0.8c-1.2,1.1-1.5,1.6-0.8,3
			c0.6,1.3,1.2,2.1,2.7,1.1c0.7-0.5,1.6-0.2,2.4,0c1.5,0.5,3.1,0.9,3.7,2.7c-0.2,2.3,1.9,4.2,1.2,6.6c-0.5,0.4-1,0.4-1.6,0.4
			c-1.3-0.3-2.6-0.4-3.5-1.6c0.1-0.7-0.1-1.1-1-1c-0.8,0.1-1.7-0.1-1.4,1.2c0.4,1,1.2,1.8,1.1,3c-0.7,1.3-1.6,1-2.3,0.8
			c1.2,0.8,3.1,0.7,4.6,1.5c3.2,0.7,5.4,4.8,9.3,2.7c1.8,0,1.4-2.4,2.9-2.8c1.1-0.4,2.2-0.5,3.2-0.8c2-0.1,4-0.2,5.9-0.9
			c1.3-0.5,2.6-0.8,3.7,0.3c1.8,2.5,1.6,5.8,3.3,8.4c-0.1,0.4-0.3,0.7-0.7,0.9c-1.6,0.6-3-0.1-4.2-1c-1.6-1.2-3.2-1.3-5-0.2
			c0.2,1.5,1.9,1.9,2.5,3.1c0.2,2.1,0.6,3.7,3.4,3.1c2.2-0.5,3.8,1.1,4.6,3.3c0.5,1.5,0.9,3-0.4,4.3c-1.1,1.1-2.5,0.9-3.8,0.3
			c-0.8-0.3-1.5-0.6-2.2-1.1c-1.9-1.2-3.6-2-5.6,0.4c-1.2,1.4-3.4,1.6-5.2,0.1c-1.7-2.4-3.1-5.4-4.7-7.4c-2.2-2.8-4-8.2-9.5-6.6
			c1.5,1.3,3.1,2.7,4.3,4.6c1.1,1.9,1,3.2-1.5,3.4c-1.9,0.1-3.7,0.3-5,2.2c-0.5,0.7-1.6,0.8-2.3,0.3c-2.9-2.4-6.5-1.7-9.7-2.4
			c-0.8-0.3-2.6-0.7-2.2-1.3c1.6-2.6-1.2-3.4-1.8-5.4c0.5,2.3,1.7,4.8-2.3,4.1c1.8,0.2,3.3,1.1,4.8,2.1c2,1.2,4.1,2.2,5.7,4
			c1.7,2,6.2,2.1,8.3,0.7c0.8-0.6,1.8-0.6,2.1,0.2c0.9,2.2,5.9,2.5,2.7,6.8c-0.8,1.1,2.1,2.3,3.3,3.6c0.6-1.8,1.9-3.1,2.5-4.8
			c0.2-0.5,1.3-0.8,0.5-1.7c-0.9-1.1-2.1-2.2-0.1-3.4c1.7-1,3.4-1,4.8,0.7c3.1,4.7,9.4,6,11.8,11.4c0.8-4.7,3.9-7.4,8.5-7.5
			c0.2,0,0.2,0.5,0.6,0c2.5-3,3-2.9,5.6,0.7c0.6-0.9,0.6-1.8-0.1-2.7c-2.3-3.1-0.2-3.1,2-3.1c2.1,0,4.1-0.2,6,1
			c0.5-2.1-2.1-4.3-0.2-5.8c1.8-1.4,3.9-0.4,5.6,1.1c0.7,2.4,0.7,2.4,3.7,3.4c0,94,0,187.9,0.1,281.9c0,2.9-0.6,3.5-3.4,3.5
			c-100.4-0.1-200.8-0.1-301.3,0c-2.8,0-3.4-0.6-3.4-3.5C0.1,374,0.1,187.6,0.1,1.1c1.4-0.8,3-0.4,4.4-0.4c55.3,0,110.5,0,165.8,0
			c19.6,0,39.2,0,58.8,0c24.8,0,49.6,0,74.4,0C305,0.7,306.5,0.3,307.9,1.1z"/>
		<path class="st1" d="M239.8,188.9c-3-0.4-4.4,1.3-5,4c-0.4,1.9-0.8,3.9-3.5,3.7c-1.5-3.3-2.8,0.7-4.3,0.1c-2-0.7-2,0.8-2.2,2.1
			c-0.7,3.4-2.9,2.7-5.1,2.1c1.1-2.7,2.1-5.5,3.4-8.1c0.8-1.6,1-2.6-1-3c0.5-2.2,2.1-2.2,3.8-2.1c1.2,0.3,0.4,2.2,1.8,2.4
			c1.1-0.9-0.3-1.8,0.2-2.7c1.3-1.9,4.1-0.6,5.2-2.8c-0.4-1.4-1.5-1-2.3-1c-4.3,0-4.7-0.4-4-4.9c0.4-3,1.5-5.9,1.3-9.1
			c-2.3,0.5-2.2,2.1-2.4,3.4c-0.8,3.7-1.4,7.4-2.2,11.2c-0.3,1.3-0.1,3-1.9,3.3c-0.3-0.6-0.6-1.2-0.8-1.9c-1.6-0.3-3.2-0.5-4.9-0.6
			c-1.4-0.1-2.9-0.3-3.1-2.1c-0.2-1.9,1.1-2.7,2.6-3.2c1-0.3,2.2-0.3,2.8-1.6c-1-1.3-3.9-0.5-3.8-3c0.1-4.1,4.5-2.3,6.3-4.7
			c-0.8-1.2-2.7-0.4-3.4-1.8c-1.9-4.5-4.4-8.8-2.5-14c0.8-2.2,1.5-3.4,3.5-1.1c0.8,0.9,2,1.4,3,2.1c1.1,0.8,2.3,1.9,3.6,0.4
			c1.3-1.5,0.3-2.4-0.9-3.5c-1.4-1.3,0.2-3.2-0.8-4.7c-0.1-0.1,0.5-0.8,0.7-0.8c0.5,0.1,1,0.4,1.3,0.8c1.5,2,1.8,5.1,4.9,5.6
			c0.1,0,0.3,0.4,0.3,0.6c0.1,3,0.1,3,3.5,3.2c-0.2-1.4-2.5-3.4,1-3.8c1.3-0.2,0-1,0-1.5c0.1-1.1-0.4-1.5-1.5-1.2
			c-3.6,0.8-3.3-1.2-2.3-3.6c0.7-1.7,1.2-3-1.4-2.9c-3.9,0-1.8-1.8-0.9-3.2c1.8-1.9,4.3-1.6,6.4-2.3c8-2.7,12.7-8.1,14.2-16.7
			c0.7-4.2-1.6-7.5-2.9-11.1c-0.1-2.8-1.6-5.8,0.6-8.5c1.7-2.2,2.6-2.2,4,0.2c0.5,0.9,0.5,1,2.8,0.5c2.3-0.5,4.8-1.6,3.4,2.8
			c-0.6,1.8,3.1,1.3,2.3,3.7c-0.9,2.8,0.7,4.5,2.8,5.8c1,0.6,1.4,1.6,3.1,0.7c2.3-1.2,6.3,2.2,6,4.6c-0.2,1.1-1.9,2.4-0.2,3.2
			c1.9,1,3.7,2.6,6.1,1.5c0.6-0.3,1.2-0.8,1.9-0.9c2.1-0.4,4.2-1,3.2,2.8c-0.6,2.1,1.3,4.2,0.7,6.6c-0.6,2.1,2.4,2.6,1.9,3.8
			c-2.7-10.2-2.7-10.2,4.4-12.1c2.6,1.2,1.8-2.1,3.2-2.5c2.8-2.8,9.9-3.7,12.8-1.7c1.1,0.8,2.4,1.6,1.7,3.4
			c-0.7,1.6-2.1,1.9-3.4,1.3c-2.9-1.3-4.9,0.5-7.2,1.9c4,3.6,6.2,3.5,9.6-0.5c0.5-0.6,1.2-0.7,1.8-0.1c0,11.6,0,23.1,0,34.7
			c-2.2-0.3-4.4-2.3-6.6,0c-3.4,0.4-0.8,2.9-1.3,4.3c-0.2,0.4,1,1.5-0.1,2.3c-2.3,0.5-4.5,1.7-6.8,0.2c-0.8-0.7-1.6-1.6-2.5-2.1
			c-2.7-1.7-4.6-3.6-3.8-7.3c0.2-0.9-0.2-2.7-1.7-3c-1.2-0.2-1.6,0.9-2,1.7c-0.1,0.1-0.2,0.3-0.1,0.4c2.9,2.5,0.8,8.1,5.4,9.5
			c-2.8,2.9-6.6,1.9-10,2.7c-1.3-1-0.8,0.5-1.1,0.9c-1.7-0.6-3-1.6-3.2-3.6c-0.3-1.1-1.6-2.8,0.2-3.1c3.4-0.6,3.4-3.2,4-5.5
			c0.2-1,0.8-1.7,1.5-2.3c3.2-2.7,3-3.7-0.7-5.2c-3.9-1.6-4.1-2.8-1-5.9c-2.5-0.4-4.6-2.3-7.2-1.6c-0.2-0.3-0.3-0.6-0.4-0.9
			c-0.1-0.8-0.5-1.3-1.2-0.6c-0.7,0.6-1,1.5-1.9,1.9c-1.4,0.4-2.1-0.7-3.1-1.3l0,0c-1.1-0.3-2.1-1-3.3-1.4c-0.1,0.9,1.3,1.1,0.8,2.2
			c-0.8,1.1-1.9,0.7-3,0.7c-3.6-0.1-5.1,2.3-3.6,5.5c0.7,1.5,1.4,2.5-1.3,3.1c-2.3,0.5-4.1,2.9-7,2.4c-0.7-0.1-2.4,1.8-1.9,2.3
			c2.6,2.8-0.6,8.8,5.2,9.7c-0.5,1.5-1.7,1.7-3,1.8c-1.7,0.1-3.1-0.7-4.6-1.4c-0.8-0.5-1.9-1-2.6-0.2c-1.1,1.1,0,2,0.5,2.9
			c0.4,0.7,1.1,1.3,1.1,2.2c-0.1,0.7-0.3,1.4-0.8,1.9C237.2,179.4,238.1,184.1,239.8,188.9z"/>
		<path class="st2" d="M289.9,126.3c-1.3,0.5-2.5,1.1-3.8,1.5c-1.7,0.5-2.3,1.3-1.5,3.1c1.1,2.2,0.4,5,2.4,6.9
			c0.6,0.6,0.3,1.6-0.3,2.3c-0.5,0.6-1.2,0.8-1.9,0.5c-0.8-0.3-1.5-0.9-1.2-1.9c0.2-0.8,0.3-1.5-0.1-2.4c-0.7-1.5-3-0.5-3.2-1.8
			c-0.4-2.3,2.3,0.1,2.5-1.3c0.3-1.8-1-3.3-1.3-5.1c-0.3-1.3,2.2-1.8,0.4-2.9c-1.3-0.8-2,0.2-2.9,0.7c-1.9,1.1-8-0.1-9.5-1.7
			c-0.8-0.9-0.5-1.6,0.2-2.1c2.4-2.2-0.1-3.6-1.1-4.7c-1.2-1.3-3.2-1.7-3.9,1.1c-0.2,0.6-1.6,1-1.6,0.4c0.3-3.4-3-3.4-4.4-5.2
			c-0.6-0.8-0.5-1.4-0.4-2.2c0.2-1.6,2.1-4.6-2.2-3.3c-1.1,0.3-1.4-0.9-0.6-2c0.6-0.8,1.9-1.3,1.7-3c-2.5,0.9-5.1,1.7-7.7,0.9
			c-0.9-1.2,2.3-1.5,0.6-2.6c-1.4-0.9-1.8,0.9-2.3,1.7c-0.9,1.4-1.8,2.9-0.5,4.6c0.7,0.9,0.6,1.8-0.4,2.5c-0.3,0.2-0.7,0.3-1.1,0.1
			c-2.3-1.9-4.6-3.7-7-5.5c-1.5-1.7-3.1-2.5-5.1-1c-0.6,0.2-1.1,0.1-1.6-0.1c-2.1-1.9-3.4-0.6-4.6,1.2c-1.5,1.3-3,2.6-5.2,1.7
			c0.5-4.7-1.1-8.8-3-12.9c-0.4-0.8-0.5-2.2,0.1-2.3c3.4-0.9,3.4-4.8,5.8-6.5c2.8-2,5.9,0.1,8.9-0.1c3.9-0.2,7.8,3,11.6-0.2
			c0.4-0.3,1.2-0.6,1.5-0.4c4.6,3.5,9.8,1.3,14.7,2c1.3,0.2,3,3.2,4.5,1.4c2.4-3,5.2-2.1,6.8-0.5c3.3,3.4,6.1,2,9.2,0.2
			c1-0.6,2.1-1.3,3.1-0.4c2.2,2.2,4,0.4,6-0.5c1.6,1.5,1.4,4.1,3,5.8c-0.8-3.2-0.1-6.2,0.2-9.2c2.1-1.5,2.1,0.4,2.6,1.6
			c0.6,1.7,1.2,3.1,3.5,2.1c1.8-0.7,3.2,0.2,4,1.8c0.7,1.3,1.5,2.3,3.1,2.1c0,12.1,0,24.3,0,36.4c-0.5,0.2-1.2,0.4-1.4,0.7
			c-1.1,3.1-5.3,5-7.6,2.9c-1.5-1.3-4.6,0-4.4-2.4c0.2-2.2,3.2-2.2,4.8-3.5c1.2-1,2.3-1.5,3.7-0.6c1,0.7,2,1.6,3.3,0.5
			c0.6-0.5,0.8-1.3,0-1.8c-1.2-0.8-2.6-2.9-3.7-1.9c-1.6,1.5-2.5,0.7-3.9,0.1c-2.5-1-4,1-5.6,2.4c-1.3-1-1.5-2.5-1.7-4
			c0-1.8,1.1-2.7,2.8-3.1c0.4,0-0.4-0.7-0.2-0.2c0.1,0.2,0,0.3-0.3,0.2c-3.7-0.6-4.1-1.6-2.7-4.9c1.2-2.9,3.7-4.6,5.8-6.6
			c-1.3,0.5-1.9,2.8-3.5,1.7c-1.7-1.1-0.8-3-0.3-4.6c0.4-1.2,1.6-2.4,0.7-3.5c-1.1-1.2-2.6-0.3-3.8,0.1c-1.4,0.4-2.7,1.4-4.3,0.8
			c-1.2-0.6-1.2-1.5-0.7-2.6c0.7-1.8,3.6-1.3,3.9-4.4c-2.5,1.4-3.5,3.5-5,5.1c-1.5,1.6-1.5,3.5-1.2,5.5c0.3,1.5,0.2,2.8-1.3,3.6
			c-5,1.2-6.5,0.3-7-4.5c0.3,2.1-0.9,4.4,0.5,6.8c1.6-2.5,5-0.1,6.7-2.6c2.7-0.4,3.7,1.4,3.8,3.7c0.1,2.1-1.3,2.9-2.7,2.7
			c2.7,0,4.7,1.4,4.5,5.1c-0.1,2.6,2,4.1,3,6.3C290.4,125.2,290.3,125.8,289.9,126.3z"/>
		<path class="st3" d="M279.1,227.9c2.3,0.8,4.5,1.5,7.4,2.5c-0.9-2-3.2-2.1-3.2-4.1c1.2,0,2.7-0.5,3.6,0.1c1.3,0.8,4.8,0,2.9,4.2
			c-1,2.1,0.1,6.1,2.6,8c2.2,1.8,1.9,2.5-0.4,3.1c-4.1,1.1-1,4.8-2.4,7c-0.7,1.2,1.4,2,3.2,1.7c1.7-0.3,1.2,1.5,1.2,2.5
			c0.1,1.9,1.3,3.2,2.9,2.5c2.1-1,3.6-0.6,5.2,0.7c1.6,1.3,2.9,1.3,3.8-0.8c0.4-0.8,1.2-1.1,2.1-1.1c0,7.1,0,14.1,0,21.2
			c-1.4,2.5-2.8,0.5-4.2,0c-1.6-0.3-3.2-0.6-5.7-1c2,2.2,1,4.7,2.6,6.8c-3.3-1.3-6.7-1-10.6-1.1c4.1,2.3,3.2,4.5,0.3,7
			c-0.5-2.1-0.8-4.3-3.5-4.4c-0.5,0-0.8,0.1-0.9,0.5c-0.3,1.2,1.2,1.2,1.6,2c-2.3,1.3-5.5-3-7.4,2.2c-0.8,2.2-4.7,3.3-1.5,7.6
			c-3.2-1.1-3.7-3.3-4.5-4.8c-0.8-1.5-1.7-2.6-3.2-2.8c-2.8-0.3-4.2-1.7-4.8-4.4c-0.2-1-1.2-1.7-1.9-2.6l0,0
			c4.6,0.5,6.4-0.7,5.6-4.3c2.5,1.3,4.9,2.5,7.2,3.7c1.2,0.6,2.5,1.7,3.7,0.4c1.1-1.1,0.4-2.6,0-3.9c-0.6-1.6-2.3-2.9-3.4-2.3
			c-5,2.6-4.1-0.9-4-3.7c-0.7-1.6-0.1-2.3,1.3-1.4c2.5,1.5,4.2-0.1,6.1-1.2l0,0c0.6-0.7,0.8-1.8,1.8-2.1c2.2-0.5,4.2-3.1,6.8-1.1
			c0.8,0.7,2.2,0.8,2.2,2.3c-0.4,0.6-1.1,1.2-0.3,2.1c0.7-0.6-0.4-1.5,0.2-2c0.4-0.4,0.9-0.7,1.4-0.9c0.9-0.3,1.9-0.4,2.8-0.6
			c0.3-0.1,0.5-0.2,0.8-0.3c-0.3-0.3-0.8,0.1-1.1-0.2c-0.8-0.4-1-1-1-1.8c0-0.8,0.6-1.5,0.6-2.3c0-0.3,0-0.9-0.4-0.9
			c-0.3,0-0.5,0.6-0.8,0.9c-1.5,0.9-2.9,2.2-4.9,1.1c-0.8-1.2-0.7-2.2,0.5-3.1c0.4-0.3-0.2,0.1,0.3-0.2c0,0.1-0.2,0.1-0.3,0.3
			c-3,1.5-4.8-1.7-7.3-2c-1.1-1-2.7-1.8-2.3-3.6c0.4-2,2.5-1.2,4.1-2c-1.6-1.2-3.7-1.5-4.3-3.5c-0.5-1.8-0.6-3.5,0.9-5
			c0.4-0.3,0.5-0.6,0.2-0.3c-0.4,0.4-1,0.6-1.6,0.8c-0.8,0.2-1.5,0.1-2.3-0.3c-0.9-1.5-2.7-1.8-3.6-3.3c-0.5-0.8-0.3-2.6-2.1-1.8
			c1.8,1.2-1.5,2.2-0.1,3.5c1.5,1.4,1.6,3.1,0,4.3c-1.5,1.1-3.4,1.1-5.1,0.4c-1.8-0.8-1.8-2.4-1.6-4.2c0.2-1.5,1.1-3.3-0.9-4.4
			c0.1-1.4,0.2-2.7,0.4-4.1c0.2-1.4-0.3-2.6-0.6-4.2c2,2.1,3.8,3.7,6,0.7c1.3,0.4,2.5,1.2,3.9,1.3c2.9,0.2,5.9,0.2,4.8,4.6
			c-0.4,1.7,3,0.8,1.9,2.9c-0.2,0.4-0.3,0.5,0.1,0.3c0.2-0.1,0.2-0.3,0.2-0.4c0.9-1.9-2.8-1.2-1.6-3c1.1-1.6,2.7-0.9,4.1-0.3
			c3.6,1.4,3.7,1.5,4.4,5c-0.1-4.3-0.6-4.8-5.9-5.7C277.6,233.7,276.7,231.1,279.1,227.9z"/>
		<path class="st4" d="M307.9,1.1c-102.6,0-205.2,0-307.8,0C1-0.7,2.6,0.3,3.8,0.3c55.7-0.1,111.4-0.1,167.1-0.1
			c44.6,0,89.2,0,133.8,0.1C305.7,0.3,307.2-0.7,307.9,1.1z"/>
		<path class="st5" d="M307.9,237.2c-4.7,1.6-3.9-3.2-5.7-5.1c1.6-1.5-1-2-0.8-3.5c2.2,1.2,4.2,2.5,6.5,2.7c0,0.3,0,0.6,0,0.8
			c-1.7,1.4-1.2,2.8,0,4.2C307.9,236.6,307.9,236.9,307.9,237.2z"/>
		<path class="st6" d="M307.9,217.7c-1.8-0.1-3.6,0.1-3.6-3c0-1.8-2.5-1.5-3.8-2.1l0-0.1c2.5-0.6,5-2,7.4,0
			C307.9,214.4,307.9,216,307.9,217.7z"/>
		<path class="st7" d="M303.8,275.3c0.5-0.7,1-2,1.7-0.4c0.8,1.8,1.7,0.4,2.5,0.3c0,1.1,0,2.3,0,3.4
			C305.4,279,303,279.3,303.8,275.3z"/>
		<path class="st8" d="M307.9,242.3c-1.4-0.1-3,0.5-5-1.5c2.6,1.1,3.2-1.5,5-1.1C307.9,240.6,307.9,241.4,307.9,242.3z"/>
		<path class="st0" d="M307.9,236.4c-1.1-0.5-2.5-0.9-2.6-2.3c-0.1-1.7,1.9-0.9,2.6-1.9C307.9,233.5,307.9,235,307.9,236.4z"/>
		<path d="M177.1,279.6c7.4-0.8,7.3-0.8,9.9,6.4c16.6,46.4,33.2,92.7,49.7,139.1c0.5,1.5,3.4,3.8-0.1,5.1c-4.4,1.6-7.8,0.4-8.7-2.6
			c-15.4-48.3-32.2-96-48.2-144.1c-0.4-1.4-0.4-3.3-2.6-3.3C176.6,280.1,176.6,279.9,177.1,279.6z"/>
		<path class="st9" d="M212.4,52.2c-0.2,0.1-0.3,0.3-0.4,0.4c-1.2,1.3-2.4,1.9-4.3,1.1c-2-0.9-4.2-0.8-6.3,0
			c-0.6,0.3-1.4,0.4-1.8,0.9c-2.2,2.6-4.6,4-7.9,1.8c-1-0.7-2.7-0.6-3.5,0.2c-3,2.7-4.6,1-6.4-1.6c-1.7-2.6-4.9-2-7.4-3
			c-0.7-2.9-1-6.1-3.6-8.1c-0.3-0.2-0.6-0.8-0.4-1.1c1.7-2.6,2.3-6.1,4-8.4c1.7-2.1,4.5-3.3,8.1-3.6c4.2-0.4,8.9-0.7,13.1-2.4
			c1.4-0.6,2.6-0.9,3.8,0c2.8,2.1,5.9,2,9,1.1c2.4-0.7,4-0.3,4.9,2.2c1.1,3,4.1,3.4,6.4,4.8c1.3,3.5,0.3,7.3,1.4,10.9
			c0.3,1.1-1.1,1.3-2.1,1.3C216.4,49.2,214.1,50.1,212.4,52.2z"/>
		<path class="st10" d="M139.1,393.8c1.5-0.8,3.1-1.5,4.3-2.8c0.8-0.9,1.6-0.6,2.9-0.3c3.3,0.7,6.9,1.2,10-1
			c2.5-1.8,5.1-3.5,7.9-5.1c-1.7,1.7-3.4,3.4-5,5c1.3,2.3,3,1,4.4,2.1c-3.6,0.8-6.9,1.6-10.2,2.1c-2.5,0.3-3.7,1.4-4.5,4
			c-3.5,11.7-7.3,23.2-10.9,34.9c-0.7,2.4-1.7,3.8-4.4,3.9c-11.3,0.6-22.6,1.5-33.9,2.2c-2.1,0.7-4.2,0.2-6.3,0.3
			c-0.9,0-1.6-0.4-0.9-1.5c1-0.8,2.1-0.8,3.3-0.9c1.5-0.1,3,0.2,4.3-0.8c1.4-0.8,2.9-0.9,4.4-0.9c3,0.1,5.8-1.2,8.8-1.3
			c4.3-0.7,8.5-2.3,12.9-2.2c1.7,0.1,2.8-1.1,3.3-2.7c2.9-9.2,6.5-18.2,8.7-27.7c0.2-1.4,0.6-2.8,1.5-3.8
			C140.9,395.7,140.5,394.7,139.1,393.8z"/>
		<path class="st11" d="M134.1,558.6c-3.3,0-6.6-0.1-9.8,0c-2.1,0.1-2.9-0.8-2.9-3c0.1-6.9,0.1-13.8,0-20.7c0-1.9,0.5-3,2.5-2.9
			c7,0,14,0.1,20.9,0c2.1,0,2.5,1.2,2.5,2.9c0,6.9-0.1,13.8,0,20.7c0,2.2-0.8,3-2.9,3C140.9,558.5,137.5,558.6,134.1,558.6z"/>
		<path class="st3" d="M189.3,185.5c0,2.9,3.1,2.6,4.2,4.4c1.7,3-1.1,3.6-2.5,5c-1.2,1.3-1,2.8,0.8,2.3c4.5-1.3,6.2,1,6.8,5.2
			c-2.1,0.4-3.2-1.4-4.5-2.3c-2.1-1.4-4.1-4.1-5,0.9c-0.1,0.6-0.9,1-1.3,1.5c-0.1,0.1-0.2,0.2-0.3,0.2c-1.8,1.8-2.6-6.1-5.1-0.5
			c-1.1,2.4-5,1.2-6.6,3.6c-1.1,1.5-2.8,1.5-4.4,1.7c-2.1-1.6-3.9-3.5-6.2-4.9c-1.5-0.9-0.1-1.5,0.7-1.9c2.5-1.1,1.8-2.4,0-3.4
			c-3.2-1.7-5.4-4.7-9-6c-3-1.1-1.8-2.5,0.5-3.3c7.1-0.2,13-3,17.5-8.6c0.7-0.9,1.4-1.8,2.6-1.7c1.1,0.5,1.2,1.6,1.4,2.7
			c0,2.8-1.1,5.5-1.3,8.1C181.4,187,185.6,187.2,189.3,185.5z"/>
		<path class="st11" d="M121,105.9c1.5-2.9,4.1-1.4,6.1-1.4c1.7,0.1,5.1-2.2,4.9,2.4c0,0.2,0.2,0.7,0.3,0.7c5.3,0.2,2.6,4.2,2.5,6.3
			c-0.2,6.7-1.2,13.4-1.4,20.2c-0.1,3.3-1.1,4.8-4.4,5.1c-1.9,0.1-3.7,0.8-5.7,1.3c0-1.6,0-2.9,0-4.3c-2.7,4.1-6.6,2.6-10.2,2.9
			c-1.5,0.1-2.7,0-2.9-1.9c-0.1-0.9-0.5-1.6-1.6-1.5c-1,0.1-1.3,1-1.4,1.8c-0.2,3.5-2.1,2.2-4.2,2c-4-0.3-5.4-4.2-8.5-5.8
			c-0.2-0.1,0.1-1,0.1-1.5c0.3-0.3,0.7-0.5,1.1-0.6c1-0.1,1.9,0.2,2.8,0.5c2.2,0.8,3.4-0.3,3.9-2.4c0.4-1.8,0.9-3.5,1.5-5.3
			c0.4-1,0.5-2.5,1.8-2.4c1.2,0.1,1.3,1.6,1.7,2.7c0.4,1.3,0.6,2.7,0.9,4.1c0.4,1.6,0.6,3.4,2.8,3.7c2.2,0.2,4.1-0.1,5.3-2.3
			c0.9-1.7,1.7-3.5,2.7-5.2c0.5-0.9,1-2.3,2.3-2.1c1.5,0.3,1.3,1.9,1.4,3.2c0.1,1.3-0.1,2.5-0.2,3.8c-0.1,1-0.7,2.4,0.9,2.8
			c1.1,0.3,2.2-0.1,3-1c1.3-1.3,1.5-3,1.5-4.7c-0.2-5.4,0.6-10.7,1.2-16c0.4-3.5-1-4.2-3.8-4c-1.2,0.1-2.5,0.2-3.7,0.1
			C121.1,107,120.6,106.7,121,105.9z"/>
		<path class="st10" d="M179.4,538.5c-3.3-0.7-6.8,0.8-9.9-1.2c-0.9-0.5-1.5-0.1-1.9,0.8c-2.7,5.8-1.6,10.6,3.5,13.8
			c0.9,0.6,1.2,0.9,0.6,1.8c-0.7,1-1.7,1.1-2.5,0.6c-1.1-0.7-2.1-1.8-3.1-2.7c-1.4,4.8,6,3.3,5.2,7.8c-6.9-2-10.8-8.2-10-15.6
			c0.8-6.9,6.4-12.3,13.2-12.8c6.9-0.5,13.4,4.4,15,11.2c1.7,7.3-2,14.1-9.8,17.5c0-1.2,0.2-2.3,0-3.3c-0.6-2.6-0.3-4.1,2.4-5.6
			c3.3-1.8,3.4-5.3,1.7-8.7C181.9,541.2,182.8,537.1,179.4,538.5z"/>
		<path class="st10" d="M60.1,183c-5.1,6.6-10.8,8.9-17.1,6.9c-4.2-1.3-6.2-4.5-5.6-9c1-7.4,9.7-14.1,16.8-13.1
			c3.9,0.6,6.5,2.7,7.6,6.7c0.8,1.2,1.1,2.5,0.8,3.9C62.1,180.1,61.7,181.9,60.1,183z"/>
		<path class="st10" d="M247.2,168.7c1-0.3,2.1-0.6,3.1-0.9c4.5-0.2,8.6,0.4,10.6,5.2c1.7,4-0.1,9.8-4,13.3
			c-5.1,4.6-10.9,5.6-17.1,2.5c-4.2-5.4-3.9-9,1.4-16.1C242.2,169.8,244.8,169.4,247.2,168.7z"/>
		<path class="st12" d="M276.6,63c-0.3,0-0.6,0-0.8,0c-6.1-1.1-12.2-2.2-17.4,2.8c-0.4,0.4-1.3,0.4-2,0.5c-2,0.4-4.7,1.8-5.6-0.3
			c-1.1-2.2,2.2-2,3.4-3.1c2.9-2.6,3-4.4,0.4-7.3c-5.6-6.3-6.5-13.8-4-21.6c2.2-7,11.1-13.2,18.5-13.2c11.1,0,19.8,4.8,25.4,14.8
			c7,12.3,0,25.8-13.8,27.2c-1.4,0.1-2.7,0-4.1,0C276.6,62.9,276.6,62.9,276.6,63z"/>
		<path class="st3" d="M256.9,255.7c-0.6-1.9-2.7-3.3-1.7-5.7c0.5-3.1-1.7-2.5-3.4-2.6c-0.5,0-1.2,0.2-1.6,0
			c-2.1-1.1-0.5,3.7-2.4,1.8c-1.5-1.5-2.2-3.8-3.2-5.7c-0.1-0.2,0-0.5,0-0.8c3,0.8,2.4-3.3,4.7-3.6c1.2-0.2,1.1-0.3,3.5,2.8
			c1.3-0.9-1.2-3,0.8-3.2c1.8-0.2,1.3,2,1.8,3c2.1-0.5,3.3-2.8,5.6-2.5c2.6,1.9,2.6,5.4,4.6,7.7c1,1.2,0.2,2.2-1.2,2.1
			c-1.3-0.1-2.6-0.9-3.7,0.6c-1.3,1-0.5,2.1,0,3.2c0.8-0.5,0.2-1.4,0.6-2.1c1.7-3.1,4-1.3,5.9-0.6c2,0.7,3.1,2.5,3,4.9
			c-0.1,2-1,3.7-1.8,5.4c-1,1.1-2.2,0.6-3.4,0.7c-2.6-1-2.1,1.3-2.5,2.6c-2.1,1.8-4,2.6-6.1-0.3c-0.8-1.1-2.5-1.5-3.7-2.2
			c-0.2-1.6-0.4-3.2-2.5-3.5c-1.1-0.5-1.6-1.3-1.6-2.5c0.9-1.2,1.9-1.8,3.3-0.8c0.7,1.3,2.5,0.3,3.3,1.5c0.7,0.8,1.2,1.7,1.9,2.5
			C257.4,257.3,256.1,256.6,256.9,255.7z"/>
		<path class="st13" d="M268.5,260.2c-1.8-1.9,0.6-3.4,0.7-5.1c0.2-2.1-1-3.7-1.7-3.9c-1.7-0.6-3.7-3.1-5.7-0.4
			c-1.5,0.4-1.5-0.8-1.7-1.8c0.8-4.5,3.2-0.5,5.1-0.8c-1.3-3.3-3.7-5.8-4.2-9.2c1.2,0,2-0.6,2.5-1.7c1.7-0.2,2.6-0.2,2.3,2.3
			c-0.2,1.6-3.4,6.5,2.7,5.4c1.1-0.2,2.5,0.6,2.9-1.3c0.3-1.8-1.1-1.9-2.2-2.4c-0.4-0.1-0.6-0.5-1.3-0.9c1.2-0.6,2.2-1.1,3.2-1.6
			c-0.5-1.1-1.7-0.2-2-1.3c3.1-1.4,5.6-0.9,5.1,0.6c-1,3,4.3,1.4,2.4,4.3c0.7,1.3,1.5,1.3,2.3,0.1c0.7-0.5,1.3-1,2-1.4
			c0.9-0.5,2.1-0.8,2.6,0.1c0.6,1.2-0.5,1.9-1.4,1.9c-2.2,0-1.9,1.8-2,3c-0.1,1.4,0.6,2.5,2.1,3.2c1.1,0.5,3.5,0.1,3,2.5
			c-0.5,2-2.1,0.9-3.4,0.9c-0.5,0-1.3,0.2-1.4,0.5c-0.5,1.7,1.5,1.7,1.9,2.8c-1,2.1-2.8,3.1-5,3.5
			C274.3,258.4,271.6,261.8,268.5,260.2z"/>
		<path class="st14" d="M120.5,177.6c-1.1,4.2-2.1,7.1-2.7,10.1c-0.5,2.3-1.8,1.9-3.4,1.6c-2.1-0.3-1.8-1.5-1.4-3
			c1.3-5.2,2.6-10.4,3.8-15.6c0.8-3.7,3.9-2.3,6-2.8c2.3-0.6,2,1.7,2.4,3c0.7,2.5,1.2,5.1,1.9,8.1c2.1-3.3,1.3-7.2,3.6-9.7
			c1-1.1,3.2-0.9,5.4-1.5c-2,6.4-3.9,12.3-5.8,18.3c-0.7,2.4-2.8,2.6-4.6,2.9c-2.1,0.5-1.5-1.8-2-2.9
			C122.6,183.9,121.8,181.3,120.5,177.6z"/>
		<path class="st15" d="M236.3,273.6c3.5,0.6,7.3-0.3,10.2,2.7c0.2,0.2,1,0,1.1-0.2c1.2-3.6,4.2-2.3,6.9-2.6c-1.1-3.3-3.6-5.1-6-7.2
			c3.7-3.8,6.6,1.9,10.2,0.5c-0.5,1.7-4.1,4.1,1,3.7c1.5-0.1,1.4,0.7,1.5,3.1c0,1.2,1.2,2.4,1.8,3.6c0.5,1,2.3,1.5,1.3,3.1
			c0,0,0,0,0,0c-1.7-0.5-3.4-0.9-5.2,0.4c0,1.4,3.7,2.8,0.7,4.2c-1.8,0.9,1.4,3.8-1.8,3.3c-0.5-0.1-0.6,0.3,0.6,2.8
			c-3.4-0.9-5.8-3.1-7.8-5.8c0.5-1.6,2.7,0.1,2.9-1.5c0.2-1.4-1.2-1.7-2.2-2.1c-1.3-0.4-0.8-2.4-2.5-2.8c0.1,3,0,6.2-3.4,1.8
			c-0.3-0.3-1.1-0.5-1.5-0.3c-2.8,1.1-4.3-0.6-5.6-2.8c-0.9-1.6-3.4-1.1-3.9-3.1C234.9,273.8,235.9,274.2,236.3,273.6z"/>
		<path class="st11" d="M63.5,175.4c0.3-1.1,0.6-2.2,0.9-3.2c0.8-3,3.9-4.9,7-4.3c1.4,0.3,1.3,1.3,1.5,2.1c0.7,2.8,1.4,5.7,2.8,8.6
			c0.6-2.3,1.3-4.6,1.8-7c0.3-1.5,0.8-2.7,2.5-2.9c1.1-0.1,2.3-0.7,3.1,0.2c0.8,0.8,0,1.8-0.3,2.7c-1.4,4.6-2.9,9.1-4.3,13.6
			c-0.4,1.2-0.6,2.3-2,2.9c-2.4,1.1-4.1,1.7-4.9-1.9c-0.5-2.6-1.7-5-2.8-7.9c-1.9,2.8-2.1,5.8-2.8,8.6c-0.6,2.2-1.4,2.9-3.7,2.4
			c-3-0.6-1.2-2.4-1.3-3.8c0.6-1.8,0-3.8,0.8-5.5C62.7,178.7,62.3,176.8,63.5,175.4z"/>
		<path class="st14" d="M164.8,107.7c0.2,0.7,0.3,1.3,0.5,2c0.4-0.7,0.8-1.3,1.2-2c0.4-0.3,0.8-0.2,1.1,0.2c0.9,1.8,0.3,3.6-0.1,5.3
			c-1,4.6-1,14.7-0.1,19.2c2.1-2.5,1.8-5.6,2.8-8.1c0.6-1.6,0.4-4.3,2.3-4.5c2.2-0.2,2.6,2.5,3.3,4.3c1.1,3.1,3.1,6,2.5,9.6
			c-0.5,0.7-1,0.8-1.7,0.3c-0.2-0.7,0-1.8-1.2-1.9c-1,0-0.9,0.9-0.9,1.5c-0.3,5-2.3,7.2-7.4,5.5c-1.4-0.4-3-0.2-4.5,0
			c-2.7,0.5-5.9,2.7-6.5-2.5c0-0.1-0.8-0.1-1.2-0.1c-0.4,0-0.8,0.3-0.9-0.3c-0.1-0.6,0.3-0.9,0.7-1.3c4.7-1.4,6.1-4.8,5.6-9.5
			c-0.2-1.9-0.1-3.9,0-5.8c0-2.8,0-5.6,0-8.3C160.3,108.2,161.4,106.4,164.8,107.7z"/>
		<path class="st10" d="M132.9,189.4c1.3-6.1,2.6-11.7,3.6-17.4c0.4-2.3,1.2-3.5,3.6-3.7c1.4-0.1,2.7-0.7,4-0.8
			c3.5-0.3,7.1-0.2,9,3.5c1.8,3.7-0.1,6.9-2.3,9.7C146.2,186.3,140.1,188.8,132.9,189.4z"/>
		<path class="st12" d="M61,40.7c0.3,4.7-1.6,8.3-5.4,10.6c-3.3,2-3.4,3.9-0.7,6.4c0.7,0.6,2,1,1.5,2.2c-0.6,1.4-1.9,0.4-2.9,0.5
			c-0.1,0-0.3,0-0.4,0c-6-4.4-12.6-1.3-18.9-1.5C30,58.8,26,58.4,22,57.2c-10.8-3.1-13.8-12.5-6.9-21.8c2.6-3.5,6.1-5.6,10.1-6.7
			c7.8-2.2,15.8-3.2,24-2.1C56.3,27.5,62,34.2,61,40.7z"/>
		<path class="st10" d="M177.1,178c-4.3,7.1-10.9,10.2-18.7,11.5c-1.7,0.3-0.9-0.8-1.1-1.4c1.1-4.9,2.5-9.8,3.2-14.8
			c0.5-3.6,2.2-5,5.4-5.5c4.5-0.7,8.8-1.1,11.9,3.3C179.5,173.7,179.3,175.9,177.1,178z"/>
		<path class="st14" d="M232.2,103.4c0.5,0,1.1,0,1.6-0.1c2.2-1.4,3.9,0.2,5.8,1c2.6,1.5,5,3.2,6.6,5.9c-0.2,0.7-0.6,1.1-1.3,1.1
			c-5.2-5-11.1-6.3-17.8-3.8c-1.8,0.7-4,1.6-4.3,3.6c-0.8,4.9-3.9,7.1-8,8.4c-0.3,0.2-0.7,0.3-1,0.3c-0.7-0.5-1-0.3-1.1,0.6
			c-0.3,1.7-0.4,3.6-1.8,4.9c-0.2,0.9-0.7,1.9-0.7,2.8c-0.3,7.5-4.3,11.1-11.5,11.7c-0.7-1,2.3-5.5-2.5-3.3
			c-0.7-0.9-0.3-1.7,0.3-2.4c5.5-1.3,7.9-5.3,8.5-10.8c0.2-1.9,0.8-3.8,1.2-5.7c0.6-3.4,1.9-6.1,5.9-6.2c3.3-0.1,3.4-3.6,5.2-5.4
			c0.4-0.3,0.8-0.3,1.2,0c1.1,1.9,2.7,0.7,4.1,0.7c1.7-0.8,3.3-1.6,5-2.3C228.8,103.2,230.3,102.4,232.2,103.4z"/>
		<path class="st16" d="M88.9,43.8c-1.1-0.9-2.8-1.1-3.8-2.8c3-2,6.5-0.6,9.7-2.1c-1.2-2.4-2.3-4.8-3.6-7.4c3.6-0.5,6.2,1.7,9.6,1.9
			c-1-2.7-1.9-5.1-2.8-7.4c2.4,1.9,5.3,0.4,7.7,1.8c2,1.2,2.5-1.6,3.3-2.8c1.9-2.5,3.1-2.6,4,0.5c0.9,3.4,2.7,4,5.6,2.5
			c1.2-0.6,2.5-0.9,3.8-1.5c3.2-1.4,5.6-1.7,4.5,3.2c-0.4,2,0.7,2,2.1,2c1.7-0.1,3.5-0.6,5.2,0.2c-1.6,5.7-1.6,5.7,4.4,7.3
			c0.8,0.2,1.6,0.4,2.4,0.7c0.6,0.2,1.5,0,1.5,1c0.1,0.9-0.8,1.1-1.3,1.4c-2.6,1.5-5.2,3.1-7.9,4.5c-2.3,1.2-3.6,2.4-2.5,5.5
			c0.7,2.1,1.5,4.5,1,6.9c-0.3,0.1-0.6,0.4-0.8,0.3c-5.1-2.7-5.1-2.8-8.8,2.2c-1,1.3-1.6,1.9-2.7,0.3c-0.3-0.7,0-1.2,0.4-1.7
			c0.7-0.8,1.6-1.6,2.1-2.6c1.4-2.7,3.2-4.6,7.2-2.9c-3.1-8.8,3.4-10.3,8.3-13.1c-4.8-2.5-5.4-2.3-7.3,2.3c-0.3,0.8-0.6,1.6-1.2,2.2
			c-0.6,0.6-1.3,1.1-2.2,0.8c-1-0.3-1-1.2-0.9-2.1c0.3-3.8-1.1-8.5,5-9.8c-3.5-1-6.9-1.1-6.8-5.6c0-0.7-1.2-0.4-1.8-0.2
			c-1.4,0.4-2.8,1-4.2,1.6c-1.3,0.5-3.2,1.2-3.9,0.1c-2.9-4.6-5.6-1.1-8.5-0.2c-0.9,0.3-1.5,0.8-1.6,1.7c-0.2,4.7-2.9,4.2-6,3.1
			c-0.6-0.2-1.3-0.6-2-0.4c-0.1,0.9,0.5,1.6,0.8,2.3c1.2,2.5,0.8,4-2.2,4.4c-1.6,0.2-3.2,0.6-4.7,1.3C89.5,43.4,89.2,43.6,88.9,43.8
			z"/>
		<path class="st14" d="M176.6,133.9c0.4,0,0.9,0,1.3,0c5.9-0.9,8.2-5.1,9.3-10.6c1-4.6,2.6-9.1,3.8-13.7c0.8-2.9-0.5-2.9-2.4-2.8
			c-0.8-0.3-1.7-0.4-1.6-1.6c5.1-2.4,10.2,0.3,15.3-0.2c1.3-0.3,2.5-0.8,3.7,0.3c-0.5,2.1-2.3,1.7-3.7,1.7c-2.2,0-3.2,0.9-3.7,3
			c-0.4,1.8-0.5,2.6,1.3,4c2.8,2.1,1.1,4.9-0.5,7.3c-0.4,0.1-0.8,0.1-1.1-0.1c0.2-1.4-0.5-1.6-1.7-1.5c-1.3,0.2-2.2,0.5-2.6,2.1
			c-1,3.8-2.1,7.6-3.3,11.3c-0.7,2.4-6.7,7-8.8,6C179.9,138.2,178.4,135.8,176.6,133.9z"/>
		<path class="st11" d="M245.3,111.2c0.3-0.3,0.6-0.6,0.8-1c0.3,0,0.5,0,0.8,0c8.7,9.9,1.7,25.5-11.6,29.5c-2.1,0.6-4.3,0.7-6.4,1.1
			c-6.6-0.4-11.1-4.2-14.8-9.4c-0.3-0.9,0.3-1.1,1-1.1c6.2,4.2,12.6,5.8,19.6,2.3c7.4-3.6,10.8-9.4,10.3-17.8
			C244.9,113.6,244.4,112.4,245.3,111.2z"/>
		<path class="st11" d="M293.1,168.7c2.5-0.3,4.9-0.7,7.4-1c0.3-0.3,0.6-0.3,0.9,0c4.5,2.6,4.9,5.9,1.1,9.5c-1.4,1.3-3,2.4-4.7,3.7
			c0.7,0.9,1.4,1.7,2.1,2.6c0.6,0.8,1.2,1.5,1.9,2.2c-3.8,4.2-3.8,4.2-8.3-0.8c-0.5,2.9-2.3,4.2-5.5,4.4
			C289.7,182.4,291.4,175.6,293.1,168.7z"/>
		<path class="st11" d="M31.5,180.7c-0.9,2.9,6,2.8,2,6.8c-3.8,3.9-4.4-1.1-6.9-2.4c-0.4,2.9-2.2,4.1-5.3,4.1
			c1.5-6.3,2.8-12.6,4.5-18.8c0.9-3.1,4-2.4,6.2-2.7c2.4-0.3,4.8,0.1,5.9,2.7c0.9,2.2,0.1,4.3-1.4,5.8C35,178,33.1,179.4,31.5,180.7
			z"/>
		<path class="st11" d="M79.9,106c4.4,0.5,3.7,3.2,3,6.4c-1.7,6.8-3.3,13.7-4.5,20.6c-0.6,3.5-1.8,5.6-5.6,5.6
			c-1.9,0-3.7,0.6-5.9,1.1c-0.2-1.8,0.7-5-3.2-3.5c-0.6,0.2-0.2-0.8-0.2-1.3c0.5-0.5,1-0.9,1.6-1.1c5.5-0.1,7.8-3.2,8.6-8.6
			c0.7-4.9,2-9.6,3-14.5c0.4-1.6,0.6-3.3,1.9-4.6C79.1,105.8,79.5,105.8,79.9,106z"/>
		<path class="st17" d="M274.2,167.8c1.3,0.9,2.5,2,3.2,3.6c-0.6,5-3.7,8-7.9,9.9c-2.3,1-3.9,2.4-4,5.1c-0.1,3.5-2.9,2.5-5.5,3.7
			c1.7-7.2,3.3-13.7,4.8-20.3c0.5-2,2.2-1.2,3.4-1.6C270,167.6,272.1,167.8,274.2,167.8z"/>
		<path class="st12" d="M195.3,184.6c-0.5-3.8-0.7-7.6-1.4-11.3c-0.6-3.2-0.1-5.2,3.8-5.7c0.5,3.9,1,7.9,1.6,13.2
			c2.5-4.2,4.3-7.4,6.3-10.5c0.9-1.4,1.2-3.6,3.8-2c2.7,1.6,0.5,2.9-0.1,4c-2.3,4.3-5,8.4-7.1,12.8c-1.4,2.8-3.1,4.5-6.1,4.7
			C194.9,188.1,196.1,186.2,195.3,184.6z"/>
		<path class="st14" d="M278.4,170.6c2.8-2.9,6.8-1,10-2.7c0.5,0.2,1.8-0.3,1.5,0.7c-0.4,1.5-0.6,3.4-2.4,4.2
			c-0.1,0.1-0.3,0-0.4,0.1c-1.8,0.5-5-0.9-4.8,2.2c0.2,2.7,3.4,0.3,5,1.5c-0.3,2.4-1.2,4.2-4,4c-1.7-0.2-3.2,0.3-3,2.3
			c0.2,1.9,1.9,0.8,3,0.8c1.6,0.1,3.2-0.2,5.1-0.3c-2.3,8.2-9.3,3.5-13.9,6.8C275.8,183,277.1,176.8,278.4,170.6z"/>
		<path class="st12" d="M217.4,168.5c1.9,0.3,3.7-0.2,5.9-0.8c-1.1,2.8-1.3,5.7-5,5.3c-1.5-0.2-3.4,0.2-3.2,2.3c0.2,1.9,2,0.6,3,0.9
			c0.6,0.2,1.3,0,2.2,0c-0.3,2.9-1.3,4.6-4.3,4.3c-1.6-0.1-2.9,0.4-2.7,2.2c0.2,2.1,1.9,0.6,2.9,1c1.5,0.7,4.4-2.3,4.6,1.8
			c-0.9,1.7-1.9,2.7-4.1,2.7c-2.9,0-5.9,0.7-9.2,1.2c1.4-6,2.6-12.1,4.1-18.2C212.4,168.1,215.6,169.8,217.4,168.5z"/>
		<path class="st11" d="M189.3,185.5c-0.9,1.8-2.1,2.9-4.4,2.8c-2.8,0-5.6,0.7-8.7,1.2c0.6-2.9,1.1-5.9,1.7-8.9
			c0.6-3.7,0.2-7.7,2.6-11c3.6-0.5,7.3-1.1,11.2-1.7c-0.9,2.5-0.9,5.3-4.5,5c-1.6-0.1-3.8,0-3.4,2.4c0.3,1.8,2.3,0.5,3.5,0.8
			c0.5,0.1,1.1,0.1,1.7,0.1c-0.2,2.9-1.4,4.5-4.4,4.2c-1.6-0.2-2.8,0.5-2.6,2.3c0.2,1.7,1.7,0.8,2.6,0.8c1.2,0.1,2.5,0,3.7-0.3
			C191,182.8,189.1,184.7,189.3,185.5z"/>
		<path class="st14" d="M98.9,189.4c1.3-5.7,2.5-11.1,3.7-16.6c0.4-2.1,1.1-3.5,3.6-3.6c2.7-0.1,5.4-0.8,8.3-1.3
			c-0.5,3.2-1.5,5.5-5.3,5.1c-1.8-0.2-2.8,0.9-2.6,3c1.7,0.1,3.5,0.2,5.2,0.3c-0.3,2.9-1.5,4.5-4.5,4.2c-1.7-0.2-2.8,0.7-2.6,2.4
			c0.2,1.7,1.7,0.6,2.6,0.8c0.5,0.1,1.1-0.1,1.6,0c1.1,0.1,2.9-1.1,3,0.8c0.1,1.6-0.5,3.5-3,3.7C105.7,188.4,102.5,188.9,98.9,189.4
			z"/>
		<path class="st18" d="M218.7,36.8c-3-0.3-5.2-2-6.2-4.8c-0.7-2-1.2-2.6-3.4-1.6c-3.2,1.5-6.7,1.3-9.8-0.9
			c-0.2-0.2-0.6-0.5-0.7-0.4c-3.6,2.3-8-0.3-11.5,1.7c-1.3,0.8-2.7,2.1-4.1,1.4c-3.5-1.9-5.5,0.8-7.9,2.2c-0.5,0.3-1.4,0.5-1.1,1.5
			c0.8,3.4-1.6,5-3.8,7c3.3,2,5.1,4.7,4.5,8.7c0.1,0.7,1.2,1,0.7,1.9c-1.8,0.8-3.7,2.4-2.6-1.8c1-4.1-0.9-6.1-6.5-8.6
			c3.1-2.4,8.8-3.5,4.6-9.7c2.9-0.5,5.6-0.8,7-3.8c0.7-1.6,1.7-0.6,2.7-0.1c2.5,1.5,4.7,1.4,6.4-1.3c1-1.7,1.9-1.4,3.3-0.3
			c1.8,1.4,4,1.9,5.3-0.6c1.1-2.2,2.1-1.6,3.3-0.5c3.4,3.1,7.2,3.2,11,0.9c2.2-1.3,2.8-0.4,3.4,1.6c1.2,3.9,3.5,6.2,7.8,5.8
			c1.4-0.1,1.4,0.1,0.4,3.1C220,38.6,220,36.5,218.7,36.8z"/>
		<path class="st14" d="M21.5,175.6c-0.6,2.4-1,4.5-3.8,4.3c-3.4-0.2-4.9,1.6-5.1,5c-0.1,1.2-0.5,2.5-0.8,3.7
			c-0.5,2.1-2.2,1.2-3.4,1.1c-1.6-0.1-1-1.4-0.8-2.2c1.2-5.6,2.4-11.2,3.5-16.9c0.4-1.9,1.2-2.6,3-2.7c3.5-0.1,7.1-0.1,10.6-1
			c-0.5,3.7-1.9,5.8-5.6,5.4c-0.8-0.1-1.6,0.3-2.4,0.4c-1.1,0.1-1.8,0.6-1.8,1.8c0,1.7,1.3,1.1,2.1,1.1
			C18.4,175.6,19.8,175.6,21.5,175.6z"/>
		<path class="st19" d="M111.1,219.4c0.9-1.8,2.1-3.4,2.5-5.3c0.7-3.4,2.5-4.6,5.8-4.4c0,1.7,0,3.3,0,5c1.4-2.8,2.5-5.8,6.5-5.1
			c-0.1,3.9-0.3,7.9,0.7,11.7c0.7,2.5-1.3,2.4-2.7,2.7c-2,0.4-1.3-1.3-1.4-2.2c0-1.8,0.1-3.7,0.2-5.9c-1.7,1.9-1.9,4-2.1,6
			c-0.3,2.2-1.5,3.1-3.3,2.9c-1.9-0.2-1.1-2-1.2-3.1c-0.1-1.3,0-2.7,0-5.2c-2.1,4.1-2.5,8.5-7.3,8
			C108.2,222.1,109.3,220.6,111.1,219.4z"/>
		<path class="st12" d="M101.7,167.9c0,3.6-1.4,5.5-4.8,5.4c-1.6,0-2.3,1.1-2.6,2.6c-0.6,2.6-1.5,5.1-1.9,7.8
			c-0.5,3.4-2.1,5.3-5.9,5.4c1.1-4.7,2.1-9.5,3.2-14.4c-0.9,0-1.8,0.1-2.5-0.2c-1-0.3-3.1,1.6-2.9-1.3c0.2-1.7-0.5-4.2,2.6-4.3
			C91.7,168.7,96.6,168.3,101.7,167.9z"/>
		<path class="st20" d="M221.6,187.4c1.1-5.5,2.2-11,3.3-16.5c0.3-1.5,0.4-3,2.6-3.1c1.9-0.1,2.7,0.2,2.2,2.4
			c-0.8,3.3-1.1,6.6-1.9,9.9c-0.6,2.4-0.1,3.2,2.3,2.3c0.8-0.3,1.6-0.3,2.4-0.5c1.1-0.2,2.8-0.9,2.9,1c0,1.3,0,3.1-1.9,3.7
			c-1.8,0.6-3.9,0-5.5,1.2c-0.4,0.5-0.9,0.6-1.4,0.2c-1.5,0.1-2.9,0.6-4.2,1.5C221.1,189.2,221.9,188.2,221.6,187.4z"/>
		<path class="st21" d="M217.5,217.5c1.9-3.5,1-8.4,6.2-8c-0.8,3.6-1.6,7.2-2.4,10.7c-0.4,1.6-0.2,3.4-2.5,3.8
			c-2.2,0.4-2.2-1.6-3.2-2.6c-0.3-0.3-0.5-0.7-0.8-1c-1.2,0.2-0.6,1.3-0.8,2c-0.5,2.1-2.3,1.5-3.4,1.3c-1.3-0.2-0.6-1.6-0.4-2.5
			c0.7-3,1.6-6,2.2-9c0.4-2,1.8-2.6,3.3-2.5c1.5,0.1,0.7,1.8,0.9,2.7C216.9,213.8,217.1,215.2,217.5,217.5z"/>
		<path class="st22" d="M188,217c2.3-3,1.3-7.8,6.4-7.6c-0.9,4.3-1.5,8.7-2.9,12.8c-0.6,2-2.6,2.9-4.3,0.4c-0.5-0.8-1.1-1.6-1.6-2.4
			c-0.9,0.6-0.8,1.6-1.1,2.3c-0.6,1.6-2.1,1.3-3.2,1c-1.5-0.3-0.5-1.6-0.3-2.4c0.6-2.9,1.3-5.7,1.9-8.6c0.4-1.6,1.1-3.1,2.9-2.9
			c2,0.2,1.2,2.2,1.6,3.3C187.8,214.2,187.8,215.3,188,217z"/>
		<path class="st23" d="M130.1,386.9c-12.9,10-25.8,20-38.7,30c-0.8,0.7-1.8,2.3-3,0.6c-1-1.4,0-2.2,1.1-3
			c13.3-9.4,26.6-18.8,39.9-28.3C130.1,385.8,130.3,386.2,130.1,386.9z"/>
		<path class="st24" d="M93,219.6c2.1,0.9,3.2,1.3,4.4,1.9c-0.9,3-2.4,3.4-4.6,1.3c-1-0.9-1.7-2.3-2.7,0.2c-0.4,1-2.1,1-3,0.7
			c-1.2-0.4-0.4-1.7-0.3-2.6c0.4-3.1,1.1-6.2,1.6-9.3c0.4-2.7,4.7-2.8,7.4-2.2c2.7,0.5,3.8,2.6,2.8,5.5
			C97.7,217.2,96,218.6,93,219.6z"/>
		<path class="st25" d="M152.8,219.7c0.9,0.4,1.5,0.7,2,1c0.8,0.4,2.6,0.2,1.5,2c-0.7,1.1-1.7,2.3-2.9,1c-1.8-1.9-3-2.1-5.1-0.3
			c-1.2,1.1-2.8,0.4-2.3-2c0.6-3,1.7-5.9,1.5-9.2c-0.2-3,3.3-2.1,5.2-2.7c1.9-0.6,4.3-0.2,4.8,1.9c0.4,2,0.8,4.5-1.3,6.2
			C155.2,218.3,154.1,218.9,152.8,219.7z"/>
		<path class="st26" d="M279.1,227.9c-2.5,5.2,1.5,5.6,4.5,5.8c4,0.2,4.1,2.7,4.7,5.6c0.3,1.5-0.3,1.8-1.2,2.1
			c-2.3,0.8-0.9-1.2-1-1.7c-0.9-4-4.2-3.8-7-5c-0.1,2,1.5,1.3,1.9,2.2c0.5,1.1-0.2,1.9-0.7,2.7c-0.4,0.5-0.9,0.5-1.5,0.2
			c-1.6-1,0.2-1.1,0.4-1.6c0.5-1.2-0.6-0.9-1.1-1.2c-1.9-1.3-1.2-3.1-0.9-5c-3,0.2-6.1,1-8-2.5c-0.7-1.7-2.9-2-3.4-4.1
			c1.3-0.3,3.9,1.6,3.5-1.9c0.8-0.4,1-1.3,1.8-1.7c0.4,2.6,5.5,2.4,3.7,6.5c-0.2,0.5,1.3,1.5,1.9-0.1
			C277.2,226.6,278.2,227.5,279.1,227.9z"/>
		<path class="st27" d="M143,361.8c3.1-8.1,5.9-15.5,8.8-22.9c0.2,0.1,0.3,0.1,0.5,0.2c-0.6,4.9-1.1,9.8-1.9,14.6
			c-0.4,2.2,0.3,3,2.3,3.3c3.1,0.4,6.2,1.1,9.3,2.4C155.9,360.1,149.8,360.9,143,361.8z"/>
		<path class="st28" d="M244.6,214.5c0.4,0.5,1.1,1,1.2,1.5c0.1,0.8-0.6,0.6-1.2,0.5c-4.9-0.9-3.3,3-3.1,5.1
			c0.1,1.5,1.1,2.6-1.1,2.9c-2.6,1.9-4.6,2-5-1.9c-0.1-1.5-1.6-1.8-2.3-2.7c-2.7-3.1-1.7-7.2-2.5-10.8c2.2-1.6,3.9,0.5,5.8,0.9
			C238.3,213,241.7,213.1,244.6,214.5z"/>
		<path class="st29" d="M83.9,432.6c-2.6-0.6-2.3-1.9-0.6-3.4c1-0.9,2.2-1.6,3.3-2.4c1.9-3,5.2-4.3,7.7-6.6c2.9-1.7,5.2-4.5,8.6-5.3
			c5.8-4,11.5-8,17.3-11.9c0.8-0.2,1.2,0.1,1,1c-9.1,7-18.2,14.1-27.3,21.1C91.1,428.4,88.1,431.3,83.9,432.6z"/>
		<path class="st30" d="M155,135.5c-0.6,0.3-0.8,0.6-0.1,1c-2.7-0.4-4.9-0.4-6.9,2.3c-2,2.7-5.3,0.5-8,1c0.8-3.5-2.5-3-3.9-4.5
			c0,0,0.3-0.4,0.5-0.6c0.6-0.4,1.1-0.8,1.8-1c2.8-0.1,5.4-0.7,7.7-2.5c1-0.8,2.1-1.3,3.3-1.6c1.9-0.6,3.9-2.5,5.6-0.4
			C156.5,131,156.3,133.4,155,135.5z"/>
		<path class="st31" d="M230.5,209.1c2.2-0.3,2.1,1.3,1.9,2.6c-0.4,2.7,0,5.3,1.3,7.7c-0.4,1.4,0.3,2.9-0.8,4.2
			c-1.4-0.1-3.7,2.6-4-1.5c-0.1-1.5-1.8-1-2.2,0.1c-0.9,2.3-2.7,1.9-4.7,2.2c1.8-4.6,4.3-8.6,5.2-13.3
			C227.6,209.3,229.4,209.6,230.5,209.1z"/>
		<path class="st32" d="M139.1,393.8c2.8,0.7,3.2,2.2,1.1,4.2c-0.7,0.7-1.2,1.5-1.1,2.5c-2,2.2-4.5,3.6-7,5c-3.5,1.2-6.1,3.9-9,5.9
			c-3.7,2.9-7.8,5.1-11.5,8.1c-1.3,1-2.6,2.2-4.4,1.9c-0.6-0.2-1-0.6-1.1-1.3c4-5,9.8-7.7,14.6-11.7c4.8-3.8,10-7.1,14.9-10.9
			c0.9-0.7,1.9-1.2,2.1-2.4C138,394.8,138.6,394.3,139.1,393.8z"/>
		<path class="st33" d="M144.1,208.7c-1.9,4.8,0.6,8.6,0.3,12.7c-0.1,2-1.1,2.2-2.4,2.7c-1.9,0.7-1.5-0.8-1.8-1.8
			c-0.7-2.2-1.8-1.4-2.4-0.1c-1,2.2-2.9,1.6-4.8,2.4c2.1-4.7,4.3-8.6,5.3-13C138.9,208.8,141.3,209.5,144.1,208.7z"/>
		<path class="st25" d="M103,224.6c-3.3-0.9-4-3.6-3.7-6.5c0.4-3.7,1.5-7.3,5.3-8.7c3-1.2,5.5,0.5,5.9,3.8c0.2,1.5-0.1,3.1-0.1,4.6
			c-0.5,3.5-2.1,6-5.6,6.7l0,0C104.1,225,103.5,225,103,224.6z"/>
		<path class="st29" d="M107.2,421c5.2-3.5,10.3-7,15.5-10.4c0.8-0.2,1,0.2,1.1,0.9c-2,3.8-5.9,5.4-8.9,7.9
			c-2.3,1.9-4.8,3.7-7.2,5.6c-4.1,2.4-7.4,6.1-11.5,8.5c-1.9,1.3-3.7,2.8-5.5,4.2c-1.1,0.6-2.2,1.1-3.4,0.1
			c-0.3-0.6-0.6-1.1-0.9-1.7c-0.5-1.9,0.9-2.5,2.1-3.3c2.5-0.9,4.7-2.4,6.7-4.2C99.2,426.1,102.5,422.4,107.2,421z"/>
		<path class="st34" d="M168.8,211.7c-1.2,0.6-1.7,1.9-3.4,2c-2.6,0.1-4.6,3.5-3.9,6c0.2,0.7,0.4,1.4,1.2,1.5c0.7,0.2,1.4,0,1.8-0.6
			c1-1.4-0.6-1-1-1.4c-0.6-0.6-0.5-1.5,0.1-1.8c1.4-1,3.2-0.6,4.7-0.7c0.7-0.1,0.7,1.1,0.4,1.7c-1,2.5-2.4,4.7-5,5.8
			c-1.6,0.6-3,0.3-4.1-0.9c-2.1-2.3-1.7-8.1,0.8-11.4c2.3-2.9,5-3.8,8.2-1.5C169.4,210.6,169.3,211.2,168.8,211.7z"/>
		<path class="st35" d="M88.7,433.6c-0.8,0.9-1.5,1.7-2.3,2.6c-2-0.4-3.1,1.4-4.6,2.1c-1.1,0.6-2,3.3-3.4,1.1
			c-1.3-1.9,1.4-2.2,2.3-3c1.4-1.3,2.9-2.4,4.4-3.6c3-2.6,5.8-5.5,9.6-6.8c8.5-6,17-12,25.5-18c0.7-0.2,0.9,0.1,0.8,0.8
			c-4.9,3.7-9.8,7.5-14.7,11.2c-3,3.9-7.5,5.9-11.1,8.9C93.1,430.7,91,432.2,88.7,433.6z"/>
		<path class="st36" d="M173.8,210.2c1.6-0.1,3.3-0.2,4.9-0.2c0.9,0,2.4-1.1,2.5,0.9c0,1.5-0.6,2.6-2.4,2.6c-1.5,0-4-0.7-3.9,1.7
			c0,2,2.5-0.2,3.6,1c0.1,2.3-1.5,2.3-3,2.4c-0.9,0.1-1.7,0.5-1.4,1.6c0.3,1,1.1,0.4,1.7,0.3c1.2-0.2,2.4-0.5,3.6,0.1
			c0.2,3.9-2.6,3-4.7,3.1c-5.3,0.2-5.5,0.1-4-5.3c0.5-2,0.5-3.8,0.1-5.7C170.7,210.7,171.8,209.9,173.8,210.2z"/>
		<path class="st37" d="M86.6,425.1c-2-2,0-2.6,1.2-3.4c12.2-8.8,24.4-17.6,36.6-26.3c0.8-0.3,1,0.2,0.9,0.8
			c-7.7,6-15.4,12-23.1,17.9c-2,3-5.3,4.2-7.9,6.5C91.8,422.2,89.9,425,86.6,425.1z"/>
		<path class="st38" d="M84.6,215.7c-1.2,3.3-5.8,3.8-6.1,7.9c0,0.2-1.7,0.7-2.3,0.4c-1-0.5-0.4-1.7-0.3-2.6
			c0.3-2.8,1.8-5.4,1.1-8.4c-0.4-1.6,0.8-2.8,2.7-2.9c1.8-0.1,3.5-0.5,5.3-0.6c0.9,0,2.3-1.1,2.5,0.8c0.2,1.4-0.5,2.4-1.9,2.8
			c-0.4,0.1-0.8,0.1-1.2,0.2c-1.2,0.5-3.7-0.8-3.5,1.6C81.1,217.5,83.5,214.8,84.6,215.7z"/>
		<path class="st39" d="M173.8,210.2c-1.1,0.8-3,0.5-3.1,2.5c-0.6-0.3-1.2-0.7-1.8-1c-0.1-0.5-0.2-0.9-0.3-1.4
			c0.7-1.1,3.3-0.3,2.8-2.8c3.4-1.4,5.5-5.5,9.8-5.2c0.4,0,1.1-0.9,1.1-0.9c-1-1.7,0.8-2.8,1.3-2.6c1.1,0.4,3.1,0.7,2.5,2.9
			c0,0.1,1.1,0.5,1.8,0.7c-3.2,1.8-6,4.2-9.2,6C176.9,209.5,174.8,208,173.8,210.2z"/>
		<path class="st20" d="M97.4,104.4c-0.6,4.7-1.8,8.6-4.7,11.9c-1.6,1.7-2.9,1-4.3,0.2c-1.9-1.1-0.1-2.1,0.2-3.2
			c0.2-0.8,0.8-1.5,1-2.3C91.4,105.8,91.4,105.8,97.4,104.4z"/>
		<path class="st40" d="M126,379.3c-8.8,6.6-17.7,13.3-26.5,19.9c-0.8,0.6-1.7,1.8-2.7,0.4c-1-1.3-0.1-2,0.9-2.6
			c9.4-6.2,18.9-12.5,28.3-18.7c0.2,0.2,0.3,0.4,0.2,0.7C126.2,379.2,126.1,379.3,126,379.3z"/>
		<path class="st41" d="M138.4,134.8c-0.6,0-1.2,0-1.8,0c5-9.6,10-19.3,15-28.9c1.4-2.7,3.9-1.4,5.9-1.8c1.8-0.4,4.5-1.9,4.5,2.2
			c0,1.6,2.4-0.2,2.8,1.5c-2.7-0.3-3.5,1-3.4,3.7c0.2,3.1-0.1,6.1-0.1,9.2c-2-0.6-1.6-2.3-1.7-3.8c-0.2-2.4,0.1-4.8-0.1-7.1
			c-0.2-3-1.7-3.8-4.4-2.5c-2.1,1.1-3.1,3.1-4.1,5.1c-3.3,6.3-6.6,12.6-10,18.8C140.3,132.4,139.6,133.8,138.4,134.8z"/>
		<path class="st42" d="M195.1,224.2c0.6-2.7,1.2-5,1.6-7.3c0.2-1.1,1.6-2.7-1.2-2.8c-1,0-0.7-1.6-0.3-2.5c0.4-0.8,7.9-2.8,8.5-2.2
			c1.3,1.3,0.3,3.5-0.3,3.6c-4.1,0.8-3.3,4.2-3.5,6.9C199.6,222.7,198.7,224.5,195.1,224.2z"/>
		<path class="st43" d="M210.8,431.9c-2.5,2.2-5.2,0.1-7.8,0.1c-1.3,0-1.3-1.2-0.2-2c1-0.7,1.9-1.6,3.3-1.6c2.8-0.2,4.1-2.9,6.3-4.1
			c1.2-1.1,2.4-2.2,4.5-4c-1.3,3.7-0.3,4.6,2.9,3c-2.3,3.4-6.2,4.2-7.3,7.8C211.9,431.3,211.2,431.2,210.8,431.9z"/>
		<path class="st44" d="M152.3,307.3c-7.1,5.4-14.3,10.7-21.5,16c-1,0.7-2.5,2.7-3.8,0.8c-1.6-2.3,1.1-2.7,2.2-3.4
			c7.4-4.7,14.8-9.4,22.3-14C152.4,306.2,152.5,306.7,152.3,307.3z"/>
		<path class="st45" d="M197.5,438.6c2.1-3,0-6.6,1.5-9.8c-2.3,0-3.3,1.8-4.9,2.5c-1.2-2.1-1.1-3.7,1.4-4.5c2.7-0.8,2.9-3.3,3.7-5.7
			c1,2.8,3.4,4.9,1.9,8.4c-1,2.2-0.8,4.6-0.2,7c0.6,2.2-0.5,2.7-2.4,2.3C198.1,439,197.7,439,197.5,438.6z"/>
		<path class="st46" d="M146.7,326.6c-6.8,5.2-13.6,10.3-20.4,15.5c-0.7,0.5-1.6,1.4-2.5,0.3c-0.8-1-0.5-1.9,0.4-2.5
			c7.3-4.8,14.6-9.5,22-14.2C146.3,326,146.5,326.3,146.7,326.6z"/>
		<path class="st47" d="M167.1,107.7l-0.4,0l-0.4,0c-0.3-1.6,0.3-2.7,2-3c2.8-0.4,5.6-0.9,8.4-1.2c0.6-0.1,1.8,0.3,1.8,0.5
			c-0.1,2.6,3,2.4,3.6,4.3c0.4,1.3,2.1,1.6,2.3,3c0.4,2.2-0.2,4.1-0.9,6.1c-0.3,0.9-0.8,2-1.8,2.1c-1.1,0.1-1.4-1.1-1.7-2
			c-0.7-2-1.2-4-1.8-6c-1.3-5.1-2.6-5.9-7.5-4.6C169.5,107.1,168.4,107.8,167.1,107.7z"/>
		<path class="st48" d="M158.3,292.9c-5.8,4.4-11.5,8.8-17.3,13.2c-1.2,0.9-2.4,1.9-3.7,2.7c-0.8,0.5-1.5,1.3-2.4,0.1
			c-1.1-1.5,0-1.9,1-2.5c6.2-4.1,12.5-8.2,18.7-12.3c1-0.7,2.1-1.3,3.1-1.9C157.9,292.4,158.1,292.6,158.3,292.9z"/>
		<path class="st49" d="M218.2,288.8c2.6,1.5,5.9,0.7,8.4,2.8c-0.5,0.9-0.9,1.8-2.3,1.7c-2.7-0.3-3.1,1.2-2.3,3.4
			c0.3,0.8,0.1,1.5-0.6,1.8c-1.7,0.6-0.6-1-1-1.5c-1.1-1.4-3.6-2.6-0.6-4.5c-1.1-0.1,0.5-2.3-1.6-2c-2.9,0.4-6.2,1.1-8.2-2.4
			c2.1-0.6,4.7,1.4,6.6-1C218,286.9,218.5,287.5,218.2,288.8z"/>
		<path class="st50" d="M277.4,259.3c1.4-1.6,3.1-2.6,5-3.5c2.6,0.6,4.5,3.1,7.5,2.5l0,0c-0.6,1.1-1,2.1-0.8,3.4
			c-0.1,0.1-0.3,0.3-0.4,0.4c-1.7,0.9-3.1,0.3-4.4-0.9c-1.1-1-1.9-0.4-2.7,0.5c-1.1,1.2,0.9,1.1,0.7,1.9c0.3,0.7,0.4,1.5,0.3,2.3
			c-0.6,0.5-1.1,1.1-1.7,1.6C278,265.6,278.8,262,277.4,259.3z"/>
		<path class="st51" d="M115.3,392.7c-6.8,5.1-13.6,10.3-20.5,15.5c-0.9,0.7-1.9,1.8-2.8,0.5c-0.7-1,0.5-1.7,1.2-2.2
			c7-4.8,14-9.6,21.1-14.5C115.1,391.6,115.3,392.1,115.3,392.7z"/>
		<path class="st52" d="M175.4,53.4c-0.2-0.6-0.4-1.3-0.7-1.9c3.8,0.3,7.2,1.4,9.2,5c0.7,1.2,1.3,1.5,2.4,0.4
			c1.1-1.2,2.7-1.4,4.1-1.5c6.4-0.1,6.4,0,10.3-2c0.9-0.5,1,0,0.9,0.7c-0.4,0.2-0.8,0.3-1.1,0.6c-2.9,2.5-5.4,6.3-10,2.3
			c-1.3-1.1-3.5,0.2-4.6,1.8c-1.5,2.1-2.3,1.7-3.3-0.4C181.3,55.3,179.1,53.1,175.4,53.4z"/>
		<path class="st53" d="M203.2,224.2c1-4.1,1.9-8,2.9-11.8c0.4-1.5,1.2-2.8,2.9-2.2c1.6,0.6,0.3,1.9,0.2,2.8c-0.3,2.5-1,4.9-1.2,7.4
			C207.8,223.5,206.2,224.3,203.2,224.2z"/>
		<path class="st54" d="M127.9,367.3c-6.2,4.7-12.3,9.4-18.5,14.1c-0.7,0.5-1.4,1-2.1,0.1c-1-1.4,0.2-2,1.1-2.6
			c4.9-3.3,9.9-6.5,14.8-9.8c1.4-0.9,2.7-1.8,4.1-2.7C127.4,366.7,127.7,367,127.9,367.3z"/>
		<path class="st55" d="M135.1,347.7c-5.7,4.3-11.3,8.6-17,12.9c-0.7,0.5-1.4,1.6-2.4,0.4c-0.6-0.7-0.7-1.7,0.1-2.2
			C122,354.7,128.1,350.5,135.1,347.7z"/>
		<path class="st56" d="M111.2,107.7c4.3,0.7,3.5,4.5,4.2,7.4c0.5,0.7,1.7,0.4,2,1.5c0.1,2.7-0.8,5.9-3.1,6.1
			c-2.8,0.3-2.7-3.3-3.1-5.4c-0.5-3.1-2.2-6-1.2-9.3C110.3,107.5,110.7,107.4,111.2,107.7z"/>
		<path class="st57" d="M121.2,404c-0.3-0.3-0.7-0.7-1-1c7.5-6,15.4-11.4,23.2-16.8c0.7-0.3,0.9,0.1,0.7,0.7
			C136.6,392.8,129.1,398.8,121.2,404z"/>
		<path class="st58" d="M65.2,134.8c-0.5,0-1.1,0-1.6,0.1c1.9-10.5,3.3-21,6.5-31.2c0.7,0.6,1.3,1.3,1.3,2.3
			c-1.1,8.7-3.2,17.2-4.8,25.8C66.4,132.9,65.9,133.9,65.2,134.8z"/>
		<path class="st59" d="M121.4,377.8c-5.3,4.1-10.6,8.2-15.9,12.3c-0.9,0.7-1.8,1.5-2.7,0.1c-0.8-1.4,0.4-1.7,1.1-2.2
			c5.4-3.5,10.8-7,16.2-10.5C120.6,377.3,121,377.4,121.4,377.8z"/>
		<path class="st60" d="M280.7,267.7c0.3,0.3,0.6,0.5,0.8,0.9c0.6,1.1-0.7,1.2-0.9,1.1c-2.2-1.4-3.6,2.4-5.7,0.8
			c-0.6-0.5-0.7-2.7-1.7-0.2c-1.1-0.7-2.3-1.3-3.4-2c-0.8-0.5-0.8-1.4-0.5-2.2c0.3-0.7,1.1-0.5,1.7-0.8
			C274.9,263.5,277.3,267.9,280.7,267.7z"/>
		<path class="st61" d="M143.7,321.1c-5.4,4.1-10.7,8.2-16.1,12.2c-0.8,0.6-1.6,2-2.7,0.6c-1.1-1.5,0.5-1.9,1.3-2.4
			c5.3-3.6,10.8-7.1,16.1-10.6C142.9,320.6,143.3,320.7,143.7,321.1z"/>
		<path class="st62" d="M53.4,143.5c0.4,6.1-4.6,19-8.9,23C48.2,158.4,51.2,151.1,53.4,143.5z"/>
		<path class="st63" d="M145.8,306.6c-4.2,3.2-8.3,6.4-12.5,9.5c-0.9,0.6-2,2.3-3.1,0.8c-1.2-1.6,0.9-2,1.6-2.5
			c4.3-3,8.7-5.8,13-8.7C145.7,305.4,145.9,305.8,145.8,306.6z"/>
		<path class="st64" d="M127.6,360.7c-4.4,3.3-8.8,6.7-13.2,10c-0.9,0.7-2.1,2-3,0.3c-0.8-1.5,0.9-1.8,1.7-2.3
			c4.6-3,9.3-5.9,13.9-8.9C127.6,359.8,127.9,360,127.6,360.7z"/>
		<path class="st65" d="M231.8,539.2c-3-1.4-3.4-5.6-6.9-5.5c-0.6,0-0.9-1-0.5-1.7c0.5-0.8,1.1-1.4,2.2-1.4
			C230.6,530.6,232,532.6,231.8,539.2z"/>
		<path class="st60" d="M226.3,488.3c4.9,16.8,4.9,16.8,2.2,21.8C230.4,502.5,226.6,495.6,226.3,488.3z"/>
		<path class="st66" d="M135.9,341.2c-4.3,3.3-8.7,6.7-13.1,10c-0.7,0.6-1.6,1.6-2.4,0.4c-1-1.4,0.4-2,1.2-2.5
			c4.5-2.9,9-5.8,13.5-8.7C135.8,340.2,136.1,340.5,135.9,341.2z"/>
		<path class="st67" d="M95.7,132.2c-0.3,0-0.6,0.1-0.9,0.1c2.1-9.1,3.8-18.3,7.4-26.9c0.7,0.2,1.1,0.7,1.2,1.4
			c-1.3,7.9-3.9,15.5-5.9,23.2C97.3,130.9,96.7,131.8,95.7,132.2z"/>
		<path class="st68" d="M236.3,273.6c-0.6,0.3-1.1,0.6-1.7,1c-2.3-1.6-5.7-0.4-7.8-2.8c1.5-2.3,3.1-0.9,5.1-0.3
			c-0.4-2-0.7-3.8-1.1-5.9c2.6,1.1,2.4,5.2,5.5,4.8C236.7,271.6,232,272.5,236.3,273.6z"/>
		<path class="st69" d="M183,384.3c-3.7,3.1-7.3,6.2-11,9.2c-0.7,0.6-1.5,0.8-2.1,0c-0.4-0.6-0.7-1.3,0-1.9
			c4.1-2.8,8.2-5.6,12.4-8.4C182.5,383.6,182.8,384,183,384.3z"/>
		<path class="st70" d="M275,377.3c0,2-0.1,4.1,0,6.1c0,1.4-0.7,3.3,1.6,3.6c0.5,0.1,1.4,0.3,0.3,0.8c-3,1.1-1.3,3.7-2,5.7
			c-2.7-5.3-1.8-10.8-1.1-16.2C274.2,377.3,274.6,377.3,275,377.3z"/>
		<path class="st1" d="M294.7,83.1c0.2,1.9,1.5,3.6,0.1,5.6c-0.4,0.7-0.4,2,0.6,2.6c1,0.6,2.3,1.2,0.6,2.3c-1.2,0.7-3.2,0.1-3.4-1.1
			c-0.3-2.1-2-3.7-1.3-6C292.6,85.4,293.7,84.3,294.7,83.1z"/>
		<path class="st71" d="M115.4,57.7c-2.7,0.3-4,2.7-5.9,4.2c-0.7,0.6-1.2,1.8-2.3,1.4c-1-0.4-1-1.6-1-2.5c0-3-1-4.5-4.1-3.2
			c-0.6-0.2-1.1-0.5-0.9-1.2c3.9-2.8,5.1-2.5,7.5,2.3c1.8-0.4,2.8-2,4.3-2.8c1.5-0.8,2.8-1.3,3.5,0.9
			C116.4,57.3,116.2,57.8,115.4,57.7z"/>
		<path class="st72" d="M88.9,43.8c0-0.4,0.1-0.8,0.1-1.2c7.4,1.3,9.5,5.1,6.6,11.7c-0.5,1-0.9,2-1.4,3.1c-0.4,0.9-0.7,1.8-1.1,2.7
			c-1.9,0.6-3.5,0.8-2.1-2.1c0.3-0.6,0.6-1.2,0.9-1.8C95.5,48.6,95.5,48.6,88.9,43.8z"/>
		<path class="st73" d="M197.5,438.6c0.3,0.1,0.7,0.1,1,0.2c-0.6,0.7-1.5,0.8-2.3,0.7c-3.3-0.4-4.4,1.4-4.3,4.5
			c0.1,3.7-1.4,6.9-3.2,10c0.7-4.3,1.1-8.7,2.1-13C191.7,437.4,195.1,438.9,197.5,438.6z"/>
		<path class="st74" d="M177.3,381.6c-3.3,2.9-6.6,5.8-9.9,8.6c-0.7,0.6-1.5,1.7-2.3,0.2c-0.6-1.1,0.1-1.8,1-2.4
			c3.5-2.4,7-4.8,10.5-7.1C176.8,381.1,177,381.3,177.3,381.6z"/>
		<path class="st75" d="M121,408.9c-0.3-0.3-0.5-0.6-0.8-0.8c5.8-4.3,11.5-8.6,17.3-12.9c2.2,0.7,0.2,1.4-0.1,1.6
			C132,400.9,126.5,404.9,121,408.9z"/>
		<path class="st26" d="M227.2,195.7c1.1-1,2.2-2,3.3-3c1.5,1.1,0.6,2.6,0.9,3.9c1.5,2.4-0.5,3.1-1.8,4.1c-1.2-0.5-2.6-0.8-3.5-1.8
			C224.6,197.2,224.8,196,227.2,195.7z"/>
		<path class="st76" d="M154.9,290.2c-3.7,2.8-7.4,5.7-11,8.5c-0.7,0.6-1.6,1.4-2.4,0c-0.6-1.1,0.4-1.5,1-1.9
			c3.9-2.5,7.8-5,11.7-7.4C154.5,289.7,154.7,290,154.9,290.2z"/>
		<path class="st60" d="M289.4,502.7c0,5.2,0,10.5,0,15.7c-0.3,0-0.5,0-0.8,0c0-5.2,0-10.5,0-15.7
			C288.9,502.8,289.2,502.8,289.4,502.7z"/>
		<path class="st77" d="M187.3,399.3c-2.6,2.8-5.2,5.5-7.9,8.3c-0.7,0.8-1.5,1.3-2.3,0.1c-0.8-1.1-0.1-1.7,0.8-2.3
			c3-2.1,6-4.2,9.1-6.3C187,399.1,187.2,399.2,187.3,399.3z"/>
		<path class="st78" d="M277.5,463.9c-0.3,4.9,0,9.9-0.9,14.8C275.8,473.7,275.3,468.8,277.5,463.9z"/>
		<path class="st39" d="M179.4,538.5c3.8-2,3.8-2,4.1,3.5c-2.2,1.7,1,4.6-1.4,6.4C180.4,545.2,181.5,541.4,179.4,538.5z"/>
		<path class="st79" d="M103,224.6c0.5,0,1.1-0.1,1.6-0.1c0.8,1.1-0.2,3.5,2.7,2.9c1-0.2,2.5,1.4,3.5,2.5c0.7,0.8,0.5,2-0.9,2
			C107.1,232,102.9,227.5,103,224.6z"/>
		<path class="st80" d="M295.4,467.6c-1-3.9-2.4-7,0.7-9.9c1.4-1.4,0.1-3.8,1.1-5.8c1.3,1.5,1.5,4.1,0.6,5.2c-2.3,2.9-1.9,5.8-1.5,9
			C296.3,466.3,295.9,466.6,295.4,467.6z"/>
		<path class="st60" d="M64.2,436.4c0.6-4.9,0.6-10,3.7-14.2C66.2,426.8,67.3,432.2,64.2,436.4z"/>
		<path class="st81" d="M232.9,223.5c0.5-1.3-0.5-3,0.8-4.2c1,0.9,2.3,1.8,2.4,3.2c0.2,3.7,2.3,2.5,4.3,1.9c-3.3,3-7,1.6-10.7,1.5
			c1.3-0.7,2.5-1.5,4-1.2c0.8,0.2,1.3,0.4,1.1-0.7c-0.2-0.7,0.3-1.7-0.6-1.9C233.9,222.2,233.8,223.5,232.9,223.5z"/>
		<path class="st82" d="M182.8,397.3c-1.9,2-3.8,3.9-5.8,5.9c-0.6,0.6-1.3,1.2-2,0.3c-0.7-0.9-0.6-1.7,0.4-2.4
			c2.2-1.6,4.4-3.2,6.6-4.8C182.8,396.2,183.2,396.5,182.8,397.3z"/>
		<path class="st83" d="M182,391.1c-2.7,2.4-5.3,4.7-8,7.1c-0.7,0.6-1.3,0.9-2.1,0.1c-0.9-1-0.1-1.5,0.6-2c2.9-2.1,5.9-4.2,8.9-6.3
			C181.6,390.4,181.8,390.8,182,391.1z"/>
		<path class="st68" d="M299.4,473.7c-0.1-4.3,0-8.6,1.8-12.5C301.3,465.4,301.6,469.8,299.4,473.7z"/>
		<path class="st84" d="M205.8,105.8c-1-1-2.4-0.3-3.5-0.8c4.9-1.3,10-0.6,15-1.4c2.9-0.5,1.5,1.2,0.9,2.4l-0.4,0l-0.4,0
			C213.6,106,209.7,108.2,205.8,105.8z"/>
		<path class="st85" d="M194.7,424.3c-2.6,2.4-5.1,4.8-7.7,7.1c-0.5,0.5-1.1,1.4-2,0.4c-0.7-0.9-0.7-1.7,0.3-2.5
			c2.8-2,5.6-4.1,8.4-6.1C194.1,423.6,194.4,423.9,194.7,424.3z"/>
		<path class="st68" d="M48.8,144.6c-2,4.4-4.7,8.5-5.3,13.8C41.6,155.1,44,148.9,48.8,144.6z"/>
		<path class="st86" d="M189.9,410.8c-2.5,2.3-5,4.6-7.5,6.9c-0.7,0.6-1.2,1.2-2,0.3c-0.8-0.9-0.8-1.7,0.2-2.4c2.7-2,5.4-4,8-6
			C189.1,410,189.5,410.4,189.9,410.8z"/>
		<path class="st87" d="M198.3,121.2c0.3,0,0.6,0,0.9,0c1.7,4.9-0.3,9.2-2.3,13.5c-0.7,0.4-1,1.1-0.9,1.9c-1.9-0.5-0.7-1.9-0.6-2.7
			C196.3,129.7,196.8,125.3,198.3,121.2z"/>
		<path class="st68" d="M170.6,478.9c-3.1-1.7,3.6-7.9-4.2-6.9c1.7-1.9,5.1,0,5.7-3.5C172.2,472.2,172.4,475.6,170.6,478.9z"/>
		<path class="st88" d="M205.9,407.9c1.3,4.3-2.3,8.2-0.8,12.6C201,416.1,205.6,412.1,205.9,407.9z"/>
		<path class="st89" d="M187.8,405.1c-2.4,2.5-4.8,5-7.2,7.5c-0.6,0.6-1.2,1.2-2,0.1c-0.6-0.8-0.4-1.5,0.4-2.1
			c2.8-2,5.6-4.1,8.4-6.1C187.5,404.8,187.6,405,187.8,405.1z"/>
		<path class="st90" d="M218.7,36.8c1.4-0.5,1.8,0.8,2.6,1.5c-0.3,2.7-1,5.6,0.9,8c2.3,3,0.6,3.4-1.9,3.3c-0.7,0-1.3,0-2,0
			c-0.2-0.2-0.3-0.4-0.2-0.6c0.1-0.2,0.1-0.3,0.2-0.3c0.7-0.3,1.5-0.6,2.2-0.9C218.8,44.2,221.1,40.1,218.7,36.8z"/>
		<path class="st91" d="M227.2,195.7c-0.7,0.8-2.6,1.3-0.4,2.7c1,0.6,1.9,1.6,2.8,2.3c-2.7-0.5-3.9,2.6-6.4,2.7
			c-0.7-0.8-0.4-1.5,0.3-2c1.4-0.9,1-2,0.5-3.1C224.3,194.9,224.7,194.5,227.2,195.7z"/>
		<path class="st13" d="M76,418.6c-1.7-4.1-2.7-8.1,0.6-11.8C75.9,410.8,75.6,414.7,76,418.6z"/>
		<path class="st92" d="M301.4,167.7c-0.3,0-0.6,0-0.9,0c-2.3-0.9-1.4-3.6-2.6-5.2c-0.1-0.2,0.7-1.5,1.3-1.9
			c1.1-0.6,1.7,0.4,2.2,1.2C303.2,163.8,300.3,165.8,301.4,167.7z"/>
		<path class="st93" d="M231.4,252.4c0,2.9,0,5.8,0,8.7c0,0.8,0.2,1.9-1,1.9c-1.2,0-1.1-1-1-1.8c0.2-3,0.5-5.9,0.7-8.9
			C230.5,252.3,230.9,252.4,231.4,252.4z"/>
		<path class="st94" d="M115.3,392.7c-0.3-0.3-0.6-0.5-0.9-0.8c3.7-3.3,7.9-5.9,12.2-8.3C123.2,387.3,119.2,390,115.3,392.7z"/>
		<path class="st95" d="M125.2,396.2c-0.3-0.3-0.6-0.6-0.9-0.8c3.8-3.3,7.8-6.2,12.1-8.6c0.4-0.1,0.6,0.1,0.5,0.5
			C133.2,390.5,129.3,393.5,125.2,396.2z"/>
		<path class="st96" d="M94.8,426.1c-3.1,2.5-6.1,5.1-9.6,6.8c-0.4-0.1-0.8-0.2-1.2-0.2c3.2-2.7,6.3-5.4,10-7.5
			C94.2,425.5,94.5,425.8,94.8,426.1z"/>
		<path class="st56" d="M70.9,105.2c-0.6-0.3-0.8-0.9-0.9-1.6c2.9-0.1,5.8-0.2,8.8-0.2c2.4,0,1.9,1.2,1,2.6l-0.3,0l-0.3,0
			C76.4,106.5,73.5,107.1,70.9,105.2z"/>
		<path class="st97" d="M55.2,114.1c-0.8,4-3.1,7.4-3.2,11.5C49.8,120.8,52.8,117.5,55.2,114.1z"/>
		<path class="st68" d="M258,447.9c3.6,3,2.9,6.5,3.2,10.7C258.4,455.1,258.7,451.7,258,447.9z"/>
		<path class="st98" d="M276,222.2c1.5-0.7,3.6-1,1-3c-1.4-1.1-3.5-0.2-4.9-2.5c2.2,0.6,4,1,5.7,1.7c1.8,0.7,3.3,1.8,2,4
			C278.4,225,277.3,222.2,276,222.2z"/>
		<path class="st99" d="M177.1,279.6c0.1,0.2,0.1,0.4,0.1,0.6c-6,0.9-12.1,1.5-18.2,0.4C165.1,280.3,171.1,279.9,177.1,279.6z"/>
		<path class="st100" d="M117.2,116.2c-0.7-0.2-1.6,0-1.8-1.1c3.2-2.2,3.1-6.6,5.5-9.2c0.3,0.3,0.6,0.7,0.9,1
			C122.5,111.1,120,113.7,117.2,116.2z"/>
		<path class="st78" d="M234,477.7c-1.1-2.8-3.8-5.5-0.6-8.5c0.6-0.6,1.4-1.2,2.1-0.3c0.8,1-0.5,0.9-0.9,1.3
			C232.5,472.7,235.2,475.3,234,477.7z"/>
		<path class="st101" d="M244.6,214.5c-2,1-3.4-0.6-4.9-1.2c-1.8-0.8-3.4-1.9-5.6-1.5c0.3-1.9,1.4-1.6,2.3-1.8
			c2.8,1.1,4.8,3.9,8.4,3.1C245.5,212.8,244.9,214,244.6,214.5z"/>
		<path class="st102" d="M145.8,306.6c-0.3-0.3-0.6-0.6-1-1c3.6-2.8,7.3-5.5,11.8-6.9C153,301.3,149.4,303.9,145.8,306.6z"/>
		<path class="st60" d="M250.3,257.5c1-0.4,2-1.5,3.2-0.1c1.3,1.5-0.3,2.4-0.7,3.6c-2,0-3.5-1-5.1-2.1
			C248.3,257.9,249.8,258.7,250.3,257.5z"/>
		<path class="st92" d="M193,482.9c1.9-3.2,0.7-7.1,2.2-10.8C196.5,477.3,196.4,477.7,193,482.9z"/>
		<path class="st79" d="M104.6,224.5c2.8-1.4,4.2-4,5.6-6.7c0.3,0.6,0.6,1.1,0.9,1.6c-0.8,1.7-1.5,3.4-2.3,5
			C107.4,225.6,106,224.8,104.6,224.5z"/>
		<path class="st103" d="M51.1,141.8c1.2-3.1,0.9-6.8,3-10.2C54.8,136,54.1,139.3,51.1,141.8z"/>
		<path class="st97" d="M57.3,91.4c0.4,3.1,1.1,6.2-1.1,10.2c0-4.1,0-7.2,0-10.2C56.6,91.3,56.9,91.4,57.3,91.4z"/>
		<path class="st62" d="M180.5,169.6c-0.9,3.7-1.7,7.3-2.6,11c-0.4-0.8,0.2-2-0.9-2.6c0.6-2.2,1.1-4.5,0.8-6.8
			C179.3,171.7,179,168.9,180.5,169.6z"/>
		<path class="st90" d="M214.8,130.6c-0.2,0.3-0.5,0.6-0.7,0.9c-1.4-1.8-2.7-3.6-2.4-6c-0.1-2.2-0.7-4.5,1.8-5.9
			c0.2-0.1,0.3-0.1,0.5,0C214.6,123.2,214.9,126.9,214.8,130.6z"/>
		<path class="st104" d="M190.4,421.6c-1.7,2.1-3.4,4.1-5.1,6.2c-0.5,0.6-1.1,0.7-1.7,0c-0.6-0.7-0.3-1.3,0.2-1.8
			c1.9-1.7,3.9-3.4,5.9-5.1C190,421.2,190.2,421.4,190.4,421.6z"/>
		<path class="st105" d="M144.1,386.9c-0.2-0.2-0.5-0.5-0.7-0.7c3.6-2.7,7.1-5.3,10.7-8c0.2,0.3,0.4,0.6,0.7,1
			C151.2,381.7,147.7,384.3,144.1,386.9z"/>
		<path class="st106" d="M190,416.4c-2.2,2.1-4.4,4.2-6.6,6.3c-0.7,0.7-1.4,0.8-2-0.1c-0.5-0.7-0.1-1.3,0.5-1.7
			c2.4-1.8,4.9-3.6,7.3-5.4C189.5,415.7,189.7,416.1,190,416.4z"/>
		<path class="st58" d="M201.7,54.2c-0.3-0.2-0.6-0.5-0.9-0.7c2.3-1.5,4.8-1.4,7-0.4c1.7,0.8,2.8,0,4.2-0.4
			c-0.7,2.1-1.2,3.9-4.1,2.1C206.1,53.6,203.8,53.7,201.7,54.2z"/>
		<path class="st107" d="M195.3,184.6c1,1.6,0.8,3.4,0.7,5.1c-0.9,2.5-1.7,5.1-5,5.2c0.7-1.7,2.9-2.6,2.5-5
			C196,188.8,194.7,186.3,195.3,184.6z"/>
		<path class="st108" d="M93.2,437.7c1.9,2.4,4.5-0.1,6.6,1.1c-2.4,1-5,0.6-7.5,0.9c-1.6,0-1.5-1.1-1.3-2.2c1.1-1.9,3.3-2.4,4.5-4.1
			c0.6-0.2,1.1-0.4,1.7,0C97.7,436.6,95.2,436.9,93.2,437.7z"/>
		<path class="st92" d="M229.8,462c0.7,2.8-0.1,5.5-0.8,8.2C227.3,467.3,228.6,464.7,229.8,462z"/>
		<path class="st109" d="M91.5,436.9c0,1-0.4,2.1,0.8,2.7c-2.1,1.3-4.3,0.4-7,0.8c0.9-1.1,1.4-1.8,2-2.5c1.3,0.4,2.1-0.5,3.1-1
			C90.8,436.5,91.2,436.6,91.5,436.9z"/>
		<path class="st6" d="M266.8,507.4c0.4-2.7,0.7-5.4,1.3-9.3c2,4.1,0.4,6.7-0.1,9.4C267.6,507.5,267.2,507.5,266.8,507.4z"/>
		<path class="st97" d="M224,198.2c2.8,2.3-1.1,3.3-0.9,5.1c-1.5-0.3-4.3,1.2-3.3-2.6C220.7,199,224.3,201.8,224,198.2z"/>
		<path class="st68" d="M159.5,524.9c-1.1-3.1-0.4-5.9-0.6-9.2C160.9,518.4,161.1,521,159.5,524.9z"/>
		<path class="st110" d="M93.9,420.1c2.7-2.1,5.1-4.5,8.2-6c0.3,0.3,0.5,0.5,0.8,0.8c-2.3,2.5-5.3,4.1-8.1,6
			C94,421.3,93.9,420.8,93.9,420.1z"/>
		<path class="st111" d="M93.9,420.1c0.3,0.3,0.6,0.6,0.9,0.8c-2.5,2.2-5.2,4.3-8.2,5.9c0-0.6,0-1.2,0-1.8
			C89,423.4,91.5,421.8,93.9,420.1z"/>
		<path class="st97" d="M177.2,460.9c1.4,2.8,1.3,5.3-0.2,8.2C176,466.2,175.7,463.7,177.2,460.9z"/>
		<path class="st6" d="M300.5,212.7c0.3,2.1,1.6,4.1-0.1,6.8c-0.8-3.3-1.5-6-2.1-8.9C300.2,210.3,299.5,212.3,300.5,212.7
			C300.5,212.6,300.5,212.7,300.5,212.7z"/>
		<path class="st39" d="M240.4,293c0.1,0.8,2.2,0.8,0.8,2.2c-1,1-1.9,1.7-2-0.6c-2.5,1.6-3-0.7-4.2-2
			C237.2,291.6,238.7,293.4,240.4,293L240.4,293z"/>
		<path class="st112" d="M218.9,236.7c-3.9-2.2-1.6-5.1-2-7.4c0-0.1,0.7-0.5,1-0.5c0.7,0.1,0.6,0.8,0.6,1.3
			C218.4,232.1,218.1,234.1,218.9,236.7z"/>
		<path class="st113" d="M249.7,393.4c1.8,2.7,1.2,5.6,2.2,8.7C249.3,399.8,248.8,397.7,249.7,393.4z"/>
		<path class="st114" d="M262.5,263.5c0.7-2-3.4-0.3-2-2.8c1.5,1,3.1-3.2,4.5,0.2C262.9,260.4,266.8,266.2,262.5,263.5z"/>
		<path class="st115" d="M152.5,286.9c-1.8,1.5-3.5,3-5.3,4.5c-0.8,0.6-1.5,0.5-2-0.4c-0.5-0.9,0.2-1.2,0.8-1.5c2-1.1,4-2.2,6-3.3
			C152.2,286.4,152.3,286.6,152.5,286.9z"/>
		<path class="st116" d="M130.1,386.9c-0.3-0.2-0.5-0.5-0.8-0.7c2.9-2.8,6.2-4.9,9.8-6.6C136.4,382.4,133.5,384.9,130.1,386.9z"/>
		<path class="st7" d="M54.5,447.5c-1.4-2.7,0.6-5,0.6-7.5C57,442.8,55.3,445.1,54.5,447.5z"/>
		<path class="st117" d="M93,60c-0.5-0.7-1.3-1.4-0.2-2.3c2.7-0.6,5.3-2.6,8.3-0.9c0.3,0.2,0.7,0.5,1,0.7C99.1,58.4,96.1,59.2,93,60
			z"/>
		<path class="st118" d="M234.5,227.8c2.5-1.3,4.2,0,6.5,1.4C237.9,231.5,236.4,228.6,234.5,227.8z"/>
		<path class="st119" d="M277.7,515.2c-1.8-2.8-2.3-5-1.3-8.3C277.6,509.8,278.4,511.9,277.7,515.2z"/>
		<path class="st120" d="M287.2,368.2c0.1-1.6,0.3-3.3,0.3-4.9c-0.1-1.4,0.5-1.9,1.6-1.6c1.7,0.5,0.1,1.2-0.1,1.6
			c-0.5,2,0.6,4.2-0.8,6C287.7,369.2,287.3,368.8,287.2,368.2z"/>
		<path class="st119" d="M261.8,144.1c-0.6-1.2-2.6-0.5-2.6-2.1c0-0.5,0.7-1.3,1.3-1.5c2.3-0.7,2.3,2.1,3.8,2.8
			C263.5,143.5,262.7,143.8,261.8,144.1z"/>
		<path class="st119" d="M219.2,279.8c-1.5-0.9-3-1.8-1.4-4.1c0.2-0.3-0.1-1.3,0.8-1c0.8,0.2,1.7,0.6,2.1,1.2
			c0.8,1.1-0.4,0.9-0.9,1.1C217.6,277.7,221.2,279.1,219.2,279.8z"/>
		<path class="st93" d="M158.1,496.7c-1.1-3.3-1.1-5.5,0-8.7C159.2,491.3,159.2,493.5,158.1,496.7z"/>
		<path class="st70" d="M240.5,293.1c-0.8-0.9-1.6-1.8-2.3-2.7c0.2-0.3,0.3-0.5,0.5-0.8c2.3,1.5,4.7,3.1,7.3,4.7
			C243.2,295.9,242.4,292.4,240.5,293.1C240.4,293,240.5,293.1,240.5,293.1z"/>
		<path class="st121" d="M183.7,111.3c-0.4-1.1-2.1-1.5-1.6-3c1.7-0.8,2.2-3.7,4.8-2.9c0.6,0.3,1.1,0.5,1.7,0.8
			C187.3,108.1,185.6,109.7,183.7,111.3z"/>
		<path class="st122" d="M210.8,431.9c-0.1-1.6,0.8-1.1,1.6-0.8c2.5,0.2,5-1.5,8.4-0.1C217.1,432.7,213.9,431.5,210.8,431.9z"/>
		<path class="st123" d="M212.4,424.3c-2.2,1.3-1.9,6.5-6.3,4.1C208,426.6,210,425,212.4,424.3z"/>
		<path class="st114" d="M220.1,281.7c-2.1,1.8-4.4,1.2-5.9,2.7c-0.1,0.1-1.2-0.5-1.2-0.7c-0.1-1.1,1.9-0.5,1.6-1.9
			C216.2,281.7,217.9,281.7,220.1,281.7z"/>
		<path class="st6" d="M56.9,71.9c1.1,1.9,0.8,3.8,0.5,6.5C55.5,75.8,55.9,73.8,56.9,71.9z"/>
		<path class="st92" d="M184.6,92c-1.5-2.3-0.6-4.2,1-6.6C186.2,88.2,184.9,90,184.6,92z"/>
		<path class="st118" d="M264.3,500c1-1.9,1.5-4,2.5-5.9C268,496.9,266.5,498.6,264.3,500z"/>
		<path class="st124" d="M271,221.9c-0.2,1,0.3,2.7-1.8,1.7c0-0.6-0.1-1.1-0.1-1.6c-0.1-1-1.7-2.6,0.3-3
			C271.5,218.7,270.9,220.7,271,221.9z"/>
		<path class="st125" d="M287.2,368.2c0.4,0.4,0.7,0.8,1.1,1.2c0.4,2.1,0.4,4.1-0.9,5.9c-0.8-0.4-0.9-1.1-0.9-1.8
			C286.7,371.7,285.9,369.8,287.2,368.2z"/>
		<path class="st119" d="M262.6,500.8c1.4,3.1-0.1,4.9-0.7,6.8C260.4,505.4,261.9,503.6,262.6,500.8z"/>
		<path class="st126" d="M57.2,152c0.8,3.7,0.3,5.8-2.7,7.8C55.5,157.1,56.2,155.1,57.2,152z"/>
		<path class="st88" d="M256.9,255.7c1.1,1.3,2.5,2.5,0.7,4.7c-0.9-1.7-2.7-2.6-2.3-4.8C255.8,255.7,256.3,255.7,256.9,255.7z"/>
		<path class="st88" d="M242.3,313.9c2-4,4-1.9,6.4-0.6C246.5,313.5,244.7,313.7,242.3,313.9z"/>
		<path class="st119" d="M264.3,143.3c1.1,0.3,2.2,0.6,3.3,0.9c1-0.6,1.8-2.1,3.3-0.9c0,0.3,0,0.5,0.1,0.8
			C268.3,146.7,266.1,146.4,264.3,143.3z"/>
		<path class="st93" d="M305.3,465.6c-0.8-2.9-1.1-4.5,0.1-6.7C306.6,461,306.5,462.7,305.3,465.6z"/>
		<path class="st127" d="M218.2,288.8c-0.5-0.6-1-1.1-1.5-1.7c-0.6-0.5-1.2-0.9-2-1.5c3-0.7,4.4,1.6,6.5,2.6
			C220,289.3,219.1,288.7,218.2,288.8z"/>
		<path class="st68" d="M166.2,472.6c1.6,3.3,0,4.7-0.6,6.3C164.5,476.9,165.7,475.4,166.2,472.6z"/>
		<path class="st128" d="M219.8,480.5c0.9-1.7,0.8-3.8,2.2-5.2C223.2,477.3,223.1,477.5,219.8,480.5z"/>
		<path class="st129" d="M143.7,321.1c-0.5-0.1-0.9-0.2-1.4-0.3c2-1.5,4-3,6-4.5C147.5,318.8,145.7,320.1,143.7,321.1z"/>
		<path class="st130" d="M115.4,57.7c0.2-0.3,0.5-0.6,0.7-0.8c2.6,0.1,4.1,1.5,4.1,4.3c-0.3,0.3-0.5,0.6-0.8,0.8
			C118.1,60.6,116.8,59.2,115.4,57.7z"/>
		<path class="st131" d="M135.9,341.2c-0.3-0.3-0.5-0.6-0.8-0.8c2.1-1.4,4.1-2.8,6.2-4.2C140.2,338.8,138,339.9,135.9,341.2z"/>
		<path class="st132" d="M218.2,48.6c0,0.3,0,0.6,0.1,1c-2,0.9-3.9,1.8-5.9,2.7C213.3,49.2,215.7,48.9,218.2,48.6z"/>
		<path class="st8" d="M251.8,247.4c1.2-1,2.6-1.6,3.6,0.1c0.2,0.3,2.6,2.1-0.2,2.6C254.8,248.2,252.8,248.5,251.8,247.4z"/>
		<path class="st60" d="M252,254.2c-1.1,0.3-2.2,0.5-3.3,0.8c-0.6-0.5-1.8-0.9-0.6-1.7C249.5,252.3,251.2,251.6,252,254.2z"/>
		<path class="st70" d="M242.3,288.5c-0.8,0.6-1.8,0.3-1.9-0.2c-0.5-2.1-2.6,1.2-2.9-1c-0.1-0.5,0.1-1.5,0.3-1.5
			c1.7-0.4,2.7,1,3.8,1.9C241.9,287.9,242.1,288.2,242.3,288.5z"/>
		<path class="st133" d="M103.1,106.1c-0.3-0.3-0.6-0.5-0.9-0.8c2.2-0.1,4.5-0.2,6.7-0.3c2.1-0.2,2.6,0.9,2.2,2.7l-0.4,0l-0.4,0
			C108,107,105.3,107.8,103.1,106.1z"/>
		<path class="st134" d="M121.4,377.8c-0.4-0.1-0.9-0.2-1.3-0.2c1.9-1.8,4-3.5,6.9-3.5C125.1,375.3,123.2,376.6,121.4,377.8z"/>
		<path class="st8" d="M269,485.5c1.5,2.9,0.8,4.2-1.4,6.1C268.1,489.3,268.5,487.8,269,485.5z"/>
		<path class="st114" d="M252.7,452.8c1.2,2.1,1.1,3.5,0.3,5.2C251.4,456.4,251.8,455,252.7,452.8z"/>
		<path class="st135" d="M62.5,180.4c-0.2,1.8-0.5,3.6-1.4,5.2c-0.4-0.8,0.3-2.1-0.9-2.6c0.5-1.5,1-3,1.5-4.5
			C62.5,178.9,62,179.9,62.5,180.4z"/>
		<path class="st136" d="M213.4,119.6c-1.8,1.6-0.6,4.1-1.8,5.9c-0.3,0-0.6,0-0.9,0c-0.3-2.3,0.9-4.3,1.2-6.5c0.1-0.4,0.4-1.2,1-0.8
			C213.3,118.3,213.3,119,213.4,119.6z"/>
		<path class="st114" d="M225,257c-1.1,1-1.5,2.4-1.8,4.2C221.6,257.9,221.8,257.5,225,257z"/>
		<path class="st88" d="M253.5,361.2c2.8-0.9,4.7-1.5,6.6-2.1C258.5,361,256.7,362.2,253.5,361.2z"/>
		<path class="st137" d="M286.4,373.4c0.9,0.3,0.9,1.1,0.9,1.8c-0.8,1.2,0.1,3-1.6,4.2C285,377.2,285.4,375.3,286.4,373.4z"/>
		<path class="st73" d="M189.7,455.7c0.7,1.7,0.8,3.1-0.6,5.4C188.6,458.7,188.1,457.3,189.7,455.7z"/>
		<path class="st138" d="M152.3,307.3c-0.3-0.2-0.5-0.5-0.8-0.7c1.7-1.5,3.5-2.8,6-2.9C155.8,305,154.1,306.1,152.3,307.3z"/>
		<path class="st95" d="M136.4,386.7c1.6-1.7,3.4-3.1,6-3.5c-1.8,1.3-3.7,2.7-5.5,4C136.8,387.1,136.6,386.9,136.4,386.7z"/>
		<path class="st139" d="M62.5,180.4c-0.3-0.6-0.6-1.3-0.9-1.9c0.1-1.3,0.1-2.6,0.2-3.9c0.6,0.3,1.1,0.6,1.7,0.9
			C63.6,177.2,62.9,178.8,62.5,180.4z"/>
		<path class="st140" d="M126,379.3c0-0.3,0-0.7,0-1c1.3-1.3,2.5-2.8,4.7-3.2C129.7,377.4,127.8,378.4,126,379.3z"/>
		<path class="st141" d="M127.6,360.7c-0.2-0.3-0.4-0.6-0.6-0.9c1.4-1.7,3.3-2.6,5.6-2.8C130.9,358.3,129.2,359.5,127.6,360.7z"/>
		<path class="st142" d="M182.8,397.3c-0.2-0.4-0.5-0.7-0.7-1.1c1.2-1.5,2.8-2.5,4.9-2.9C185.6,394.7,184.2,396,182.8,397.3z"/>
		<path class="st8" d="M214.6,311.3c0.6-1.3,1.3-2.4,2.8-2c0.7,0.2-0.8,1.4,0.3,1.9C216.7,312.3,215.7,311.7,214.6,311.3z"/>
		<path class="st45" d="M242,487.5c1.1,1.8,1.1,2.9,0.3,4.2C240.8,490.6,241.2,489.4,242,487.5z"/>
		<path class="st118" d="M107.3,293.4c-1.6-0.3-3,0.8-4.5,0.8C104.1,293.1,105.2,291.3,107.3,293.4z"/>
		<path class="st143" d="M298.9,148.5c0.8,1.2,1.9,2.4,1.6,4.1c-0.9,1.8-2.4,2-4.1,1.7c-3.3-1.5-4.9-6.3-2.9-9.6
			c1.1-1.7,0.2-3.2,0.4-4.8c0.7-1.3,2.5-0.6,3.3-1.7c2.1-1.6,3,0.7,3.8,1.7c0.8,1-0.5,1.5-1.5,1.7c-1.6,0.4-0.3,0.9,0.1,1.2
			c1.2,1,0.6,2,0.1,3c-0.5,1.7-3.5,1.6-2.7,4c-0.4,0.6,0.7,0.6,0.2,0.4c0,0,0-0.1,0.1-0.2C297.4,149,297.5,147.9,298.9,148.5z"/>
		<path class="st97" d="M247.2,168.7c-2,1.3-4,2.7-6,4c-2.2-1.1-3.5-3.4-2.5-5.4c1.2-2.3,3.5-1.1,5.2,0.2
			C244.9,168.5,246,168.6,247.2,168.7z"/>
		<path class="st80" d="M296.4,154.3c1.4-0.6,2.7-1.1,4.1-1.7c2.2,1.9,4.3,3.6,0.5,6.2c-0.9,0.6-1.5,0.6-2.1,0.1
			C297.5,157.8,297.3,155.8,296.4,154.3z"/>
		<path class="st5" d="M289.9,126.3c-0.1-0.6-0.1-1.1-0.2-1.7c-0.8-0.9,1.2-2.3-0.6-3.2c-0.7-0.4,0-1.5,0.6-2.1c0.9-1,1.8-1,2.6,0.3
			c0.3,1.4,0.6,2.8,0.8,4.2C291.9,124.5,292.8,128,289.9,126.3z"/>
		<path class="st80" d="M298.9,148.5c-0.2,0.2-0.4,0.4-0.6,0.5c-1.9,0.8,1.8,3.3-0.8,3.4c-1.6,0-1.6-2.5-2-3.7
			c-0.6-1.6,1.6-1.6,2.8-2.2c0.5-0.2,1-0.5,1.5-0.7C299.4,146.7,300.9,148.1,298.9,148.5z"/>
		<path class="st144" d="M297.2,138.2c-0.6,1.7-1.9,1.8-3.3,1.7c-1.1-2-0.8-4.3-1-6.5C295.8,133.8,293.8,138.5,297.2,138.2z"/>
		<path class="st145" d="M253.5,128.6c1.7-1.6,3.6,1,5.3-0.3c0.5,0.7,1.7,1.2,1.4,2.3c-0.4,1.1-1.3,0.4-2.1,0.3
			c-1.2-0.2-2.4-0.2-3.7-0.2C253.8,130.1,253.5,129.5,253.5,128.6z"/>
		<path class="st0" d="M226.4,188.3c0.5-0.1,1-0.2,1.4-0.2c1,0.4,2.9,0.2,1.8,2.2c-0.6,1-1.4,2.5-2.9,1.7
			C225,191,225.7,189.5,226.4,188.3z"/>
		<path class="st0" d="M263.5,134.2c2.3-0.1,4.3-1.1,5,1.5c0.8,3,0.1,3.2-2,1.2C265.8,136.1,264.9,135.5,263.5,134.2z"/>
		<path class="st0" d="M270.8,143.3c-1.3-0.5-1.9,1.8-3.3,0.9c0.1-1.3,0.5-2.5,1.6-3.2c0.9-0.5,1.8-0.4,2.5,0.7
			C272.3,142.7,271.9,143.2,270.8,143.3z"/>
		<path class="st146" d="M253.5,128.6c0.8,0.4,1.1,1.1,1,2c-1.1,1.8-1.7,4.3-5,3c1.5-1.2,3.9-2,2.4-4.6
			C252.4,128.9,253,128.7,253.5,128.6z"/>
		<path class="st2" d="M250.2,107.5c0.8,0.1,1.4,0.4,1.6,1.2c0.2,0.9-0.2,1.7-1,2c-0.9,0.3-1.2-0.4-1.2-1.1
			C249.5,108.8,249.1,107.8,250.2,107.5z"/>
		<path class="st1" d="M292.3,119.6c-2.2-0.6-3,0.5-1.9,2.3c0.9,1.5-1.2,1.7-0.7,2.7c-2.1-2.1-4-3.8-3.5-7.7c0.4-2.8-3-3.2-5.6-3.6
			c1.5-1,4.1,0,4.2-2.6c0.1-2.1-1.4-3.2-3.1-3.9l0,0c1.1-1.4-0.3-2.6-0.2-3.8c0.2-1.9-0.6-4.4,1.8-5.5c0.2,0.1,0.3,0.1,0.5,0.2
			c1,0-0.2,2.9,1.9,1.5c2.5,0.1,4.5-1.6,6.9-2.1c4.1-0.9,3.1,1.5,2.5,3.4c-0.5,1.9-2.4,3.4-1.5,5.7c1.2,0.5,1.2-0.8,1.7-1.3
			c0.6-0.5,1.1-1.1,1.6-1.6c0.5,0.7,1.4,1.5,1.3,2c-0.2,0.8-0.4,2.3-1.4,2.2c-2.4-0.3-3,1.5-3.7,3.1c-0.6,1.4-2.9,2.5-1.8,4.2
			c1.2,1.8,3.3,1.3,5.6,0.3C295.7,117.8,292.4,116.8,292.3,119.6z"/>
		<path class="st1" d="M281.6,106.9c-0.3,3.2-0.2,3.1-2.6,1.9c-1.2-0.6-2.1-0.1-2.5,1.3c-0.2,0.8-0.7,1.6-1.7,1.5
			c-1.2-0.2-1.1-1.4-1.6-2.1c-1.4-2.2,2.1-5-1-6.8c0.5-0.3,0.9-0.7,1.4-0.7c0.8-0.1,2,0,1.9,1C275,108.5,279.2,106.1,281.6,106.9
			C281.6,106.9,281.6,106.9,281.6,106.9z"/>
		<path class="st1" d="M283.2,97.5c1.7-2.2,3.1-4.8,5.6-6.3c2.4,3.7,2.4,3.8-3.2,6.4C284.9,98.2,284.1,98.2,283.2,97.5L283.2,97.5z"
			/>
		<path class="st0" d="M232.2,103.4c-1.6,0.3-3.2,0.7-4.9,1c-0.7-3,2.2-2.2,3.3-2.9C232.3,100.6,232.1,102.4,232.2,103.4z"/>
		<path class="st1" d="M277.3,122.7c0.1,1.3-0.4,1.8-1.4,1.8c-1.4,0.1-1.9-0.9-2.2-2c-0.3-1.1,0.6-1.5,1.4-1.6
			C276.5,120.8,276.8,122.1,277.3,122.7z"/>
		<path class="st0" d="M239.6,104.3c-1.9-0.3-3.8-0.7-5.8-1C236.3,100.2,237.9,102.6,239.6,104.3z"/>
		<path class="st70" d="M283.3,97.6c0.8,0,1.6,0,2.4,0c0,0.6-0.9,1.1-0.1,1.7c-0.1,0.9,0.6,2.4-0.4,2.6c-1.2,0.3-1.8-0.9-1.8-2.2
			C283.4,99,283.3,98.3,283.3,97.6z"/>
		<path class="st50" d="M289,261.7c1.6-0.6,3.3-1.1,4.9-1.7c0.9,0.6,1.2,1.4,0.9,2.5c0,0.7,0.1,1.3,0.8,1.7c0.3,1.9-2.1,1.2-2.4,2.5
			c-0.6,0-1.2,0-1.8,0.1l0,0c-0.8-0.6-1.6-1.1-2.4-1.7c-0.2-0.2-0.3-0.4-0.3-0.6c0-0.2,0-0.4,0.1-0.4
			C290.5,263.6,288.5,262.6,289,261.7L289,261.7z"/>
		<path class="st147" d="M304.1,259.4c-1.5,1.9-2.7,4.2-5.5,2.4c-0.9-0.6,1-1.7-0.2-2.5C300.3,257.6,302.1,258.4,304.1,259.4z"/>
		<path class="st139" d="M289.1,264.2c0,0.3,0,0.6-0.1,1c-1.1-0.7-2.3-1.5-3.4,0c-0.8,1.2-2,1.1-3.2,0.8c-0.9-0.4-0.9-1.2-0.9-2
			C284.1,262.3,286.6,260.5,289.1,264.2z"/>
		<path class="st0" d="M297.7,266.9c2.7,0.3,4.9,2,7.5,1.8c0.9-0.1,1.2,1.3,0.8,2c-0.7,1.3-1.2,0.3-1.8-0.3
			C302.6,268.7,299.5,269.5,297.7,266.9z"/>
		<path class="st148" d="M291.4,266.9c0.9,0.8,2.2,1.2,1.8,2.9c-0.3,1-1,0.7-1.6,0.6c-1-0.1-2-0.6-2.2-1.5
			C289.2,267.5,290.2,267,291.4,266.9C291.4,266.9,291.4,266.9,291.4,266.9z"/>
		<path class="st149" d="M278.9,242.4c0.2,1,0.8,2.2-0.2,3c-0.3,0.2-1.2-0.2-1.8-0.5c-1.3-0.7-1-1.6-0.3-2.6
			C277.4,242.4,278.2,242.4,278.9,242.4z"/>
		<path class="st0" d="M274.9,282.4c-1.1,0.9-2,2.4-3.7,1.6c-0.2-0.1-0.2-0.8-0.1-1.1C272.2,281.4,273.6,282.5,274.9,282.4z"/>
		<path class="st0" d="M293.2,266.8c-1-2.7,2-1.3,2.4-2.5c0.8,0,1.6,0,2.7,0C296.8,266,295.1,266.6,293.2,266.8z"/>
		<path class="st0" d="M294.8,262.6c-0.3-0.8-0.6-1.7-0.9-2.5c0.1-0.8-0.3-1.7,1-2.4C294.7,259.4,298,260.8,294.8,262.6z"/>
		<path class="st0" d="M289.8,258.4c0.1-1-0.3-2.5,1.5-2.3c0.8,0.1,1,0.9,0.9,1.6C291.9,259.7,290.8,258.7,289.8,258.4
			C289.8,258.4,289.8,258.4,289.8,258.4z"/>
		<path class="st150" d="M177.1,46.9c0-2.5,0-4.1,0-5.8c0-1.3-1-3.2,1.2-3.2c2,0,0.3,2.1,1.2,3c0.9-1.1,0.9-3.4,2.8-3.1
			c1.5,0.2,0.2,2.2,1.1,3c1.3-1,1.2-3.4,3.8-3.1c-1,2.5-1.9,5.1-3.2,7.4c-0.6,1.1-2.1,2.7-2.8-0.2c-0.1-0.3-0.3-0.6-0.5-1
			c-0.2,0.4-0.3,0.8-0.5,1.1C179.7,46.3,178.5,46.1,177.1,46.9z"/>
		<path class="st151" d="M194.4,38.3c1.2-0.3,2.4-0.9,3.6-0.8c2,0.1,2.8,1.3,2.3,3.5c-0.4,1.4-3.6,2.3-1,4.5
			c0.2,0.2-0.9,1.2-1.8,0.5c-0.8-0.6-1.5-1.5-2.3-0.1c-2.3,1-2.3-0.9-2.2-2.1C193,41.9,192.9,39.9,194.4,38.3z"/>
		<path class="st152" d="M208.1,38.2c0.3,1.4-0.5,2.1-1.2,2.7c-1.5,1.1-1.6,1.9,0.1,2.9c0.5,0.3,1.9,0.5,0.7,1.6
			c-0.7,0.7-1.4,1.4-2.3,0.2c-0.9-1.2-1.6-2.5-2.5,0.1c-0.2,0.5-2.1,0.9-1.7-0.9c0.5-2.2,0.8-4.6,2.1-6.2
			C204,37.7,206.5,38.8,208.1,38.2z"/>
		<path class="st153" d="M191.9,45.1c-1.4,1-2.8,2.8-4.5,0.7c-1.6-2-0.9-4.2,0.2-6.2c1.2-2,2.8-3,5-1.4
			C195.2,40.9,193.5,43,191.9,45.1z"/>
		<path class="st154" d="M211.6,44.3c-1-1.4-3.5-2.5-1.8-5.1c1-1.6,2.5-2.1,4.3-1.5c0.9,0.3,1.1,0.9,1,2c-0.3,2.9-2.7-0.5-3.5,1.6
			c0.6,1.3,3.4,2.3,1.7,4.5c-1.3,1.6-2.8,1.3-4.3-0.2C209.5,43.9,211.3,45.9,211.6,44.3z"/>
		<path class="st120" d="M191.9,45.1c1-2.2,2-4.4,0.8-6.8c0.6,0,1.1,0,1.7,0.1c0,1.9-0.1,3.8-0.7,5.6c-0.4,1.3-0.2,2.2,1.4,1.9
			C193.6,47.9,192.9,46,191.9,45.1z"/>
		<path class="st155" d="M93.2,437.7c1.2-1.6,3.4-2.1,4.1-4.1c2.4-3.3,5.5-5.5,9-7.2c1.2-0.6,1.2-1.1,0.8-2.1
			c5.5-4.3,10.9-8.6,16.4-12.8c2.4-3,5.5-4.9,8.7-6.7c2.1-1.8,4.1-3.6,6.8-4.2c0.6,2.7-0.9,4.8-1.7,7.2c-2.3,7.2-4.7,14.4-7,21.6
			c-0.5,1.6-0.9,3.2-2.7,3.2c-4.8-0.1-9.4,1.6-14.1,2c-0.4-0.9,0.1-1.5,0.6-2c-3.3,0.7-6.4,2.2-9.6,3.5c-1.3,0.7-3-0.6-4.2,0.9
			c-2.6-0.1-2.8,0-4.1,0.8C95.3,437.7,94.2,437.7,93.2,437.7z"/>
		<path class="st156" d="M104.6,436c3.1-3.9,8-3.5,12.1-6c-0.2,2.8-2.4,2.9-3.1,4.5C110.6,435,107.6,435.5,104.6,436z"/>
		<path class="st157" d="M96.3,437.7c0.6-2.5,2.9-2.9,4.2-4.3c1.6,1.7-3.1,1.8-0.1,3.5C99.2,438.2,97.7,437.8,96.3,437.7z"/>
		<path class="st1" d="M131.4,548.2c0-1.4,0-2.8,0-4.2c0-0.8,0.1-2.2,1-1.9c3.2,1.3,7-2.1,9.6,1.1c2.5,3,1.1,7,1.2,10.6
			c0.1,1.2-1.2,0.8-1.9,0.9c-1,0.1-1.9-0.1-1.9-1.5c0-1.7,0-3.4-0.1-5c-0.1-1.2,0-2.7-1.8-2.7c-1.8-0.1-2.3,1.3-2.4,2.8
			c-0.1,1.5-0.1,3.1,0,4.6c0.1,1.4-0.3,2-1.8,2c-1.3-0.1-2.1-0.3-2-1.9C131.4,551.2,131.4,549.7,131.4,548.2z"/>
		<path class="st158" d="M125.2,548.1c0-1.4,0.1-2.8,0-4.2c-0.1-1.4,0.4-2,1.8-1.9c1.2,0.1,2.1,0.1,2.1,1.8c-0.1,3.1-0.1,6.2,0,9.2
			c0,1.7-1,1.6-2.1,1.7c-1.5,0.1-1.9-0.6-1.8-2C125.2,551.2,125.2,549.6,125.2,548.1z"/>
		<path class="st159" d="M127,535.9c1.2,0.1,2.2,0.6,2.2,1.9c0.1,1.5-1,2.3-2.2,2.3c-1.2,0-2-0.7-1.9-2.1
			C125.1,536.7,125.8,536,127,535.9z"/>
		<path class="st144" d="M186.2,196.7c-1.2-1.6-1.2-2.7-0.2-4.3C187.1,193.8,187.2,195,186.2,196.7z"/>
		<path class="st0" d="M103.1,106.1c2.4,0.8,5.5-1.9,7.3,1.6c1,4.9,2,9.9,3.3,16c1.5-3.2,2.5-5.4,3.5-7.5c1.9-2.9,3.4-6.1,4.6-9.4
			c0.1-0.1,0.2-0.2,0.3-0.3c7.8-2.1,8.7-1.4,8,6.5c-0.5,5.7-0.9,11.5-1.4,17.2c-0.2,2.3-5,5.3-7,4.3c-1-0.5-0.6-1.4-0.5-2.2
			c0.2-2.8,0.4-5.7,0-8.7c-1.2,2.4-2.6,4.8-3.7,7.3c-0.9,2-2.1,2.7-4.4,3c-3.9,0.4-5.8-0.7-6-4.9c-0.1-2.1-0.8-4.1-1.4-6.9
			c-0.9,3.4-1.9,6-2.3,8.7c-0.5,3.5-2.1,4-4.9,2.6c-1-0.5-2-0.9-3-1.3C98.2,123.5,100.7,114.8,103.1,106.1z"/>
		<path class="st160" d="M48,185.6c-2.9,0-4.7-1.3-4.8-4.4c-0.1-3.5,3.5-6.6,7.6-6.6c2.7,0,4.6,0.8,4.5,4
			C55.1,182.4,51.8,185.6,48,185.6z"/>
		<path class="st161" d="M250.4,174.6c2.5-0.1,4.3,0.8,4.5,3.7c0.2,3.7-3.4,7.2-7.1,7.3c-2.9,0.1-4.8-1.2-5-4.3
			C242.6,177.7,246.2,174.7,250.4,174.6z"/>
		<path class="st9" d="M256.7,64c0.9-1.9,1.6-3.3,2.1-4.7c0.6-1.5,0.6-2.7-0.9-4c-10.2-8.4-8.5-23.8,3.2-29.9
			c14.6-7.6,34.1,4.5,34.1,21.2c0,7.2-7.1,13.7-15.6,14.4c-4,0.3-8-0.2-11.8-1.3c-2.5-0.7-4.3-0.6-6.1,1.6
			C260.7,62.7,259.1,63.6,256.7,64z"/>
		<path class="st112" d="M260.2,248.9c0.6,0.6,1.1,1.2,1.7,1.8c0.7,1.7,0,3.2-0.4,4.8C258.2,251.2,258,250.6,260.2,248.9z"/>
		<path class="st2" d="M183.7,111.3c0.4-2.9,2-4.7,4.9-5.2c1.2-0.1,2.4-0.2,4-0.4c-1.4,8.8-4.1,17.1-7,25.3c-0.9,2.7-4.5,3.9-7.9,3
			c-1.1-4.9-3.3-9.3-5.4-14.8c-1.1,5.1-2,9.2-3,13.3c-0.3,1.2-0.3,2.6-2.2,2.4c-2-0.2-1.5-1.8-1.5-2.9c-0.6-8.1-0.6-16.2,1.3-24.2
			c2.8-3.4,6.6-2.4,10.1-2.4c1.2,0,1.1,1.7,1.4,2.7c1,3.7,1.9,7.5,2.9,11.8C182.9,116.7,183.3,114,183.7,111.3z"/>
		<path class="st0" d="M138.4,134.8c3.9-9.6,9.4-18.4,14.2-27.5c1.4-2.6,4.4-2,6.7-1.8c2.1,0.2,1,2.5,1.2,3.8
			c0.5,3.7-0.1,7.6,0.8,11.3c0,2.1,0,4.2,0,6.3c0.1,6.7,0.1,6.7-6.3,8.7c-0.3-2-0.5-4.1-0.8-6.5c-3.4,1.8-7.4,2.1-10.3,5.3
			C142.5,135.9,140.3,134.7,138.4,134.8z"/>
		<path class="st159" d="M139.3,183.3c0.8-3,1.6-5.1,2-7.3c0.5-2.9,2.6-2.8,4.3-2.1c2.3,0.8,1.3,2.8,0.6,4.2
			C144.9,180.8,142.7,182.3,139.3,183.3z"/>
		<path class="st9" d="M51.8,57.6c-2.8-2.6-5.5-2.4-8.6-1.7c-6.6,1.5-13.3,1.1-19.9-0.6c-4-1.1-8.3-1.9-9.3-7
			c-1.1-5.4,0.8-9.9,4.5-13.7c3-3.1,6.9-4.5,11-5.2c7.5-1.4,15.1-2.6,22.7,0.1c4.5,1.6,6.7,5.2,7.2,9.8c0.5,4.6-1.2,8.5-5.1,10.6
			C50.8,51.8,49.8,53.8,51.8,57.6z"/>
		<path class="st143" d="M163.8,183.2c0.8-2.9,1.4-5.5,2.2-8c0.7-2.4,2.7-1.6,4.1-1.3c1.6,0.3,1.5,1.9,1,3.1
			C169.9,180.3,167.5,182.2,163.8,183.2z"/>
		<path class="st2" d="M214.8,130.6c-1.6-3.6-2.1-7.3-0.8-11.1c0.5-0.9,0.7-2.5,2-2.3c4.2,0.6,4.7-2.5,5.2-5.4
			c0.4-2.4,1.8-3.6,3.7-4.6c8-4,15.1-2.7,20.4,4c2.2,7.3,0.6,13.7-4.8,18.8c-5.5,5.2-12,6.9-19.3,4.9
			C218.5,134.2,216.5,132.6,214.8,130.6z"/>
		<path class="st160" d="M196.9,134.7c0.8-4.5,1.6-9,2.3-13.5c0.2-1,0.4-1.9,0.7-2.9c1-3.1,0.4-4.8-3.2-3.8c0.8-8,0.8-8,9.1-8.7
			c3.9,0.6,7.8-1.9,11.6,0.2c-0.7,4.2-2.2,7.4-7.3,6.8c-1.8-0.2-2.2,1.2-2.5,2.6c-0.8,3.7-2.1,7.3-2.4,11.1
			C204.8,132.1,201.8,134.2,196.9,134.7z"/>
		<path class="st162" d="M120.2,61.2c-1.4-1.4-2.7-2.9-4.1-4.3c-1.1-2-2.2-0.9-3.2,0c-1.6,1.4-3.2,2.9-4.9,4.4
			c-1.7-1.8,0.1-4.8-2-5.7c-1.5-0.6-3.4,0.4-4.9,1.3c-2.8-0.4-5.3,2.6-8.3,0.9c0.1-0.3,0.3-0.5,0.4-0.8c4.4-11.1,5.7-7.7-4.2-14.4
			c0.6-1.7,2.1-1,3.1-1.2c5.1-1,5.1-0.9,2.7-5.7c-0.3-0.6-0.6-1.2-1-2.3c2.3,0.6,4.3,1,6.1,1.7c2.4,0.9,3.9,1.4,2.4-2.2
			c-0.7-1.8,2.5-1.6,2-3.5c3.9,2.2,4.1-2.8,6.6-3.6c0.1,0.1,0.4,0.1,0.5,0.3c2.9,5.2,2.8,5.2,8.4,3c1.4-0.5,2.8-1.1,4.2-1.6
			c0.8-0.3,2-0.3,1.6,0.9c-1.9,6.3,2.5,4.7,5.6,4.7c0.3,0,0.5,0,0.9,0.1c0.3,1.5-0.8,3.5-1.3,3.5c-6.4,1-2.6,6.4-4.4,9.5
			c1.8,0.4,2.2-0.5,2.5-1.7c1.6-6.6,1.6-6.6,7.9-4.6c0.6,0.2,1.3,0.4,1.9,0.7c0.3,0.1,0.5,0.3,1,0.7c-2.3,1.4-4.4,3-6.7,3.8
			c-4.1,1.5-4.3,4.5-3.5,8c0.3,1.1,0.7,2.1,0.5,3.3c-0.9,0.7-1.6-0.2-2-0.6c-2.3-2.3-3.3-1-4.5,1.2
			C122.6,58.6,122.2,60.6,120.2,61.2z"/>
		<path class="st7" d="M295.1,178.5c0.8-2.1-0.6-5.4,2.8-6c1-0.2,2.2,0.1,2.1,1.2C299.8,176.6,297.6,177.7,295.1,178.5z"/>
		<path class="st92" d="M27.9,179c1.2-2.7-0.2-6,3.6-6.6c0.8-0.1,2,0.2,1.9,1.1C33.2,176.7,30.9,177.8,27.9,179z"/>
		<path class="st163" d="M70.9,105.2c2.7,0.6,5.7-1.3,8.3,0.8c-1.7,7.4-3.6,14.7-4.9,22.1c-0.7,4-2.1,6.4-6.3,6.3
			c-0.9,0-1.9,0.3-2.8,0.4C66.6,124.8,68.6,115,70.9,105.2z"/>
		<path class="st147" d="M270,172.8c1.2,0,2.3,0.1,2.2,1.4c-0.1,1.4-1.4,2-2.6,2.1c-0.9,0.1-1.9-0.7-2-1.6
			C267.6,173,269,173,270,172.8z"/>
		<path class="st164" d="M91.4,217.5c-0.1-1.9-0.4-3.6,1.3-4.3c0.6-0.3,1.7,0.2,1.9,1.1C95,216.6,93.3,216.9,91.4,217.5z"/>
		<path class="st165" d="M152.2,213.1c1.2,0.3,1.9,0.7,1.8,2c-0.2,1.5-1.4,2-2.6,2.1c-1.1,0.2-0.8-0.8-0.8-1.4
			C150.8,214.7,150.6,213.3,152.2,213.1z"/>
		<path class="st166" d="M94.8,428.6c3.8-2.8,7.7-5.6,11.5-8.4c0.3,0.3,0.6,0.6,0.9,0.9c-3.5,3.4-7.7,5.7-11.7,8.4
			C94.8,429.7,94.6,429.3,94.8,428.6z"/>
		<path class="st167" d="M132.2,404.8c-2.7,2.5-5.5,4.9-8.7,6.7c-0.3-0.3-0.5-0.6-0.8-0.9C125.8,408.5,128.2,405.2,132.2,404.8z"/>
		<path class="st168" d="M105.5,213.5c1.7,0,2.3,1,2.1,2.2c-0.4,2.3-0.7,5-3.4,5.6c-1.5,0.3-2-1.3-1.7-2.7
			C102.9,216.6,103.1,214.1,105.5,213.5z"/>
		<path class="st169" d="M107.1,424.3c0.4,1,1.5,0.3,2.7,1c-4.5,2.7-8.7,5.2-12.5,8.3c-0.6,0.2-1.2,0.3-1.8,0.5
			c-0.3-0.4-0.3-0.9,0.1-1.3C99.4,430,103.3,427.1,107.1,424.3z"/>
		<path class="st170" d="M94.8,428.6c0.3,0.3,0.5,0.6,0.8,0.8c-2.1,1.8-4,3.9-6.9,4.2C90.3,431.4,92.6,430.1,94.8,428.6z"/>
		<path class="st171" d="M95.6,432.8c0,0.4-0.1,0.8-0.1,1.2c-1,1.5-2.6,2.1-4,2.9c-0.4,0-0.7,0-1.1-0.1
			C92.2,435.5,93.9,434.2,95.6,432.8z"/>
		<path class="st0" d="M289.1,264.2c-2.5-2.6-5-0.3-7.5-0.2c-2.2-1.3-0.8-2.9-0.2-4.1c0.9-1.6,2.7-0.2,3,0.2
			c1.2,1.8,2.9,1.5,4.6,1.6c0.6,1.2,2,1.1,3,1.7C291.2,264.8,290,264,289.1,264.2z"/>
		<path class="st70" d="M283.7,104.4c2.9,0.2,5.9,3.4,5.5,5.5c-0.1,0.8-0.8,1.1-1.5,1.1c-1.1,0-2.2-0.3-1.9-1.5
			C286.3,107.4,285,106.2,283.7,104.4z"/>
		<path class="st5" d="M288.5,112.7c1.3,0.9,0.7,3.2,2.3,4.2c0.5,0.3-0.1,1.2-0.6,1.1c-1.8-0.3-2.2-2.1-3-3.3
			C286.6,113.8,287.2,113.1,288.5,112.7z"/>
		<path class="st13" d="M191.7,41.8c-0.3,1.3-0.4,2.8-2.1,3.1c-1.1,0.2-1.2-0.9-1.2-1.7c0.1-1.3,0.5-2.6,1.8-3
			C191.3,39.9,191.6,40.8,191.7,41.8z"/>
		<path class="st154" d="M279.5,42.3c0.5,0.5,1.1,0.8,1.5,1.4c0.4,0.5,1.9,0.4,0.8,1.7c-0.7,0.7-1.4,1.5-2.3,0.3
			c-0.8-1.1-1.7-2.7-2.5,0.1c-0.1,0.2-1.4,0.3-1.5,0.2c-0.6-2.4,0.6-4.4,1.2-6.6c0.2-0.8,0.7-2.9,2.1-0.6c0.1,0.2,0.4,0.5,0.5,0.5
			c0.9-0.5,2.2-2.1,2.8-0.4C282.7,40.2,280.5,41,279.5,42.3z"/>
		<path class="st172" d="M261.9,46.3c0.9-2.4,1.7-4.8,2.6-7.2c0.4-1.1,1.4-1.5,2.3-1.5c1.6,0,0.7,1.5,0.8,2.2c0.3,1.5,0.5,3,0.5,4.5
			c0,1.8-0.6,2.9-2.4,1.2C264.1,44,263.6,47.7,261.9,46.3z"/>
		<path class="st90" d="M257.5,44.6c-0.3-1.7,1.8-3.4-0.3-5.3c-0.8-0.7,1.1-1.2,1.8-1.4c1.1-0.4,2.5-1.1,3.4,0
			c0.6,0.7-0.3,1.6-1.2,2.1c-1.8,1.1-1,3.2-1.4,4.9c-0.2,0.9-0.8,1.6-1.6,1.6C256.8,46.5,257.6,45.3,257.5,44.6z"/>
		<path class="st173" d="M286.2,44.2c-1.5,0-2.5-0.1-2-1.3c0.9-2.2-0.3-5.7,3.5-6.3c0.7-0.1,1.5,0.2,1,1.2
			C287.6,40,288.8,43.3,286.2,44.2z"/>
		<path class="st52" d="M271.7,39c2,1.7-1.4,5.5,2.6,5.9c0.1,0-0.2,1.6-1.2,1.7c-1.2,0.1-2.4,0-4,0C270,44,270.2,41.4,271.7,39z"/>
		<path class="st87" d="M287.3,46.4c-0.4,1.4-1.3,1.9-2.5,1.9c-0.9,0-1.6-0.6-1.4-1.6c0.3-1,1.1-1.6,2.1-1.6
			C286.5,45,287,45.6,287.3,46.4z"/>
		<path class="st174" d="M150.1,123.5c1.1-1.9,2.2-3.8,3.3-5.9C154.6,122.5,154.6,122.6,150.1,123.5z"/>
		<path class="st175" d="M37.1,40.9c1.7-4.3,5.1-2.9,8.2-2.6c0.2,1.8,0,3.5,0.5,5.3c0.5,1.8,0.1,3.3-2.2,3.1
			C42.1,46,40,48.7,39,45.8c-0.9-0.4-0.5-1.1-0.3-1.7c-0.3,0.4-0.2,0.9-0.4,1.3c-0.5,1.3-1.2,2.2-2.8,1.5c-0.3-0.2-0.6-0.4-1-0.6
			C34.1,43.8,35.2,42.1,37.1,40.9z"/>
		<path class="st176" d="M37.1,40.9c-0.9,1.8-1.7,3.5-2.6,5.3c-2.2,1-4.3,1.5-5.4-1.6c-1.5-1.9-0.8-3.4,0.8-4.7
			C33.2,36.4,34.9,36.6,37.1,40.9z"/>
		<path class="st177" d="M46.4,43.4c0-3.9,1.5-6.1,5.7-5.7c0.9,0.1,1.7,0.4,1.9,1.2c0.2,0.8-0.6,1-1.3,1.2c-3.3,1.1,0.7,3.3-0.6,4.8
			c-0.8,3.2-3.5,1.5-5.3,2.2C45.2,46,45.4,44.8,46.4,43.4z"/>
		<path class="st178" d="M25.7,46.7c-0.3,0-0.5-0.1-0.7-0.2c-1.1-1-1.8,1.4-2.9,0.4c-1.2-2.9,0.3-5.5,1.6-7.7
			c0.5-0.9,3.4-0.4,5.2-0.5c0.3,2.1-0.4,4-0.8,6C27.7,45.9,27.3,47,25.7,46.7z"/>
		<path class="st179" d="M25.7,46.7c3.2-1.8,1.6-5.5,3.2-8c0.7,0.1,1,0.6,1.1,1.3c-0.3,1.6-0.6,3.1-0.8,4.7
			C28.7,46.6,28.4,48.8,25.7,46.7z"/>
		<path class="st180" d="M46.4,43.4c0.1,1.2-0.8,2.6,0.7,3.5c0,0.2,0,0.4,0,0.6c-1.1-0.6-2.6,1.1-3.4-0.7c1.7-0.7,1.9-2.1,1.5-3.7
			c-0.5-1.6-0.5-3.2,0.3-4.8C47.4,39.6,45.6,41.8,46.4,43.4z"/>
		<path class="st181" d="M47,47.4c0-0.2,0-0.4,0-0.6c1.6-1,3.8-0.2,5-2c1.4,1.6,0.7,2.5-1,2.6C49.7,47.6,48.3,48.1,47,47.4z"/>
		<path class="st182" d="M35.5,46.8c2.5-0.4,2.3-3.1,3.7-4.7c0.9,1.3-0.5,2.5-0.2,3.7C38.1,47.1,37.2,48.7,35.5,46.8z"/>
		<path class="st183" d="M22.1,46.8c1.9-0.2,1.3-2.8,3-3.4c0.9,1.1-0.6,2-0.1,3C24.1,47.4,23.3,48.5,22.1,46.8z"/>
		<path class="st133" d="M231.3,127.9c-4.4,1.6-7.8,0.7-9.2-2.5c-1.4-3.1,0.1-7,3.7-9.3c4.4-2.7,8.1-2.2,10.7,1.4
			c0.2,0.8,0.3,1.6-0.4,2.3c-2,1.1-4.6,0.8-6.5,2.3c-1,0.8-2.2,1.5-1.9,3c0.3,1.4,1.8,0.9,2.7,1.4
			C231,126.8,231.5,127.2,231.3,127.9z"/>
		<path class="st184" d="M235.4,119.6c0.8-0.4,0.8-1.3,1.1-2.1c1,4.9-0.5,7.8-5.2,10.3c-0.3-0.3-0.6-0.6-1-0.8
			C231.7,124.3,234.1,122.4,235.4,119.6z"/>
		<path class="st185" d="M111.2,44.3c-0.5,1.7-2,1.7-3.3,2.1c-1.2,0.3-2.6,1-3.5,0c-0.8-0.9,0.1-2.2,0.6-3.1c0.9-1.7-0.3-4,1.5-5.2
			c1.1-0.8,2.6-1,3.9-0.2c1.6,1.1,0.9,2.3,0.1,3.5c-0.3,0.5,0.2,1,0.6,1.4C111.7,43.2,111.7,43.8,111.2,44.3z"/>
		<path class="st186" d="M118.8,41.6c0.9-1.1,1-2.8,2.8-3.6c1,2.2-1.2,4.1-0.1,6.2c2.3-1.3,0.9-4.9,4.4-6.6
			c-1.3,3.6,0.5,7.2-3.1,8.8c-2,0.9-4.2,0.2-4.7-2.6c-0.6-0.1-1.1-0.5-1.4-1.1c-0.2-0.6-0.2-1.2,0.2-1.8
			C117.7,40.3,118.2,41.2,118.8,41.6z"/>
		<path class="st90" d="M96.8,46.6c3.6-8.3,3.6-8.3,5.8-8.9c0.1,2.6,1,5.5,0.2,7.7C102,47.6,98.7,44.2,96.8,46.6z"/>
		<path class="st187" d="M118.8,41.6c-0.6-0.3-1.1-0.5-1.7-0.8c-0.8,0.2-1.6,0.8-1.5,1.5c0.1,0.9,1,0,1.5,0.2
			c0.3,0.4,0.6,0.8,0.9,1.2c-2.8,3.9-3.6,4-6.7,0.6c0-0.5,0-1.1-0.1-1.6c1.1-0.4,1-1.5,1.4-2.4c0.9-1.7,2-3.2,4.1-2.8
			C118.7,38,119,39.8,118.8,41.6z"/>
		<path class="st1" d="M235.4,119.6c0.2,3.8-2.3,5.7-5,7.4c-1.4-0.3-3.5,1.2-4.2-0.9c-0.6-1.9,0.9-3.4,2.4-4.5
			C230.5,120,232.8,119.3,235.4,119.6z"/>
		<path class="st13" d="M117,42.5c-0.7,0.9-0.8,2.7-2.4,2.3c-1.2-0.3-1-1.6-0.6-2.5c0.5-1.3,1-3.3,3-1.5C117.1,41.4,117,42,117,42.5
			z"/>
	</g>
</g>
</svg>
