<?xml version="1.0" encoding="utf-8"?>
<!-- Generator: Adobe Illustrator 23.1.0, SVG Export Plug-In . SVG Version: 6.00 Build 0)  -->
<svg version="1.1" id="Capa_1" xmlns="http://www.w3.org/2000/svg" xmlns:xlink="http://www.w3.org/1999/xlink" x="0px" y="0px"
	 viewBox="0 0 308 564" style="enable-background:new 0 0 308 564;" xml:space="preserve">
<style type="text/css">
	.st0{fill:#F5F5F5;}
	.st1{fill:#ECECEC;}
	.st2{fill:#EAEAEA;}
	.st3{fill:#F1F1F1;}
	.st4{fill:#9C0303;}
	.st5{fill:#E7E7E7;}
	.st6{fill:#FDFDFD;}
	.st7{fill:#E5E5E5;}
	.st8{fill:#9B0000;}
	.st9{fill:#020202;}
	.st10{fill:#FC3434;}
	.st11{fill:#010101;}
	.st12{fill:#FB3332;}
	.st13{fill:#040404;}
	.st14{fill:#4B4C4B;}
	.st15{fill:#030303;}
	.st16{fill:#FB3333;}
	.st17{fill:#121212;}
	.st18{fill:#FEF920;}
	.st19{fill:#070707;}
	.st20{fill:#FEF820;}
	.st21{fill:#D5D5D5;}
	.st22{fill:#DFDFDF;}
	.st23{fill:#0C0C0C;}
	.st24{fill:#4A4B49;}
	.st25{fill:#050505;}
	.st26{fill:#090909;}
	.st27{fill:#FEF921;}
	.st28{fill:#FB3533;}
	.st29{fill:#060606;}
	.st30{fill:#DEDEDE;}
	.st31{fill:#4F5050;}
	.st32{fill:#4C4F4F;}
	.st33{fill:#4A4A49;}
	.st34{fill:#FC3433;}
	.st35{fill:#0C0B0B;}
	.st36{fill:#FA3332;}
	.st37{fill:#D8D8D8;}
	.st38{fill:#252525;}
	.st39{fill:#F73533;}
	.st40{fill:#4D4C4A;}
	.st41{fill:#FEF822;}
	.st42{fill:#FA3230;}
	.st43{fill:#757575;}
	.st44{fill:#E2E2E2;}
	.st45{fill:#262626;}
	.st46{fill:#4A4A48;}
	.st47{fill:#9D9C9C;}
	.st48{fill:#9C9C9C;}
	.st49{fill:#2F2F2F;}
	.st50{fill:#F44847;}
	.st51{fill:#D9D9D9;}
	.st52{fill:#D2D2D2;}
	.st53{fill:#C5C5C5;}
	.st54{fill:#C2C2C2;}
	.st55{fill:#A8A8A8;}
	.st56{fill:#F3C5C3;}
	.st57{fill:#CFCFCF;}
	.st58{fill:#2B2B2B;}
	.st59{fill:#ADADAD;}
	.st60{fill:#C1C1C1;}
	.st61{fill:#D3D3D3;}
	.st62{fill:#C4C4C4;}
	.st63{fill:#C0C0C0;}
	.st64{fill:#7A7A7A;}
	.st65{fill:#C7C7C7;}
	.st66{fill:#D1D1D1;}
	.st67{fill:#D0D0D0;}
	.st68{fill:#EE484D;}
	.st69{fill:#494949;}
	.st70{fill:#E2E3E4;}
	.st71{fill:#404040;}
	.st72{fill:#CECECE;}
	.st73{fill:#CBCBCB;}
	.st74{fill:#CCCCCC;}
	.st75{fill:#EE5A4E;}
	.st76{fill:#FC595A;}
	.st77{fill:#343434;}
	.st78{fill:#A0A0A0;}
	.st79{fill:#CDCDCD;}
	.st80{fill:#464646;}
	.st81{fill:#201614;}
	.st82{fill:#CACACA;}
	.st83{fill:#8E8E8E;}
	.st84{fill:#FC505D;}
	.st85{fill:#383838;}
	.st86{fill:#A4A4A4;}
	.st87{fill:#737B79;}
	.st88{fill:#8E3633;}
	.st89{fill:#DB3B44;}
	.st90{fill:#BABABA;}
	.st91{fill:#482121;}
	.st92{fill:#5A2526;}
	.st93{fill:#BEBEBE;}
	.st94{fill:#5D5D5D;}
	.st95{fill:#C8C8C8;}
	.st96{fill:#A1A1A1;}
	.st97{fill:#B6B6B6;}
	.st98{fill:#633C3B;}
	.st99{fill:#834B4A;}
	.st100{fill:#461F1F;}
	.st101{fill:#BDBDBD;}
	.st102{fill:#533232;}
	.st103{fill:#433636;}
	.st104{fill:#5B3637;}
	.st105{fill:#B4B4B4;}
	.st106{fill:#B7B7B7;}
	.st107{fill:#B5B5B5;}
	.st108{fill:#959595;}
	.st109{fill:#B8B8B8;}
	.st110{fill:#F2F2F2;}
	.st111{fill:#0A0A0A;}
	.st112{fill:#3B3B3B;}
	.st113{fill:#A9A9A9;}
	.st114{fill:#BFBFBF;}
	.st115{fill:#DAD6D6;}
	.st116{fill:#919191;}
	.st117{fill:#1A1A1A;}
	.st118{fill:#1D1D1D;}
	.st119{fill:#171717;}
	.st120{fill:#1E1E1E;}
	.st121{fill:#202020;}
	.st122{fill:#3F3F3F;}
	.st123{fill:#563F3F;}
	.st124{fill:#F4F4F4;}
	.st125{fill:#EBEBEB;}
	.st126{fill:#434343;}
	.st127{fill:#ECEDEB;}
	.st128{fill:#EDEAE5;}
	.st129{fill:#FCFCFC;}
	.st130{fill:#E3E3E3;}
	.st131{fill:#B9B9B9;}
	.st132{fill:#FDFCFB;}
	.st133{fill:#FCFBFB;}
	.st134{fill:#FE5851;}
	.st135{fill:#FE534A;}
	.st136{fill:#E2885F;}
	.st137{fill:#FDE5E2;}
	.st138{fill:#BCBCBC;}
	.st139{fill:#F2DCC9;}
	.st140{fill:#FE5C59;}
	.st141{fill:#0C0503;}
	.st142{fill:#FE3052;}
	.st143{fill:#8F8F8F;}
	.st144{fill:#676767;}
	.st145{fill:#4B4B49;}
	.st146{fill:#4B4B4B;}
	.st147{fill:#4A4A4A;}
	.st148{fill:#4D4D4C;}
	.st149{fill:#DCDCDC;}
	.st150{fill:#242424;}
	.st151{fill:#292929;}
	.st152{fill:#2D2D2D;}
	.st153{fill:#131313;}
	.st154{fill:#161616;}
	.st155{fill:#2C2C2C;}
	.st156{fill:#FE5248;}
	.st157{fill:#DBDBDB;}
</style>
<g>
	<path class="st0" d="M0.1,281.6c0-92.8,0-185.5-0.1-278.3C0,0.6,0.7,0,3.7,0c100.2,0.1,200.4,0.1,300.6,0c3,0,3.7,0.6,3.7,3.3
		c-0.1,185.8-0.1,371.5,0,557.3c0,2.7-0.7,3.4-3.7,3.3c-100.2-0.1-200.4-0.1-300.6,0c-3,0-3.7-0.6-3.7-3.3
		C0.1,467.6,0.1,374.6,0.1,281.6z"/>
	<path class="st1" d="M214.1,403.5c1.3-3.1-0.8-5.2-4.9-8.2c6.4,1.7,10.5,2.9,14.6,3.9c0.9,0.2,2.5,1.4,3-0.4c0.4-1.5-0.8-2.5-2.2-3
		c-2.4-0.8-7.4-0.1-6.6-2.7c0.9-2.9,5,0.1,7.7,0.3c1,0.1,2.1,0,4.9,0c-3.7-1.5-7.6-1.9-3.7-5.4c-2.3-0.3-4.3,0.4-5.9-1.1
		c-1.4-1.3-1.1-2.8-0.9-4c0.2-1.4,1.9,0.2,2.6-0.2c2.5-1.6,6.4-3.1,6.8-5.2c0.5-2.7-2.3-3.7-5.9-2.6c-1.5,0.4-3.9-1.7-5.9-2.7
		c-0.2-0.1,0-1.3,0.1-1.3c1.8-0.1,3.7-0.2,5.5,0c0.7,0.1,1.4,0.7,2.2,1.2c0.8-3.6-8.6-2.7-4.2-8.7c-0.5-0.7-1.8-2.3-3-4
		c1.3-1.3,3-0.8,4.5-0.8c10.4,0,20.8,0,31.2,0c3.6,0.5,7.1,1.7,10.8,2.2c1.6,0.2,2.2,0.3,2.1-1.3c-4.1-1.5-8.4-0.1-12.5-0.9
		c-1.1-0.2-2.5,0.3-3.3-0.9c-2.2-1.7-2.6-6.5-7.9-2.5c-2.4,1.8-5-2.1-7.2-4.1c1.6-1.2,7.6,4,4.7-2.7c1-1.4,2.2,0.7,3.2-0.1
		c1.6,0.6,2.9,2.9,4.8,1.5c2-1.5,0-3.1-0.7-4.5c-1.7-3-1.6-6.2-0.9-9.4c4.1,0.6,2.1,4,3.6,5.6c0.4-0.6-0.5-1.8,0.4-2.7
		c0.5,0,1,0,1.6,0c0.5,0.4,0.8,0.9,0.9,1.5c-0.1-0.6-0.4-1.1-0.9-1.5c0.2-2.1,1.6-2,3.1-1.1c4.4,2.4,5,0.5,5.1-3.2
		c0.1-2.8-0.4-6.2,3.1-8.1c1.5-0.4,1.4,1.2,2.4,1.4c6,5-1.9,5-3.3,7.3c-2.1,4.6-2.1,9.2,0,11.6c0.2,3,1.4,5,4.9,6.2
		c2.1,0.7,5.2,1.5,5.2,5.1c0,2,2.9,3.1,5.4,2.5c2.3-0.5,4.9-1,4.5-4c-0.3-2.3-0.5-4.5-0.8-6.8c3.3,0.6,3.1,3.2,3.5,5.3
		c0.4,2.4,0.2,4.8,1.8,6.9c0.3,1.2,2.8,1.7,1.7,3.2c-1,1.3-2.9,1.4-4.3,0.7c-3.2-1.6-5.4,0.5-7.9,1.9c1.4,1,3.6,2.2,1.4,4.5
		c-0.9,0.8-1.8,1.3-2,2.7c-0.6,3.2-2.5,5.9-5.9,7.4c-0.4,0-0.7,0-1-0.2c0.5,0.6,1.1,0.3,1.7,0.3c1.1-0.3,2.2-0.3,3,0.6
		c2,2.5,4.7,4.2,7.4,5.8c-0.4-1.4-2.8-0.9-3.2-2.4c-0.8-1.8-1-3.7-1.3-5.6c-0.3-1.9,0.8-2.9,2.2-3.9c1.4-1,2.6-0.5,3.9,0.3
		c1.2,0.8,2.5,1.3,3.8,1.1c-0.2,0,0.6,0,0.4,0c-4-0.8-8-1.4-9.1-5.8c2.8-3.2,3.2-3.3,7-1.2c1.7,0.9,3.5,1.7,4.3,3.5
		c3.7,5.2,1.1,11,1.9,16.5c0.3,2.5,0.6,5.3-1,8c-0.7,1.1-1.2,1.7-2.5,1.7c-0.7-0.4-0.6-1.4-1.5-1.5c-0.2,1.1,1.2,0.9,1.5,1.5
		c-0.2,1.7,0.8,2.7,2.2,3.6c1.6,1.1,1.2,2.7,0.9,4c-0.5,1.8-1.6,0.2-2.5,0.1c-1.1,0-2.3,0.3-2.5,1.4c-0.2,1.4,1.2,0.9,2,1
		c3.3,0.3,3.2,3,3.7,4.9c0.4,1.6-0.7,3.1-3,2.8c-0.8-0.1-1.3,0-1.1,0.9c0.2,1,3.5,1.9,0.9,2.7c-1.1,0.3-4.3,2.5-6.2-0.9
		c-0.8-1.3-4.5-4.1-6.9-0.2c-0.5,0.8-1.3,0.7-1.9-0.1c-0.8-1.1-1.8-1.4-2.9-0.3c-1,1-2.5,1.7-2.5,3.5c0,1,3.8,1.8,0.4,2.7
		c-1.8,0.5-4.6,1.2-5.6-1.8c-0.6-1.9-2.1-3.3-4.2-3.6c-2.6-0.4-6.3-1.5-4.5,3.3c0.7,1.9-0.4,2.7-2.2,2.9c-1.7,0.3-3.2,2.8-5.1,0.2
		c-0.6-0.8-0.6-2.5-2.4-1.7c-1.6,0.8-4.2,0.9-3.7,3.5c-3.8,1.9-10.6,1.7-13.1-0.5c5.3,0.4,9.6-2,14.1-4c0.6-0.3,1.5-0.9,1.5-1.5
		c0.1-1.2-1.3-0.8-1.9-1.3c-2.5-1.6-6.6-2.3-4.6-6.5c0.2-0.5,0-1.9-0.3-1.9c-5.5-1-3.3-6.8-7-8.9c1.1-1.3,2.7-0.8,4.1-0.8
		c9.9,0,19.7,0,27,0c-11.8-0.1-26.2,0.1-40.5-0.1c-0.4-0.1-0.8-0.1-1.1-0.4c-1.4-1.5-1.6-1.5-2.4,0.1
		C215.5,404.3,214.7,404.3,214.1,403.5z"/>
	<path class="st2" d="M287.1,362.9c-2.7-1.4-2.2-3.8-2.4-6c-0.1-2.6-0.4-5.1-2.5-7.1c-1.9,0.1-3.7,0.3-2.5,2.7
		c0.4,0.8,0.9,1.8-0.4,2.1c-0.7,0.2-2.4-0.5-2.4-0.6c0.3-2.4-7.5-1.7-2.7-6c0.8-0.7-2.1-1.6-3.4-2.3c-0.6-0.3-1.1-0.9-1.6-1.4
		c0.4-0.2,0.8-0.7,1.2-0.7c5.6-0.2,6.8-1.7,5.7-7.5c-0.1-0.3,0.1-0.7,0.3-1.3c2.7,1.7,4.1,3.3,2.2,6.2c-0.8,1.2-0.3,2.7,0.7,3.7
		c0.3,0.4,1.3,0.6,1.7,0.5c1.7-0.7,1.3-2.2,1.3-3.5c0-2.4,0.3-4.9,0-7.3c-0.4-3.2-0.4-5.7,4.7-3.5c-0.9-2.3-1.7-3.9-2.1-5.6
		c-0.4-1.6-1.6-2.1-3.1-2.4c-1.6-0.2-2.5,0.4-2.7,1.9c-0.2,1.1-1,1.8-2.3,1.5c-1.5-0.4-1.8-1.4-1.2-2.6c1.1-2.5,0.2-4.4-2.2-5.5
		c-2.4-1.2-3,0.4-3.1,2.2c0,0.1-1.1,0.1-1.2,0.1c-1.6-4.9-7-6.5-10.9-7.8c-5-1.6-8.9-6.2-15-5.1c-1.2-0.8-0.7-1.8-0.6-2.8
		c-0.9,2.9,0.3,5.7,0.6,8.3c0.1-0.9-0.6-2.2,0.6-3.2c4.5,1.5,1.4,4.8,1.2,6.6c-0.3,2.1-0.7,4.4-1.9,6.7c-0.7-4.4-9.6-6.8-3.1-13.2
		c0.4-0.4-1.3-5.8-4.3-7.8c-1.2-0.8-3-1.5-1.7-3c1-1.3,1.8-3.7,4.4-3c2.2,0.6,3.5-0.2,3.8-2c0.4-2.3-2.1-2.2-3.3-2.2
		c-3.6,0.2-5.4-2.8-8.5-3.6c-1.9-0.5-0.3-2.5,0.6-2.7c6.5-1,8.6-4.6,8-10.1c0.4,0.3,0.7,0.6,1,1c-0.3-0.4-0.6-0.7-0.9-1
		c-0.5-1.2-0.9-2.6-1.7-3.7c-1.1-1.6-2.5-3.6-1-4.9c1.6-1.5,2.1,1.5,3.5,1.7c2,0.4,5.1,1.5,4.8-2.1c-0.4-4.4,5.1-5,5.7-8.5
		c0.2-0.3,0.5-0.3,0.9-0.2c0.7,0.9,1.1,1.9,1.5,2.9c0.4,1.9-0.7,2.9-2.6,3.4c-0.7,0.2-1.8,0.4-1.6,1.3c0.2,1,1.4,0.8,2.3,1.1
		c0.8,0.1,1.5,0.3,2,0.9c-2.7,1.6-5.3,3.5-8.2,4.8c-2.6,1.2-3.8,2.3-1.3,4.5c0.8,0.7,0.4,2.5,2.1,2.2c2-0.4-0.1-2.2,1.2-3.3
		c0.9,0.7,2.2,1.3,2.4,2.1c1.6,6.9,7.1,7.4,13.2,7c1.5-0.1,2.1,0.9,2.9,1.6c1.8,1.4,3.6,0.7,4.5-0.5c1.4-2.1-1.3-1.5-2.1-1.7
		c-3.2-1.1-0.2-2.3-0.3-3.4c-0.2-1.3,0.8-1.6,1.8-2.1c1.2-0.4,2.4-0.4,3.6,0c1.4,0.5,2.4,1.4,3.7,2c3.5,1.7,6.7,1.8,9.9-0.7
		c0.7-0.6,1.6-1.4,2.8-0.6c0,1.9,0,3.9-0.1,5.8c0,0.8,0,2-1.3,1.9c-10.7-0.8-5.8,7.1-7.1,11.2c-0.8,2.4,0.8,5.4,1.3,8.1
		c0.1,0.5,0,1.1,0.3,1.4c9.6,8.1,9.8,8.1,9.1,19.9c-0.2,3.9,0.1,7.6,0.6,11.4c0.2,1.5,1.2,4.3-2.5,4.5c-0.3,0-0.5,0.4-0.8,0.6
		c5.1,1.4-1.7,5.8,2.3,7.5c0.2,0.1,0.4,0.9,0.3,0.9c-5.4,3.6,1.1,7,0.2,10.4C289.7,363.8,288.4,363.7,287.1,362.9z"/>
	<path class="st3" d="M200.5,52.5c1,2.8,4.8,5.4,0.9,8.6c-0.1,0.1,0,0.5,0,0.7c0,3.5,8.1,8.9,11.6,7.7c2.9-1,6.6,1,8.9-2
		c1.7,1.3,1.7,2.8,1.5,4.7c-0.5,5-0.2,9.9,1.2,14.9c0.9,3.2-2.5,6.5-0.9,10.1c0.5,1.1,0.1,2.6,0.1,4.1c2-0.3,2.2-1.5,2-2.7
		c-0.2-1.3-1-3.1,0.7-3.4c1.8-0.3,3.9,0.4,5.6,1.1c1.8,0.7,1.5,2.2,1.1,3.8c-0.4,1.5-2.6,3.4-0.2,4.4c2.5,1,2.2-1.7,3-2.9
		c0.6-0.8,2.1-1.4,2.2-0.7c0.8,4.5,6,3.4,8.4,5.8c-3.1,2.2-6.1,4.6-9.5,6.4c-1.5,0.8-1.4-0.9-1.2-1.8c0.3-1.3,1.1-2.5-0.2-4
		c-2.9,3.1-6,3.9-9.3,0.5c-1.1-1.2-2.4-0.4-3.7-0.2c-1.2,0.2-3.1,0-2.5-1.3c2-3.9-1.2-4.6-3.7-6.2c-3.2-2.1-1.7-5.3-1.5-8.1
		c0.1-1.1,1.3-0.7,3.2,2.3c-2.3-2.8,5.5-6.4,0.2-7.6c-4.8-1.1-9.5-12.8-15.7-1.5c-1.5-3,0.4-6.2-0.8-9.2c0.1-1.3-0.4-2.7,0.1-4
		c-0.5,1.5,0.1,3.1-0.1,4.7c0.5,3.9,1.3,7.9-4.1,9.7c-1.3,0.3-2.6-0.2-3.9,0.1c-2.3,0.4-3.8-2.5-6.3-1.4c-0.4,0-0.7,0-1.1,0
		c-1.3-0.2-2.5-0.4-3.8-0.8c-0.3-0.1-0.7-0.3-1-0.5c-1.6-1.3-2-2.8-0.7-4.5c1.8-2.4,3.9-1.1,6.2-0.2c-2.4-2.8-4-3.1-5.9-0.5
		c-1.3,1.8-4.9,2.2-4.1,5.3c-0.3,1.2-1.4,1.4-2.4,1.7c-1.1,0.5-1.1,2.1-2.8,1.9c-0.2-0.1-0.6-0.4-0.6-0.4c-2,2.1-2.1,7.3-0.3,9.4
		c0,2.3,0.4,4.7-2.5,6.1c-0.4,0.1-0.9,0.1-1.3,0.1c-1.5-0.2-3-0.4-4.4-0.9c-2.9-1.1-3.8-2.9-2.4-5.5c2.7-0.5,1.5-1.7,0.5-2.8
		c-0.3-1-0.3-2,0.9-2.7c2-1,2.4-3.1,0.7-4.4c-0.8-0.6-1.9-0.9-2.7-1.5c-0.3-0.2-0.5-0.5-0.8-0.7c-3.7-1.9-2.4-6.2-5.2-8.7
		c-0.2,2.9,1,5.8,0,8.6c-1.4,1.1-2.3,2.8-4.2,3.4c-3.2-4.5-3.6-8.9,0.2-13.4c0.2-0.3,0-1.3-0.4-1.5c-1.3-0.7-1.9,0.3-2.4,1.1
		c-1.4,2.4-3.3,4.4-6.4,4.9c-0.7,0.1-2.7,0.5-2.1-0.5c1.6-2.9,4.2-7.9,5.8-7.7c6.8,0.8,13.1-0.8,19.4-2.1c6.6-1.3,7.5,2.6,9,6.5
		c0.2,0.6,0.3,1.3,0.5,2.2c4.6-4.7,4.9-10.5,7.6-15.8c0,1.3,0,2.6,0,3.9c0.1,2.5-3.5,7.5,4.4,4.4c1.2-0.4,6.7-2.1,9.9,0.3
		c0.6,0.4,1.7,0.5,1.4-0.2c-1.9-4.7,2.6-8.5,1.7-13c-0.1-0.6-0.7-1.2-1.1-1.7c-2.4,0.7,0.8,3.4-2,3.7c-0.3,0-0.9-0.6-0.9-0.9
		c0-2.5,0.1-5.1,3.5-6.1C199.2,51.3,199.7,52.3,200.5,52.5z"/>
	<path class="st2" d="M267.8,206.2c-0.8-2.9-2.2-5.7,1-8.5c0.6-0.5-1.6-1.6-3.3-1.2c-1,0.2-2.6,0.1-3.3-0.5c-1.3-1,0.3-1.9,0.8-2.8
		c1.9-3.3,0.2-5-3.2-6c-0.2-3.6-1.4-7.5,2.3-10.4c2.1,1.2,2.7,0.6,3.2-3.4c6-0.8,7,0.2,5.7,5.5c-0.5,1.9-1.1,3.7-1.5,6.2
		c3.4-2.3,3.1-5.4,4-8c1.4-4.1,2.5-5,7.3-5.2c1.5,0.4,2.9,0.7,3.2-1.4c0.2-1.5-0.5-2.6-2-3.2c-2.4-1-1.7,1.4-2.6,2.1
		c-2.4,0.9-4.7,1.3-6.8-0.5c5.5-4.9,11.7-10,12.9-17c0.6-3.6,1-6.9,2.7-10.1c0.6-1-0.1-2-1.1-2.4c-1.5-0.6-2.8-0.2-4,0.8
		c-1.2,1-2.4,2.8-4.3,1.1c-2.7-2.5,1.4-1.4,1.8-2.6c0.7-2.3,1.4-5.2,5.8-3.7c0.6,0.2,2.6-3.2,5.4-6.6c-2.1,6.7,0.3,11.7-2.5,16.7
		c-1.4,2.5,0.2,5.8-2.1,8.3c-0.2,0.3,0.4,1.6,0.9,1.9c6.5,2.6,1.2,4.7-0.3,7c-0.7,1-2,2.1-1.8,3c0.3,1.5,1.9,0.6,3,0.4
		c1.8-0.4,2.1,0.5,2.1,1.8c0,10.6,0,21.2,0,31.9c0,2.3-1.9,3-3.8,3.6c-3.6,1.2-4.6,3.8-2.5,6.2c3.3,4,0.2,4.2-2.7,5
		c-0.6,0.2-1.1,0.5-1.6,1.1c5-1.6,6.3,4.5,10.7,4c-0.3,0.4-0.5,0.9-1,1.2c-3.1,1.7-13-3-13.3-6.2c-0.1-1.5,1-2.3,2.5-3.1
		c-6.1,4.4-6.1,4.4-8.6,2c0-0.4,0.1-0.7,0.3-1c2.1-3.7,2.1-3.7-2.2-4.7C268.3,207.2,267.9,206.8,267.8,206.2z"/>
	<path class="st4" d="M227.5,429.3c4.4,0.2,8.7,0.3,13.1,0.5c9.6,0.3,19.2,0.8,28.8,0.9c2.6,0.1,3.3,0.7,3.2,3.1
		c-1.7,41.6-3.3,83.2-4.8,124.8c-0.1,2.7-1.5,2.5-3.5,2.4c-50.9-1.6-101.7-3.2-152.6-4.8c-29.2-0.9-58.5-1.9-87.7-2.7
		c-3.5-0.1-4.1-1.1-3.9-4c1.7-41.2,3.3-82.5,4.8-123.7c0.1-2.2,0.7-2.8,3.2-2.8c51.3,1.7,102.5,3.3,153.8,4.9
		C197.1,428.5,212.3,428.9,227.5,429.3z"/>
	<path class="st5" d="M267.8,206.2c0.3,0.3,0.6,0.5,0.8,0.8c1.2,1.8,0.6,4.2,2.4,5.8c2.4,2.7,4.1,0.5,5.9-0.7
		c1.5-1.1,2.8-2.4,4.4-3.7c2.5,3.5-8.7,5.1-1.2,8.3c3.2,1.4,6.2,5.6,10.9,2.7c0,0.7,0,1.5,0,2.2c-1.1,2.2-2,4.3-1.1,6.9
		c0.6,1.5-0.3,3.1-1.6,4.3c-0.6,0.6-1,1.4-1.9,2.3c1-0.8,1.2-1.7,2-2.2c0.8-0.6,1.6-1,2.6-0.3c1.5,7-4.4,10.6-8.9,14.5
		c-3.5,3-8,0-12-0.3c-1.3-0.1-2.9-1.8-3.9-0.4c-1.1,1.5-3.4,3.3-1.9,5.1c2.9,3.3,1.3,5.9-0.5,8.8c-3.4,0-2.1-2.7-3-4.2
		c-1.5,0.2-2.3,1.6-3.8,1.7c-2-0.4-3.9,0.6-5.8,0.4c-0.3,0-0.7,0-1,0c2.7-7.2-1.9-14-8.9-13.2c-0.9-0.4-1-1.4-1.5-2.1
		c0-1.3,0-2.6,0-3.9c2,4,6,3.9,9.5,4.5c1,0.5,0.9,1.5,1.4,2.3c0.5-0.9,0.5-2.1,2-2.3c2.3,1.9,0.4,4.5,1.5,6.6
		c-1.1,1.7-0.5,3.1,0.9,4.3c3.9,0.2,6.7-0.5,5.4-5.1c-0.2-0.7-1.9-3.6,1.7-3.6c2.1-1.4,3.3-3.3,3.9-5.5c0.4-1.4-0.9-0.6-1.4-0.9
		c-0.3-1.1-0.5-2.4-1.1-3.3c-0.5-0.8-1.7-1.3-1.2-2.4c0.6-1.4,1.7-0.5,2.7-0.4c2.1,0,9.3-8.8,8.1-10.1c-1.9-2.1-2.2,1.6-3.8,1.2
		C265.1,218.4,262.8,212.6,267.8,206.2z"/>
	<path class="st6" d="M201.2,40.5c-0.2,0.1-0.3,0.2-0.4,0.4c-1.2,1.1-2.3,1.7-4.1,1c-2-0.8-4.1-0.7-6.1,0c-0.7,0.3-1.6,0.4-2.1,1
		c-2.1,2.5-4.3,3.1-7.4,1.4c-1.1-0.7-2.9-0.5-3.8,0.3c-2.7,2.2-4.1,0.9-5.6-1.2c-1.7-2.4-4.9-2-7.5-2.8c-0.7-2.5-0.9-5.3-3.5-7
		c-0.3-0.2-0.6-0.7-0.4-1c2-2.3,2.1-5.6,4.1-7.5c1.8-1.7,4.6-2.6,7.9-2.9c4.1-0.4,8.7-0.4,12.7-2.1c1.2-0.5,2.3-0.8,3.3-0.1
		c2.8,2,6,1.9,9.1,1.1c2.3-0.6,3.8-0.2,4.7,1.9c1.1,2.6,4,2.9,6.3,4.1c1.4,3,0.2,6.3,1.4,9.4c0.3,0.9-1,1.1-2,1.3
		C205.4,38,202.9,38.6,201.2,40.5z"/>
	<path class="st7" d="M186.9,229.5c-3.6,0.9-1.5,3.2-1,4.6c1.5,3.9,6.2,6.8,2.5,12c-1,1.5,4.8,2.1,4.8,5.2c-1.4,1.4-3.4,1-5.1,1.4
		c-1.9,0.4-3.9,0.7-1.9,3.1c0.7,0.8,0.3,1.8,0.2,2.8c-0.2,1.2-0.5,2.4,0.8,3.3c2.8,3.9,2.5,4.6-2.6,5.5c-0.8,0.1-1.5,0.4-2.3,0.7
		c-3.4,1.6-6.2,4-9.9,5.2c-2.8-0.4-3.3-2.2-3.2-4.4c1.3-0.5,2.1-1.6,3.2-2.4c2.4,0.3,3.5-0.3,2.1-2.6c-0.4-0.7-0.7-1.5-1.1-2.3
		c-0.2-0.7-0.2-1.4,0-2c1.2-2.4,4.1-3.8,4.8-6.5c-2.9,1.5-6.2,0.4-9.1,1.3c-0.4,0-0.8,0-1.2,0c-1.7-1-3.7-1.6-5.1-3.1
		c2.4-1.3,5.4-2.2,4.2-5.8c-0.2-0.6,0.7-2.2,1.3-2.4c2.2-0.6,0.6,1.2,1.2,1.8c0.9,1,1.9,0.6,2.9,0.4c2-0.5,3.9-0.6,5.8,0.1
		c1.7,0.7,3.5,2.7,5.1,1.5c2.4-1.8,4-5,2.8-7.6c-1.8-3.9-3.8-7.6-2.6-12c0.1-0.3-0.9-0.9-1.5-1.4c-1-1.1-1.1-2.3,0.2-3.1
		c1.4-0.8,2.6,0,3.3,1.1C186.8,225.6,188.3,227.3,186.9,229.5z"/>
	<path class="st8" d="M218.9,403.5c17.1,0,34.1,0,51.2,0c0,0.6,0,1.1,0,1.7c-13.6,0-27.2,0-40.8,0c-57.7,0-115.4-0.1-173.1-0.1
		c-10,0-20,0-30.1,0c-1.2,0-2.6,0.6-3.7-0.7c1.4-1.3,3.1-0.7,4.5-0.7c60.9,0,121.8,0,182.8,0c1.5,0,2.9-0.1,4.4-0.1
		c0.8,0,1.6,0,2.4,0C217.3,403,218.1,403,218.9,403.5z"/>
	<path class="st8" d="M255.8,359.3c-12.6,0-25.1,0-37.7,0c-53,0-106.1-0.1-159.1-0.1c-11,0-21.9,0-32.9,0c-1.2,0-2.6,0.6-3.7-0.7
		c1.4-1.3,3.1-0.7,4.5-0.7c72.8,0,145.6,0,218.4,0c1.9,0,3.7-0.1,5.6-0.1c5.6,0,11.2,0,16.8,0.1c0.8,0,2.2-0.5,2.3,0.7
		c0,1.3-1.5,0.5-2.2,0.9C263.8,360.7,259.8,360.4,255.8,359.3z"/>
	<path class="st9" d="M45,171.2c-2.6,4.5-5.3,8.9-7.7,13.5c-1.1,2-2,2.9-4.7,2.5c-3-0.5-2.5-2.3-2.4-4c0-1.1,0-2.3,0-5
		c-2,3.2-3.3,4.9-4.2,6.9c-0.9,2-2.5,1.7-4.2,1.7c-2.4,0-1.9-1.6-2-2.8c-0.4-3.5-0.5-7-1-10.5c-0.4-2.5-0.3-4.3,3.1-4.5
		c3.9-0.2,0.9,2.8,2.2,3.8c1.1,0.7,0.9,1.8,1.1,2.7c1.1-1.7,1.8-3.7,3.7-4.9c2.2-2.1,4.8-3,6.5,0.1c0.8,1.5,0.1,3.6,0.1,5.3
		c4.6-0.5,2.4-9.9,10.2-6C45.9,170.5,45.6,171,45,171.2z"/>
	<path class="st10" d="M235.6,262.3c-3.2-1.2-6.2-0.2-9.3,0.6c-2.3,0.6-4.6,0.6-4.8-2.4c-1.8,0.2-2.2,3.4-4.9,1.9
		c-1.9-2.8-1.2-6-1.7-9c-0.2-1.5,1.3-1.5,2.1-1.6c2.4-0.4,1.8,1.7,2.6,3.1c1.9-2.9,3.9-5.8,6.6-0.7c3.4-3.5,13.2-3.3,15.5,0.1
		c2-0.4,2.1-3.7,4.9-2.8c0.9,0.3,2.1,0.9,0.9,2.2c-1.6,1.5-3.6,2.7-4.4,4.8c-2.3,0.7-0.7,6.2-5.6,3.7c-0.7-2.2,0.5-4.4-0.5-6.6
		c-0.2-0.5-0.9,0.1-0.4,0c0.1,0,0.2,0,0.2,0.1C237.6,258,238.3,260.4,235.6,262.3z"/>
	<path class="st11" d="M229.9,188c-4.3-0.5-8.7-1.7-8.6-7.4c0.1-6.2,7.9-12.5,15.4-12.2c5,0.2,8.4,2.4,8.4,7.4
		C244.9,182.2,237.9,188.1,229.9,188z"/>
	<path class="st9" d="M133.9,111.5c-3.5-0.1-4.5,4.8-8.3,3.6c-1.5-0.5-5.8,2.5-4.4-2.5c0.1-0.4-2.3-0.6-3.5-0.2
		c-2.3,0.8-4.7,1.6-7,2.5c-1.7,0.6-2.9,0.9-2.2-1.5c1-3.7-3.6,0.9-3.3-1.9c0.4-0.6,0.8-1.3,1.6-1.6c4.6-0.9,6.7-3.7,7.2-7.9
		c0.2-2.1,1.2-4.2,1.7-6.3c0.7-2.9,2.1-4.9,5.7-5.1c2.1-0.1,3.1-1.7,4.4-2.9c2.5-0.7,5.1-1.7,6.5,1.4c-0.3,3.1-1.2,6-4.1,8
		c-0.6,0.2-1.2,0.2-1.7,0c-2.6-0.8-3.6,0.7-4.2,2.5c-0.6,1.8-0.8,3.7-1.6,5.5c0,1.5-2.7,3.2,0.2,4.6c2.7,0.2,4.8-1.3,7.1-2.2
		c2.4-0.9,4.8-3.1,7.7-0.7C135.8,108.6,136.9,110.6,133.9,111.5z"/>
	<path class="st12" d="M63.4,258.7c2.3-0.5,1.2-2.7,2.3-3.9c3.3-3.7,6.9-5.7,12-2.9c2.1,1.1,7.1-1.9,5.8,4.3
		c2.8-7.7,8.7-3.6,13.2-4.2c0.5,2.7-2.8,1.9-3.6,3.3c0.9,0.5,2.4,0.8,2.5,1.4c0.4,1.8-2.2,0.8-2.7,2.2c0.9,0.6,3.9,0.7,2.9,1.5
		c-1.6,1.4-5.1,2.9-6.7,2.2c-3.7-1.6,0.6-4.6-0.3-6.7c-3.5,1-2.3,6.6-7.1,6.2c-1.7-0.2-1.1-2.7-1.8-4.4c-4.2,5.3-9.3,6.7-15.5,3.3
		C63.3,260.5,63,259.8,63.4,258.7z"/>
	<path class="st9" d="M186.9,229.5c-0.7-1.5-1.4-3-2.1-4.5c-0.4-0.9,0-2.5-1.8-2.1c-1.9,0.4-0.6,2-0.9,3c-0.3,0.7-0.7,1.3-0.9,2
		c-0.5,1.7-0.6,3.6-3.7,2.8c-3.9-1.1-0.1-3.2-1-4.6c0.2-2.7,0.5-5.5,1.3-8.2c1.5-5.1,1.4-5.1,6.8-5.8c4.4-0.5,3.1,2.9,4,4.8
		c0.6,1.3,0.8,2.8,1.3,4.6c3-3.2,0.3-10.3,8.6-8.9c-1.8,5-3.4,10.3-5.6,15.3C191.9,230,189.7,231.6,186.9,229.5z"/>
	<path class="st9" d="M110.2,221.4c3.3-2.6,0.1-8.3,6.4-8.8c1.9-0.1,2.4-0.2,1.7,1.7c-1.6,4.3-3.3,8.7-4.7,13.1
		c-0.7,2.2-2.6,2.7-4.5,3c-2.4,0.3-1.8-1.9-2.4-3c-1.1-1.9-1.7-4-2.8-6.5c-1.2,3.3-2,6-3,8.6c-0.5,1.3-1.4,2.1-3.3,1.4
		c-1.8-0.7-1.5-1.6-1.1-2.9c1.1-3.5,2.4-7,2.9-10.5c0.6-3.6,2.4-5.4,6.4-5.2c3.9,0.2,2.2,3.5,3.2,5.2
		C109.8,218.5,109.9,220,110.2,221.4z"/>
	<path class="st9" d="M109.8,179c1-3.5,1.8-5.5,2.2-7.6c0.6-3.1,3.6-2.8,5.3-2.5c1.7,0.3,0,2.2-0.3,3.3c-1.1,3.6-2.7,7.1-3.7,10.7
		c-0.7,2.4-2.3,3.6-4.7,3.7c-2.7,0.2-2-2.3-2.8-3.6c-1-1.7-1.5-3.5-2.6-6.1c-1.2,3.5-1.9,6.1-3,8.6c-0.5,1.1-1.3,2.3-3.3,1.5
		c-2-0.7-1.6-1.7-1.1-3.1c1.1-3.4,2.3-6.7,2.8-10.2c0.6-3.5,2.2-5.4,6.3-5.3c4.1,0.1,2.3,3.4,3.3,5.1C109,174.7,109,176.2,109.8,179
		z"/>
	<path class="st10" d="M112.3,253.6c4.6-2.9,9.2-5.1,13.5,0.7c1.1-0.7,0.9-3.2,3.5-2.6c2.6,0.6,2.1,2.8,2.9,4.4
		c2.7-0.9,1.7-6.7,6.8-4.2c0,2.1-0.3,4.1,0.3,6.3c0.4,1.4,0.8,3.1-1.2,4.1c-3.1-1.1-7.1,2.2-9.5-1.7c-1.3,1.9-2.8,3.1-4.6,0.4
		c-0.5-0.7-1.1-0.4-1.6,0c-2.4,1.9-5.1,2.1-8,1.4C108.8,260.3,110.9,256.9,112.3,253.6L112.3,253.6z"/>
	<path class="st13" d="M60.2,30.6c0.3,4-1.6,7.2-5.3,9.1c-3.6,2-3.1,3.6-0.3,5.7c0.5,0.4,0.8,1.1,1.2,1.7c-0.6,0.2-1.3,0.6-1.7,0.5
		c-8.8-4.2-18.3,0-27.3-1.9c-6.5-1.3-13.7-1.9-14.6-9.8c-0.8-7,4.4-13.3,13.2-15.6c7.4-2,15.2-2.8,22.9-1.9
		C55.8,19.2,60.2,23.8,60.2,30.6z"/>
	<path class="st14" d="M41,389c1.5-2.4,3.5-4.6,4.3-7.2c0.9-2.6,2.3-4.6,4.9-4.1c2.6,0.5,0,3.2,1.1,5.1c0.5-1.2,1-2.3,1.3-3.4
		c0.6-1.9,2.7-1.7,3.9-1.8c2-0.1,0.7,1.6,0.8,2.5c0.2,2.4,0.3,4.8,0.5,7.9c2.8-2.3,3.6-5,4.2-7.5c0.6-2.7,2.7-3.4,4.9-3.2
		c2.5,0.3,0.8,2.4,0.7,3.4c-0.2,2.6,1.4,4.8,1.1,7.5c-0.2,2.2-1.9,1.6-2.8,2.3c-2.6-5-5.3,0.3-8.1,0.1c-6.8-0.4-2.4-4.8-3.6-7.1
		c-2.9,1.7,0.3,7.7-5.2,7.1c-2.2-0.2-0.4-3.8-1.3-6.2c-1,1.8-1.5,3.7-2.7,4.9C44.3,389.9,42,392.5,41,389L41,389z"/>
	<path class="st9" d="M166.9,229.6c-9.2,3-3.8-3.1-4.2-5.6c-3.7,1-4.1,1-4.7,4.2c-0.5,3-2.7,3.1-4.9,2.7c-2.7-0.6-0.5-2.4-0.3-3.4
		c0.7-3.9,2.1-7.8,2.8-11.7c0.5-3.3,2.4-4.6,5.5-3.6c3,1-0.1,2.9,0.1,4.4c0.1,1-0.4,2.1-0.5,2.9c6.1,0.4,3.2-9.6,10.9-7.4
		c1,3.7-0.8,7.1-1.7,10.6C169.2,225,169.4,227.8,166.9,229.6z"/>
	<path class="st15" d="M262.1,176.9c-2.3,3.2,0.3,7.3-2.3,10.4c-1.7,0.1-4.1,2.6-4.7-1.3c-0.2-1.3-1.4,0.1-2.1,0.4
		c-4.9,2-7.6,0.4-7.8-4.5c-0.1-4.2,1.7-8.1,3.4-11.8c1-2.4,3.7-1,5.8-1.9c-1.4,4-2.7,7.6-3.8,11.1c-0.2,0.8,0.1,2.2,0.7,2.6
		c1.3,0.8,2.1-0.4,2.9-1.2c2.6-2.5,3.2-5.9,3.8-9c0.5-3.1,2.9-4.1,5.1-3.5c2.1,0.5-0.3,2.5-0.2,3.9
		C262.9,173.6,262.4,175.2,262.1,176.9z"/>
	<path class="st9" d="M204.4,223.7c1.2-2.9,7.5-4.7,10.6-2.8c0.4,0.2,0.6,1,0.4,1.4c-1.5,4.4-4.7,7.3-9.6,8.4
		c-3,0.7-6.1,0.3-7.9-2.2c-2.6-3.8-1.2-7.5,1.3-10.9c4.2-5.7,11.3-7.1,17.9-3.7c-2.1,1.8-3.8,3.4-7.5,2.7c-4.9-1-8,3.3-6.6,8.5
		C205.4,226.1,203.4,223.8,204.4,223.7z"/>
	<path class="st16" d="M186.8,262.3c-1-0.1-3.3-0.7-2.1-1.3c5.4-2.4-7.1-8.1,2.3-9.1c2.1-0.2,4.2-0.4,6.3-0.6
		c2.3,0.2,5.6-1.1,5.2,3.4c0.5-5.7,4.4-2.6,6.9-2.8c0.8-0.1,1.3-1.2,2.3-0.5c0.9,0.1,2.5,0.6,2.2,0.8c-3.1,1.5,0.1,5.6-3.2,6.9
		c0.9,0.4,3.3,0.8,2.5,1.4c-2,1.7-4.8,2.2-7.7,1.8c-1.3-1.2-3,0.7-4.3-0.4c-0.8-0.1-1.7-0.6-2.3,0.4c-0.6,1.3-1.6,1.5-2.9,1
		c-1.3-0.5-1.7-1.4-1.6-2.6c0.1-1.3,0.6-2.5,0.8-4.2C189.1,258.3,190.2,261.7,186.8,262.3z"/>
	<path class="st17" d="M82.6,32.2c-0.6-0.4-1.8-0.7-1.8-1.1c0-1.1,1.1-1.2,2-1.2c4.7,0,9.4,0.1,4.3-5.9c-1.4-1.6,0.3-1.8,1.6-1.4
		c2.2,0.5,4.3,1.1,7.1,1.9c-1.1-2.6-2-4.6-3.1-7.2c4.7,1.8,9.1,3.9,12.1-1.2c0.5-0.9,1.7-1.1,2,0.1c1.4,5.9,5.3,3.8,9.1,2.5
		c3-1.1,6.2-2.9,5.3,2.8c-0.4,2.6,2.6,0.7,3.9,1.2c1.1,0.4,4.3-0.9,2.7,1.6c-2.5,4.1,0.7,3.9,3.1,4.7c1.8,0.6,4,0.2,5.4,1.8
		c-1.6,1-3.2,2-4.7,3c-0.4,0.3-0.9,0.6-1.4,0.7c-5.5,1.5-6.7,4.6-4.6,9.3c0.4,0.8,0,2-0.1,3c-0.9-0.4-2-0.6-2.7-1.2
		c-2.3-2-3.3-0.8-4.8,1c-0.9,1-0.6,4.7-4,2.5c-0.3-0.6,0-1,0.3-1.5c1.4-1.3,2.3-3,3.6-4.3c0.9-0.9,1.9-1.2,3.2-1
		c1,0.2,1.7-0.2,1.5-1.1c-1.1-5,2.5-7,6.6-8.6c0.5-0.2,1-0.4,1.3-0.8c0.1-0.1,0.1-0.2,0.1-0.3c-4.1-1.6-4.7-1.5-6.4,1.8
		c-0.4,0.8-0.7,1.6-1.3,2.2c-0.6,0.6-1.3,1-2.1,0.7c-0.9-0.3-1.1-1-1-1.8c0.5-3.1-1.1-7.2,4.8-8.2c-3.1-1-6.2-1.2-6.5-4.7
		c-0.1-0.8-1.7-0.3-2.5,0c-3.4,1.2-6.4,2.3-9.9-0.6c-1.7-1.5-5.7,1.4-6.1,2.6c-1.5,4.3-4.3,4.1-8,2.9c1.4,5.5,1.2,5.7-6.8,6.3
		C84,32.1,83.3,32.6,82.6,32.2z"/>
	<path class="st9" d="M167.7,102.1c0.3-0.1,0.5-0.1,0.7,0.1c1,0.5,2.4,0.4,3,1.5c0.4,0.9,0.3,1.9,0.2,2.8c-0.1,0.8-0.9,1.8,0.4,2.2
		c1.3,0.4,2.3-0.4,2.8-1.5c0.6-1.5,0.8-3,1.1-4.6c0.3-1,0.2-2.4,1.5-2.7c1.5-0.4,2.3,0.9,3,1.9c1.6,2.5,3.9,4.7,3.7,7.8
		c-0.1,0.3-0.4,0.6-0.7,0.7c-2.6,0.3-2.6,2.7-4,4c-2.1,0.2-4.2,0.3-6.3,0.5c-0.6,0-1.8,0.1-1.8,0c-1.9-7.9-7.4-1.3-11-2
		c-2.3-0.5-5.1,0.9-7.6,1.8c-3,1.2-3.8,0.3-3.5-2.4c-0.6-0.5-1.4-1-0.8-1.9c2.9-2.2,6.5-2.7,10-3.2c2.8-0.5,5.5-0.7,6.7-3.6
		C165.5,102.7,166.6,102.4,167.7,102.1z"/>
	<path class="st15" d="M214.4,167.8c5.8-0.1,7.5,2.3,5,6.5c-0.3,0.5-0.8,1-0.7,1.4c1.8,6.1-5.5,12.5-13,11.5
		c-1.9-0.3-0.8-1.2-0.7-1.8c1-5.1,2-10.3,3.3-15.3C209.3,166.7,212.8,168.8,214.4,167.8z"/>
	<path class="st18" d="M274.5,22c1.7,1.1,4.6-0.3,5.5,2.3c0,2.3-1.8,3.6-3.3,5.1c-0.6,0.6-2.1,1-1,2.2c0.8,1,2.1,1.5,3.2,2.2
		c0.8,0.6,1.3,1.2,1.1,2.2c-1.1,1.9-2.6,3.5-4.9,4.1c-2.6,0.2-3.4-2.1-4.9-3.2c-1.6,1.5-3.4,2.7-5.8,2.7c-0.6,0-1.2-0.2-1.7-0.4
		c-1.6-1-0.8-2.4-0.7-3.7c0.8-3.5,2-7,3.1-10.4c0.8-2.5,2.5-4.2,5.6-4.3c0.6,0,1.2,0.2,1.6,0.7c0.6,0.9,0.5,1.8,0.2,2.7
		c0.4-0.6,0.5-1.4,1.1-1.8C273.8,22.1,274.2,22,274.5,22z"/>
	<path class="st19" d="M88.7,183.1c-1.9,0.9-4.6,1.8-6.7,3.3c-1.4,1-2.6,1-3.6,0.4c-1.3-0.8,0.2-1.7,0.7-2.4
		c2.9-4.8,6.1-9.4,8.8-14.3c1.3-2.2,3.3-2.6,5.3-2.2c2.1,0.4,0.9,2.5,1,3.7c0.2,3.6,0.1,7.3,0.2,10.9c0,2.1,0.5,4.3-3,4.3
		C87.9,186.8,91,184,88.7,183.1z"/>
	<path class="st19" d="M95.2,220.8c0,2.4-0.1,4.9,0,7.3c0.2,2.3-1.6,2-3.1,2.5c-2.6,0.7-1.4-1.2-1.5-1.9c-1.1-4.4-3-0.1-4.5-0.3
		c-2.5-0.2-4.5,4.2-6.7,2c-1.5-1.6,1.8-4,2.9-6.1c1.9-3.5,4.4-6.7,6.2-10.2c1.2-2.3,3.4-3,5.5-2.5c2,0.4,0.8,2.5,0.9,3.8
		c0.2,1.8,0,3.6,0,5.5C95.1,220.8,95.2,220.8,95.2,220.8z"/>
	<path class="st13" d="M203.7,177c0,2.4-0.2,4.8,0.1,7.2c0.2,2.4-1.6,2.3-3.2,2.7c-2.5,0.5-1.2-1.3-1.4-2c-1.2-3.7-2.9-0.2-4.3-0.3
		c-2.6-0.1-4.7,4.5-7,2c-1.4-1.4,2-4.2,3.3-6.4c1.9-3.3,4.2-6.4,6-9.8c1.2-2.3,3.4-2.9,5.5-2.5c2,0.4,0.7,2.4,0.9,3.7
		c0.2,1.8,0.1,3.6,0.1,5.4C203.6,177,203.7,177,203.7,177z"/>
	<path class="st20" d="M235.2,39.5c-0.6-0.1-1.3-0.1-1.9-0.2c-1.1-1.5,0.1-2.7,0.6-3.9c0.5-0.8,0.8-1.6,1.3-2.4
		c1.5-2.5,2.9-5.1,3.6-7.9c0.3-1.2,0.8-2.3,2-3c1.2-0.7,2.6-1,4-1.3c2.2-0.4,3.9,0.1,4.1,2.4c0.3,2.5-0.5,5.1,0.8,7.5
		c0.3,0.7,0.6,1.5,0.5,2.3c-0.7,3-0.2,6.8-5.2,7.2c-1.3,0-2.3-0.5-3.1-1.5c-0.8-1.1-1.5-0.5-2.3,0C238.3,39.5,237,40.4,235.2,39.5z"
		/>
	<path class="st21" d="M186.8,262.3c2-1.5,2.3-3.7,2.5-5.6c0.2-2,1.7-1.7,2.8-1.5c1.8,0.3,0,1.5,0.4,2.2c0.8,1.7-4.8,6.1,2.6,5
		c0.3,2.5,2.1,5-0.4,7.4c-0.3,0.3-0.4,1.1-0.4,1.1c-7.6-0.9-11.9,7.1-19.5,6c-0.2-1.5,1.1-2,2.3-2.6c-1.3-0.1-2.6-0.4-3.7-1
		c-0.3,0-0.6,0-0.9,0c3.2-3.5,7.6-6.7,12.1-6.8C190.2,266.2,187.5,264.3,186.8,262.3z"/>
	<path class="st15" d="M171.6,168.3c5.5,0.5-0.8,3.9,1.9,5.2c1.8-1.3,3.8-2.6,5.7-4.1c1.8-1.4,2.7,0,3.6,0.8c1.3,1.2-0.5,1.7-1.1,2
		c-4.8,2.5-7,5.4-2.2,9.8c2.4,2.3-0.8,3.1-2,4c-2,1.5-2-0.7-2.6-1.5c-1.1-1.6-2-3.3-3.1-5c-0.4,0.3-0.7,0.4-0.8,0.6
		c-1.5,2.5,0.2,7.7-4.9,6.7c-2.5-0.5,0.2-4.7,0.8-7.2c0.8-3.8,1-7.7,3.2-11.2C170.6,167.9,171.1,167.9,171.6,168.3z"/>
	<path class="st9" d="M150.4,177.2c0,2.4,0,4.8,0,7.2c0,1.3-0.4,2.1-1.9,2.2c-0.8,0-2.4,0.1-2.4,0c-1-7.8-4.8-0.4-7.1-0.9
		c-0.9-0.2-2.6,2.5-4.3,1.1c-1.8-1.5,0.7-2.7,1.3-3.9c2.4-4.2,5.2-8.1,7.6-12.3c1.2-2.2,3.1-3.2,5.4-2.8c2.6,0.5,0.9,2.8,1.2,4.3
		c0.3,1.7,0.1,3.4,0.1,5.1C150.3,177.2,150.3,177.2,150.4,177.2z"/>
	<path class="st9" d="M78.6,182.1c-2.7,4-5.8,6.5-10.7,4.5c-5-2-5.4-5.9-3.9-10.1c2.1-5.9,9.8-10.1,15.7-8.5
		c1.1,0.3,3.4,0.3,2.8,1.7c-0.6,1.3-1.4,3.7-4.2,2.9c-3.1-0.8-5.5,0.2-7.4,2.4c-1.7,1.9-2.6,4.2-1,6.4
		C72,184.2,75.1,182.7,78.6,182.1z"/>
	<path class="st15" d="M183.1,110.1c0.3,0,0.6-0.1,0.9-0.1c0.2-0.2,0.3-0.4,0.5-0.6c4.2-4.5,4.2-4.5,0.5-9.9
		c-2.3-3.3-2.2-3.8,1.1-6.4c1-0.8,2.1-1.5,3.1-2.3c3.4-2.6,3.3-2.9-0.7-4.9c-0.5-0.3-0.9-0.6-0.8-1.2c3.2-2.9,4.1,1.4,6.2,1.6
		c2-0.1,2.9,1.4,4.1,2.4c0.8,1,1.9,1.8,0.8,3.2c-2.9,2.1-5.8,4.2-8.8,6.1c-2.4,1.5-0.2,2.6,0.3,3.8c1,2.8,5.9,4.2,3.7,8.2
		c-0.7,1.6-2.1,2.6-3.9,3c-2.1,2.2-3.6,1.3-4.8-0.8C184.6,111.5,182.1,112.2,183.1,110.1z"/>
	<path class="st22" d="M70.7,274.7c0,3-0.1,6.1,0,9.1c0.1,3.4-1.5,7.9,5.4,7.3c-0.1-2.5,0.6-5.3,3.5-9.6c-1.1,5.2-1.1,8.9-2.7,11.9
		c-2,3.8-2.6,6.4,1.9,8.8c1.5,0.8,2,2.3,0.9,3.8c-1.4,1.9-2.3,0.3-3.5-0.3c-7-3.2-9.3-7.7-7.5-15c0.9-3.6,0-7.8,0.4-11.8
		C70.3,277.8,68,275.5,70.7,274.7z"/>
	<path class="st15" d="M45,171.2c0.3-0.4,0.5-0.8,0.8-1.2c3.7-0.5,7.3-0.9,11.5-1.5c-1.1,1.7-0.8,3.7-3.2,4.3
		c-1.8,0.4-4.9-0.6-4.7,1.9c0.2,2.4,3.5-0.1,4.9,1.3c-0.3,2.2-1.5,3.6-4.4,3.3c-1.3-0.1-2.4,0.3-2.5,1.7c-0.1,2.1,1.7,0.8,2.6,1.1
		c1.5,0.4,4.3-1.2,4.6,0.7c0.3,2.6-2.2,3.2-5,3.3c-2.5,0-4.9,0.6-7.6,1C42.2,181.7,45.6,176.7,45,171.2z"/>
	<path class="st23" d="M207.4,27.2c-5-4.3-11.1-5.6-17.9-5.8c-4.6-0.1-9.5-1-13.3,1.3c-3.1,1.8-5.7-0.8-9,0.9
		c-4.2,2.2-2.1,7.5-7.4,8.7c3.5,1.9,5.3,4.3,4.7,7.7c0.1,0.6,1.1,0.9,0.6,1.6c-1.8,0.7-3.5,2.1-2.6-1.6c1.1-4.2-2.1-6.1-6.4-7.3
		c2.8-2.2,8.5-2.9,4.9-7.9c2.9-1.4,5.9-2.7,8.8-4c0.1-0.1,0.5,0.4,0.6,0.4c4.8-1.1,10.3-0.2,14.5-2.8c1.7-1.1,2.2-0.1,2.8,0.4
		c3.3,2.5,6.9,2.7,10.4,1c2.5-1.3,3.2-0.5,3.8,1.5c0.8,2.9,3.1,5,6.2,4.7c4-0.4,2.1,1.3,1.6,2.6C208.7,28.7,208.7,27,207.4,27.2z"/>
	<path class="st24" d="M55.2,342.6c1.1-2.2,2.6-4.3,3.3-6.6c0.8-2.4,2.1-4.7,4.9-4.1c2.4,0.5,0,3.1,1.2,4.9c0.5-1.2,0.9-2.3,1.2-3.3
		c0.6-1.9,2.7-1.7,3.9-1.8c1.9-0.1,0.7,1.6,0.8,2.5c0.3,2.2,0.5,4.3,0.6,6.5c0.1,1,1.1,2.2-0.2,3c-0.8,0.5-2,0.5-3.1,0.7
		c-0.2-1-0.5-2-0.6-3c-0.1-1.1,0-2.2,0-3.4c-2.7,1.8,0.1,7.4-5.1,6.8c-2.5-0.3-0.3-3.7-1.5-5.5c-2.2,0.9-0.7,4.7-4.3,4.7
		c-0.6,0.2-1.3,0.4-1.8-0.1C54.2,343.4,54.7,342.9,55.2,342.6z"/>
	<path class="st15" d="M126.3,219.7c2.7-2.6,4.9-4.7,7-6.8c0.9-0.9,1.7-1.3,2.9-0.3c1.2,1,0.9,1.5,0,2.6c-3.8,4.5-9.5,7.9-10.3,14.3
		c-0.2,1.6-2.5,1.3-3.7,1.2c-2-0.1-0.6-1.6-0.3-2.1c1.6-3.7,0.2-7.2-1.2-10.5c-1-2.4-1.2-4.4,2-5c3.4-0.6,1.5,2.5,2.6,3.6
		C125.9,217.3,125.9,218.3,126.3,219.7z"/>
	<path class="st13" d="M155.2,212.2c0,3-1.3,4.7-4.7,4.7c-2.9,0-2.3,2.5-3.1,4c-1.9,3.4,0.1,9.1-7.2,9.8c0.7-2.9,1.4-5.7,2.2-8.4
		c0.6-2.4,2.1-5.2-3-4.1c-1.5,0.3-1.4-0.7-1.2-1.5c0.3-1.4-0.3-3.3,2.4-3.4C145.4,212.9,150.1,212.5,155.2,212.2z"/>
	<path class="st25" d="M272.6,169c2.4-0.2,4.9-0.4,7.3-0.6c1.2-0.9,2.6-1.1,3.3,0.4c0.7,1.6,0.3,3.1-1.8,3.9c-4.4-0.3-6,1.8-7,5.5
		c-0.9,3.3,0.1,8.3-6.7,8.5c0.4-1.6,0.8-3,1.1-4.5c0.8-3.6,4.4-8.1-3.5-8.7C265.1,168.3,269.5,169.5,272.6,169z"/>
	<path class="st26" d="M148.4,110.9c0.3,0.5,0.5,1,0.8,1.4c-2.3-0.8-3.2,1.3-4.7,2.1c-4.8,2.5-7.3-1.1-10.6-2.9
		c1.5-1.6,0.5-3.5,0.8-5.2c1.4,0.1,1.4,0.1,1.8,0.8c0.4,0.9,0.2,2.4,2,2.1c1.6-0.3,2-1.5,2-2.7c0.2-2.9,0.1-5.8,0.1-8.6
		c0-1.3-0.1-2.6,0.1-4c0.1-1.5-0.1-2.9,0.1-4.3c0.2-1.4,0.6-2.5,2.6-2.5c2.3,0,2,1.4,2.1,2.7c0.1,3.1-0.4,6.2,0.3,9.3
		c0.1,1.2,0.1,2.3,0.2,3.5c1,2.4,0.6,5.1,1.8,7.4C148.1,110.3,148.3,110.6,148.4,110.9z"/>
	<path class="st13" d="M127,186.7c0.7-2.5,1.5-4.9,1.9-7.4c0.4-2.2,3.6-6-3-5c-1.5,0.2-0.9-1.1-0.9-1.8c0.1-1.4-0.1-3,2.3-3.1
		c4.9-0.2,9.7-0.6,14.6-0.9c-0.2,2.6-0.9,4.6-4.3,4.6c-3.3,0-3,2.6-3.5,4.4C131.6,185.9,131.7,185.9,127,186.7z"/>
	<path class="st27" d="M225.3,39.5c-2.2-1.4-0.4-3-0.3-4.4c0.1-2.7,3.1-5.5-1-8c-1-0.7-0.3-3.2,2.2-3.7c3.5-0.7,6.9-1.7,10.5-1.4
		c1.6,2.1,1.1,4.3-1,5.3c-3.4,1.6-3.3,4.3-3.6,7c-0.3,4-1.3,5-5.5,5.7C226.1,39.9,225.7,39.8,225.3,39.5z"/>
	<path class="st19" d="M280,38.6c-2.7,8-10.6,12-22.9,10.9c-4.7-0.4-9.1-1.5-13.1,2.1c-1.2,1-3.4,1.2-5.2,1.4
		c-1.2,0.2-3.1,0.7-3.6-0.7c-0.6-1.7,1.5-1.5,2.5-2.1c6.4-3.5,2.3-6.2-0.7-9c-0.1-1.2,0.7-1.6,1.9-1.6c5.5,3,6.1,3.9,5.2,8.9
		c3.1-3.2,6.5-3.2,10.4-2.5c3.6,0.6,7.3,1.3,11,0.5c4.8-1,8.4-3.4,11.2-7C278.7,37.6,278.7,37.6,280,38.6z"/>
	<path class="st28" d="M138,262.3c0.7-3.4-1.1-7,0.9-10.4c1.8,0.7,0.5,2.2,1,3.2c0.6-1.3,0.1-3.2,2-3.7c1.8-0.5,2.6,0.5,3.3,2
		c0.7,1.3,1.2-0.3,1.7-0.5c2.9-1.2,5.7-2.8,8.7-0.1c-0.6,1.3-1.7,1.8-3.3,2c-2.4,0.3-4.4,1.3-4,4.1c0.9,2.7,3.7,0.3,5,1.6
		c-3.8,3.8-5.9,3.7-9.7-0.5C142.4,261.9,141.4,264.5,138,262.3z"/>
	<path class="st29" d="M151.6,186.9c1.1-5.5,2.3-10.9,3.4-16.4c0.4-2,1.8-2.1,3.5-2c2.6,0.2,0.9,1.8,0.8,2.7
		c-0.2,1.8-0.6,3.6-1.1,5.3c-0.9,3.2-1.7,6,4,4.3c0.8-0.2,2.7-1,2.8,0.7c0.1,1.3,0,2.9-2.3,3.2C159.1,185.3,155.5,186.1,151.6,186.9
		z"/>
	<path class="st30" d="M287.1,362.9c1.3,0,2.7,0,4,0c0.1,4-0.2,7.9-1.6,11.7c-1.2-0.7-2.4-1.3-3.6-2c-2.5-1.5-5-3.1-7.6-0.2l0,0
		c1.1-2.6-1-3.4-2.9-4.3c-0.8-0.4-2-0.7-1.2-1.8c0.2-0.3,1.6-0.4,2.1-0.1c1,0.5,2.1,0.7,2.4-0.1c1.4-4.2,4.5-1.5,6.5-1.1
		c1.2,0.2,2.2,0.3,3.3,0C288,364.3,287.5,363.6,287.1,362.9z"/>
	<path class="st31" d="M39.1,338.2c1.8-2.3,0.8-7.3,5.3-6.2c1.5,0.4-1,4.9-1.6,7.5c-0.4,1.7,0.5,4-2.5,4.8c-2.9,0.7-2.3-2.2-4.3-2.8
		c-0.5,1.8-1.9,3.5-4,2.6c-1.8-0.7,0.2-2.5,0.1-3.9c-0.1-0.6,0.2-1.2,0.5-1.7c1.2-2.2-0.1-6.4,3.8-6.2
		C39.5,332.2,37.7,336.1,39.1,338.2z"/>
	<path class="st18" d="M283.7,34.9c-1.7,0-2-0.7-1.7-2.1c1-3.5,1.9-7,2.9-10.5c0.6-2.3,2.7-2.6,4.7-2.5c2.7,0.1,1.4,2.2,1.5,3.4
		c0.2,3,0,6,0,9.1C289.4,35.4,288.5,35.7,283.7,34.9z"/>
	<path class="st26" d="M173.4,212.1c1.8,0,3.6,0.1,5.4,0.1c0.3,4.1-1,7.9-3.1,11.5c-1.2,3.4-1.2,7.7-7.2,7.2
		c-0.6-0.4-0.7-1.1-0.6-1.6c1.1-5.4,2.6-10.7,4-16C172.1,212.7,172.7,212.4,173.4,212.1z"/>
	<path class="st32" d="M55.2,342.6c-0.4,1.1,0.2,1.4,1.3,1.5c-2.2-0.5-5.3,2.4-6.6-1.7c-0.4-1.1-1.7-0.7-2.1,0.2
		c-0.8,1.9-2.6,1.6-4.6,2.3c1.8-4.3,3.2-8.2,5-12c0.8-1.7,3.1-1.7,4.6-1.5c1.5,0.2,0.4,1.8,0.4,2.7C53.2,337,54,339.8,55.2,342.6z"
		/>
	<path class="st33" d="M77,343.6c-6.2,1.9-4.7-0.8-4.4-3.7c0.4-5,1.4-8.9,8.3-7.7c0.8,0.1,2.4-1,2.4,0.7c0,1.1-0.3,2.4-2.3,2.4
		c-1.4,0-3.8-0.6-3.9,1.3c-0.1,1.6,1.9,0.2,2.8,0.6c0.3,0.1,0.6,0.7,0.5,1c-0.1,1.3-1.1,1.3-2.3,1.4c-0.7,0.1-1.3,0.5-2,0.8
		c0.3,0.3,0.6,0.6,1,0.8c1.4,0.4,4.1-1.8,4,1.1C81.1,345.5,77.7,343,77,343.6z"/>
	<path class="st14" d="M41.1,388.9c-2.7,2-6,0.3-8.8,1.3c-0.1,0.1-0.6-0.2-0.6-0.3c0.5-3.6,0.1-7.8,1.9-10.7c1.3-2.1,5.9-1.1,9-1.3
		c0,0.5,0.1,1.1,0.1,1.6c-0.1,1.9-1.7,1.5-2.9,1.6c-1.3,0.1-3.2-0.1-3.2,1.4c0,1.4,1.7,0.3,2.6,0.5c0.4,0.1,1,0.6,1,0.7
		c-0.3,0.6-0.6,1.3-1.2,1.6c-1,0.5-2.8-0.4-3.1,1.4C37.1,388.4,41.3,384.3,41.1,388.9C41,389,41.1,388.9,41.1,388.9z"/>
	<path class="st34" d="M162.8,251.2c2.4,0.1,4.9,0,5.1,3.1c-1.3,2,1,5-2.2,6.5c-2.4,0.6-4.5,2.3-7.2,1.5
		C159,258.4,156.9,253.5,162.8,251.2z"/>
	<path class="st35" d="M272,21.8c-0.3-0.1-0.6-0.3-0.9-0.4c-1.1,0.2-2.1-0.3-3-0.8c-9.7-6-18.9-5.5-27.6,1.6
		c-0.7,0.6-1.3,1.4-2.4,1.6c-1.1-0.1-1.2-0.8-1.1-1.6c8.3-11.4,26.6-11.4,37.5-0.1c-0.2,0.4-0.4,0.7-0.6,1.1
		C272.8,23.2,272.3,22.7,272,21.8z"/>
	<path class="st36" d="M104.3,257.7c0.3,0.8-0.1,1.9,1.3,2.4c1.3,0.5,3.2-1.4,3.9,0.8c0.1,0.3-1,1.4-1.6,1.4
		c-2.3-0.1-4.8,1.9-6.8-0.8c-2.4-3.1-1.6-5.9,1.3-8c3.1-2.3,6.6-3.9,9.9,0c0,0,0,0,0,0c-0.4,0.2-0.7,0.5-1.1,0.7
		C108.6,254.9,105.3,254.3,104.3,257.7z"/>
	<path class="st37" d="M256.5,257.2c1.7-1.2,3.5-2.4,5.3-3.7c1.5,2-1.1,5.1,2.1,6.6c-0.8,4.7-5.5,4.4-9,5.7
		c-0.8-0.7-0.7-1.6-0.5-2.5c0.4-0.9-0.1-1.6-0.4-2.4C253.1,258.9,253.7,257.4,256.5,257.2z"/>
	<path class="st38" d="M82.6,32.2c0.6-0.2,1.2-0.5,1.7-0.7c2.6,1,5.2,2.1,7.3,3.9c0.3,0.3,0.4,0.6,0.6,0.9c0.9,2.8-1.5,5-1.8,7.9
		c2.6,0,4.9-0.9,7.2-1.4c1.9-0.5,3.9-0.7,4.8,1.3c1,2.3,2.1,1.3,3.6,0.5c1.6-0.8,3.3-3.4,5.1-0.2c-0.1,0.6-0.3,1-1.1,0.9
		c-2.7,0.2-3.9,2.3-5.8,3.6c-0.7,0.5-1.5,0.8-2.2,1.3c-0.3-0.7-0.9-1.5-0.9-2.2c0-3-1.4-3.8-4.4-2.6c-0.5,0.2-1,0.3-1.5,0.4
		c-3.1,0.6-6.1,1.1-9.2,1.6c-0.4-3,2.1-5,3.3-7.4c1.4-2.7,0.1-3.6-2.1-4.7C85.5,34.3,84.1,33.2,82.6,32.2z"/>
	<path class="st39" d="M174.1,259.8c0,0.6,0,1.3,0,1.9c-0.1,1-0.9,1.2-1.8,1.4c-0.9,0.1-1.7-0.3-2.3-0.8c0.3-2.7,0.9-5.5-0.9-8
		c0.1-0.7,0.2-1.4,0.4-2.1c3.4,2.2,6.9-1.5,10.4,0.2C178.2,255.1,175.4,257,174.1,259.8z"/>
	<path class="st40" d="M81,389.5c-5.9,1.9-5-0.4-3.8-3.2c1-2.4,1.5-4.9,2.5-7.2c0.3-0.7,1.7-1.6,2.3-1.5c1.6,0.3,0.2,1.6,0.5,2.3
		c1,2.2-5.4,6.5,2.2,6.9c-0.1,0.7,0,1.4-0.2,2C83.7,391.1,81.4,389,81,389.5z"/>
	<path class="st41" d="M280.8,38.2c1.1-0.8,2.2-1.6,3.3-2.4c1.5-1.1,2.9-1.2,4.3,0c0.6,0.7,1.3,1.4,1.9,2.1
		c-0.1,4.3-2.3,5.6-7.3,4.5c-1.9-0.7-2.5-2.1-2.3-3.9C280.6,38.6,280.8,38.2,280.8,38.2z"/>
	<path class="st42" d="M63.4,258.7c0.3,0.8,0.7,1.5,1,2.3c-2.6,0.9-6.9,2.7-7.7,0.6c-1-2.8,0.9-6.5,1.8-9.7c0.1-0.2,1.4-0.6,1.7-0.3
		c1.6,1,1.2,2.8,0.7,3.9C59.4,258.3,60.9,258.7,63.4,258.7z"/>
	<path class="st43" d="M288.7,279.2c-5.4,4.8-10.8,5.1-16.3,0.1c0-0.7,0.3-1.2,1-1.5c4.5,2.9,8.9,3.8,13.5,0
		c0.8-0.7,1.4-2.8,2.8-1.9C291.4,277,288.8,278,288.7,279.2z"/>
	<path class="st44" d="M198.9,91.9c0.6-1.7-1.5-1.7-1.9-2.8c0.6-1-0.5-2.1,0.3-3.1c5.3-1.8,4.1-5.9,4.1-9.6c0.4-0.4,0.7-1.2,1.6-0.5
		c1.1,3.1,0.5,6.2,0,9.4c0.8,2.5-3.9,3.8-1.6,6.6c0.2,0.2,0.2,0.3,0.2,0.5c-0.1,0.2-0.2,0.2-0.2,0.2
		C200.5,92.4,199.7,92.1,198.9,91.9z"/>
	<path class="st45" d="M165.2,41.5c-0.2-0.5-0.4-1.1-0.6-1.6c3.7,0.3,7,1.1,9,4.3c0.7,1.1,1.2,1.2,2.4,0.4c1.1-0.7,3.1-1.7,3.9-1.2
		c4.1,2.2,7,0.2,10.1-1.8c0.8-0.4,1,0,0.9,0.6c-0.9,0.5-2.1,0.8-2.6,1.5c-1.9,2.4-3.7,4.1-6.8,1.2c-0.5-0.5-2.2-0.7-2.6-0.3
		c-4.6,4.2-6.9,0.9-9.6-2.1C168.5,41.7,166.6,41.8,165.2,41.5z"/>
	<path class="st46" d="M70.8,390.3c-0.1,0-0.7,0.1-0.8-0.1c-1-2.2,0.4-4.2,1-6.2c0.6-2,0.1-4.8,3-5.9c0.3-0.1,0.8,0,1.2,0
		c-0.4,3.4-0.9,6.8-1.2,10.2C73.8,390.2,72.2,389.8,70.8,390.3z"/>
	<path class="st42" d="M48.3,262.3c-0.7-3.5,1.2-6.6,1.9-9.9c0.4-1.7,2.1-1.2,3.3-0.9c1.9,0.6,1.3,1.7,0.4,2.7
		c-0.5,1.8-0.8,3.7-1.4,5.5C51.9,261.5,50.9,263.2,48.3,262.3z"/>
	<path class="st47" d="M299.7,291.4c-1.9-0.4-1.3-1.9-1.3-3c0-6-0.1-12.1,0-18.1c0-0.8-1.1-2.9,1.7-2.2c0.6,7.4,0.1,14.9,0.2,22.4
		C300.3,291,299.9,291.1,299.7,291.4z"/>
	<path class="st48" d="M302.4,267.4c2.3,2,2.3,21.9,0,24C301.6,283.5,301.6,275.5,302.4,267.4z"/>
	<path class="st49" d="M160.3,84.1c-0.2,0.1-0.2,0.3,0,0.4c0.1,1.2,2.1,1.4,1.9,2.8c-1.2,1.2-2.5,2.2-4.5,1.5
		c-0.8-0.8-0.7-2.5-2.6-2.3c-1.9,0.2-2.2,1.5-2.4,2.8c-0.7,2.9-1,5.9-1.7,8.8c-0.3,1.4-0.2,3.2-2.2,3.9c-1-0.4-0.7-1.2-0.6-1.9
		c0.6-4.2,1.2-8.4,1.8-12.7c0.3-2.2,1.6-3.6,4.2-3.7C156.3,82.2,158.3,82.5,160.3,84.1z"/>
	<path class="st50" d="M237,22.1c0.4,0.5,0.8,1,1.2,1.5c1.8,2.5,0,4.2-1.6,5.9c-0.7,0.4-1.5,0.4-2.1,0.9c-1.3,2.5-0.8,5.2-1.8,7.8
		c-1.1,2.8-4.1,3.4-6.3,1.4c3.4-0.4,4-2.4,4.6-5.1c0.6-2.8-1.3-7,4.4-7.8c1.5-0.2,1.2-2.9,1.4-4.6C236.7,22,237,22.1,237,22.1z"/>
	<path class="st51" d="M28.9,170.5c-1.2,2.3-2.5,4.7-3.7,7c-0.4-0.1-0.8-0.1-1.1-0.2c0-1.5,0-3.1,0-4.6c2.1-2.6,3.3-5.7,3.8-9.4
		C30.4,166,27.2,168.4,28.9,170.5z"/>
	<path class="st52" d="M251,338.8c0.3,1,0.7,2.1,0.7,3.1c0,1.1,0.7,2.9-1.3,2.8c-1.8-0.1-1.5-1.6-1.3-3.1c0.4-2.2,0-4.3-2.2-5.7
		c0.2-1.8-1.8-3.5,0-5.8C248.5,333.2,249.7,336,251,338.8z"/>
	<path class="st52" d="M175.7,223.7c1-3.8,2-7.7,3.1-11.5c1.8-3.9,3.9,1.2,5.8-0.1c-6.4,0.3-4.8,5.5-6.3,8.8
		c-0.8,1.7-1.2,3.5-1.7,5.2C176.3,225.3,176,224.5,175.7,223.7z"/>
	<path class="st53" d="M252.7,243.4c-1.5,1.4-0.3,3.2-0.5,4.9c-3.3-0.7-2.6-3-2.8-4.9c-0.7-2.7,2.4-6.5-2.8-8.2
		c3.2-0.6,5.2-0.1,5.3,3.2C251.9,240,252.4,241.7,252.7,243.4z"/>
	<path class="st54" d="M173.4,212.1c-1.6,6.3-3.2,12.5-4.8,18.8c-0.5-0.5-1.1-0.9-1.6-1.4c1.5-5.8,3.1-11.7,4.6-17.5
		C172.2,212.1,172.8,212.1,173.4,212.1z"/>
	<path class="st55" d="M243.6,309.7c0,2.3,0,4.6,0,6.9c-1.6-4.4-3-8.7-2.5-13.3c0.1-0.5,0.8-1.4,1.3-1.4c1.2-0.1,1,0.9,0.9,1.6
		c-0.1,1.4-0.2,2.7-0.3,4.1C243.3,308.3,243.5,309,243.6,309.7z"/>
	<path class="st56" d="M226.3,39.4c3.2,1.7,4.9,1,5.6-2.5c0.5-2.8-0.2-5.8,2.2-8.2c2.4,2.2,0.4,4.8,0.8,7.2c-0.5,1.2-1,2.3-1.5,3.5
		c-2.6,1.1-5.2,3.8-8,0.2C225.7,39.5,226,39.5,226.3,39.4z"/>
	<path class="st57" d="M171.6,168.3c-0.5,0.1-1,0.1-1.5,0.2c2.4-3.9-1.3-9.2,3.9-12.9C174.1,160.2,173.1,164.3,171.6,168.3z"/>
	<path class="st49" d="M207.4,27.2c1.4-0.4,1.8,0.7,2.5,1.3c-0.1,0.5-0.3,1-0.1,1.4c4.3,8.4-3.1,8.9-8.6,10.6c0-1.7,1.7-2,2.9-2.5
		c1.6-0.7,3.3-1.1,5-1.6C207.3,33.5,209.8,29.9,207.4,27.2z"/>
	<path class="st58" d="M145.9,99.2c-1.5-2.7-0.4-5.7-0.8-8.5c-0.2-1.1,0.7-2.8-1.3-2.9c-2.4-0.1-1.5,1.8-1.7,2.9
		c-0.2,1.4-0.2,2.9-0.3,4.3c-3.4-2.5-1.8-5.7-1.5-8.7c0.1-0.2,0.3-0.4,0.5-0.5c0.5-0.5-0.2-0.1-0.2-0.3c-1.1,0-2.1,0-2.8-0.9
		c5.4-2.1,6.7,2.3,7.7,5C146.6,92.4,145.8,95.9,145.9,99.2z"/>
	<path class="st59" d="M189.7,140.8c-4.5,2.4-3.5,7-6.6,9.5C182.2,144.2,183.8,141.3,189.7,140.8z"/>
	<path class="st60" d="M287.8,232.3c2.3-2.5,0.3-5.2,0.7-7.8c0.2-1.1,1.7-2,2.6-3c0,3.6,0,7.2,0,10.9c-0.7,0.3-1.4,0.6-2.1,0.9
		C288.3,233.3,287.9,232.9,287.8,232.3z"/>
	<path class="st61" d="M19.6,199c-1.5,4.3-3.1,8.5-4.6,12.8C14.3,206.9,16.7,202.9,19.6,199z"/>
	<path class="st26" d="M108.2,98.4c-3.2-0.1-3.3-3.9-6.3-4.3c0.5-0.4,1.1-0.8,1.8-1c0.5-0.2,1-0.4,1.5-0.5c1.8-0.3,3.8-0.6,5.1,1
		c1.3,1.7,0.8,3.4-0.7,4.8C109.1,98.6,108.6,98.6,108.2,98.4z"/>
	<path class="st62" d="M263,346.8c-3.9,1.8-2.7-2.4-2.7-2.6c0.9-3,0.9-6.1,1.1-9.1c0.1-1.9,1.1-0.4,1.6,0.1
		C262.6,339.1,262,342.9,263,346.8z"/>
	<path class="st9" d="M105.1,85.4c6.7-0.5,13.5-0.7,20.1-1.4c3.2-0.3,3,0.8,2.3,2.8c-0.4,0.2-0.8,0.3-1.3,0.2
		c-5.8-1.2-11.5,0.9-17.2,0.2C107.7,86.8,105.6,87.5,105.1,85.4z"/>
	<path class="st63" d="M207.7,251.4c-0.8,0.2-1.6,0.4-2.3,0.5c1.5-3.1,5.6-4.9,4.8-9.7C215,247.5,209.8,249,207.7,251.4z"/>
	<path class="st57" d="M191.5,296.3c4.2,2.3,8.2,4.7,10.8,8.6C198.6,302.1,194,300.3,191.5,296.3z"/>
	<path class="st64" d="M264.7,239.2c1.2-0.4,0.4-3,2.3-2.1c1.5,0.6,0.9,2.4,0.1,3.5c-1.4,1.9-1.1,5.1-4.9,5.1
		C262.8,243.4,265.5,241.8,264.7,239.2z"/>
	<path class="st65" d="M70.7,274.7c-0.5,1.4-1.1,2.8-1.6,4.3c-0.2-4-1.2-8,2-12.3C71.5,269.8,72.1,272.3,70.7,274.7z"/>
	<path class="st66" d="M43.3,283.6c-1.9-4.1,1.3-6.8,1.2-9.9c0-0.2,1-0.5,1.5-0.7c0.1,0.6,0.5,1.2,0.4,1.7
		C45.5,277.4,44.5,280.2,43.3,283.6z"/>
	<path class="st67" d="M170,262.4c0.9,0,1.7,0.1,2.6,0.1c1,1.4,0.2,2.8-0.1,4.2c-1.1,0.7,0.7,4.8-3.2,2.2
		C167,266.5,171.8,264.7,170,262.4z"/>
	<path class="st68" d="M274.9,32.2c-1.2-0.7-2.3-1.2-0.5-2.6c2.1-1.6,3.8-3.6,5.7-5.4c2.7,1.9-0.8,3.1-0.6,4.7
		c-0.6,0.5-1,1.2-1.6,1.6C276.9,31.3,276.2,32.1,274.9,32.2z"/>
	<path class="st69" d="M148.2,100.3c0.3,0.6,0.6,1.2,0.8,1.8c1.8,3.2,0.7,6-1.3,8.7c-3.7-2.1-1.1-5.4-1.6-8c0.2,0.5,0.5,1.1,0.9,2.1
		C147.5,103,147.8,101.6,148.2,100.3z"/>
	<path class="st70" d="M302.4,267.4c0,8,0,16,0,24C300.9,283.5,300.9,275.4,302.4,267.4z"/>
	<path class="st71" d="M108.2,98.4c0.3,0,0.6,0,0.9,0c1.8,4.5,0.1,8.5-2.4,12.3c-0.5,0.3-1.1,0.5-1.6,0.8
		C106.1,107.2,107.2,102.8,108.2,98.4z"/>
	<path class="st70" d="M299.7,291.4c0.1-7.7,0.3-15.5,0.4-23.2C300.9,275.9,301.7,283.7,299.7,291.4z"/>
	<path class="st72" d="M266.3,327.9c-1.8,0.9-1.4-1.3-2.4-1.4c0.3-2.5-3.1-4.7-0.8-7.5C265.4,321.7,265.3,324.9,266.3,327.9z"/>
	<path class="st73" d="M190.1,113c1.3-1,2.6-2,3.9-3c0.1,3.1-2.6,5.7-1.1,9.5C189.5,117.5,192.2,114.6,190.1,113z"/>
	<path class="st74" d="M188,46.3c2.3,4.2-0.2,6.7-0.9,10.1C184.8,52.5,187.8,50.1,188,46.3z"/>
	<path class="st75" d="M239,40.5c-0.7,0.2-1.3,0.5-2,0.7c-0.9-0.4-1.8-0.6-1.7-1.8c1.8-0.7,3.8-0.7,4.9-2.7c0.4-0.7,2.9-2.3,2.1,0.9
		C242.1,39.6,241.3,40.8,239,40.5z"/>
	<path class="st76" d="M282.9,42.4c3.5,0,6.4-0.8,7.3-4.5c1.7,2,1.1,3.7-0.9,4.9C287.2,44.2,284.9,44.6,282.9,42.4z"/>
	<path class="st77" d="M105.1,85.4c1.4,0.2,2.7,0.5,4.1,0.7c-3.3,1.8-4.8,4.6-5.6,7.9c-0.6,0-1.1,0.1-1.7,0.1
		C103,91.2,99.7,86.9,105.1,85.4z"/>
	<path class="st74" d="M239.8,242.7c1.6,0,1.6,1.1,1.5,2.1c-1,1.8-2,3.6-3.4,6C237,247.4,238.2,245,239.8,242.7z"/>
	<path class="st78" d="M269.4,116.8c-1.3,2.9-4.9,3.2-5.8,5.8C263.4,119.1,264.5,116.6,269.4,116.8z"/>
	<path class="st79" d="M220.2,155.8c2.1,0,4.2-1.8,6,0.1c0.3,0.3,0.1,1.3-0.2,1.6C223.5,159.1,222.1,156.7,220.2,155.8z"/>
	<path class="st80" d="M273.4,277.7c-0.3,0.5-0.6,1-1,1.5c-1.3,0-2.5-0.1-3.8-0.1c-0.9-0.2-2.4,1.3-2.5-0.8
		C268.4,275.8,270.8,276,273.4,277.7z"/>
	<path class="st81" d="M277.5,30.4c0.4-0.7,0.6-1.8,1.9-1.4c1,2.3,1.3,4.7,1.2,7.2c-0.1,0.3-0.3,0.5-0.5,0.4
		c-0.4-0.1-0.5-0.5-0.5-0.9c-0.4-0.5-0.8-0.9-1.3-1.4C277.4,33.1,276.3,32,277.5,30.4z"/>
	<path class="st3" d="M183.1,110.1c0,1.4,1.5,1.5,2.2,2.2c-2,0.7-4,1.4-6,2.1c0.3-1.2,0.8-2.5,1-3.8
		C180.8,108,181.8,108.7,183.1,110.1z"/>
	<path class="st82" d="M201.2,92.6c0-0.2,0-0.5,0.1-0.7c3.3,2.8,1.6,5.2-1.3,8.6C200.5,97.2,200.9,94.9,201.2,92.6z"/>
	<path class="st58" d="M126.5,86.7c0.3,0,0.7,0,1,0c2.5,0.3,4.8,0.1,6.4-2.1c1,0.6,2.3-0.1,3.3,0.6c-1.4,2.1-3.3,3.5-5.7,4.4
		c-1.1-2.6-3.2-2.6-5.5-1.5C125.4,87.5,125.5,87,126.5,86.7z"/>
	<path class="st83" d="M173.3,273.2c1.8-0.1,3.7-0.2,5.5-0.2c0.3,0,0.6,0.3,0.8,0.5c-0.3,0.4-0.6,1-1,1.2c-1.3,0.8-2.6,1.4-3.9,2.1
		c-0.2,0-0.4,0.1-0.7,0.1C172.8,275.8,174.3,274.3,173.3,273.2L173.3,273.2z"/>
	<path class="st84" d="M288.4,35.9c-1.4,0-2.9,0-4.3,0c-0.1-0.3-0.2-0.7-0.3-1c2.2-1.4,5.9,0.5,7.4-2.7
		C291.4,34.2,291.2,35.9,288.4,35.9z"/>
	<path class="st85" d="M190.8,42.2c-0.3-0.2-0.6-0.4-0.9-0.6c3.5-2.5,7.4,1.1,10.9-0.7c-0.7,1.8-1.1,3.3-4,1.9
		C195.2,41.9,192.9,42.3,190.8,42.2z"/>
	<path class="st53" d="M244.3,215.9c-0.9,0.2-2.1-0.2-1.6-0.7c0.9-1,2.5-1.5,3.8-2.1c0.2-0.1,1.2,0.7,1.1,1
		C247.4,215.9,245.6,215.5,244.3,215.9z"/>
	<path class="st86" d="M255.2,263.2c-0.1,0.9-0.2,1.7-0.4,2.6c-0.8,0.5-1.5,1-2.3,1.5c-0.8,0-1.5,0.1-2.3,0.1
		c-0.8-0.9-0.8-2.2,0.2-2.4c1.8-0.3,2.4-1.3,3.1-2.5C254.3,262.5,254.9,262.7,255.2,263.2z"/>
	<path class="st74" d="M281.8,558.4c-0.9-3-1.5-5-2.1-6.9c0.5-0.1,1.2-0.3,1.3-0.2C282.7,553.1,282.6,555.2,281.8,558.4z"/>
	<path class="st87" d="M235.6,262.3c2.1-2.5,0.3-5.4,1.3-8.1c1.9,2.5,1.5,5.2,0.6,7.9C236.9,262.2,236.2,262.3,235.6,262.3z"/>
	<path class="st88" d="M48.3,262.3c5.5-0.6,3.1-5.7,5.6-8c0.3,2.8-0.7,5.5-2,7.9C51.3,263.1,49.5,263.9,48.3,262.3z"/>
	<path class="st89" d="M279.7,35.7c0.3,0.2,0.6,0.3,1,0.5c0,0.7,0.1,1.4,0.1,2.1c0,0-0.1,0.3-0.1,0.3c0,0-0.3,0.1-0.3,0.1
		s-0.3,0-0.3,0c-1.7-0.5-1.5,1.5-2.6,1.7c-1,0.2-2.2,0.6-2.4-0.9C276.5,38.2,278.1,37,279.7,35.7z"/>
	<path class="st90" d="M266.2,278.3c0.8,0.3,1.6,0.5,2.5,0.8c-0.5,0.5-1.1,0.9-1.6,1.4c-1.9,0-3.5-0.7-4.5-2.2
		C263.8,277,265,278.4,266.2,278.3z"/>
	<path class="st91" d="M114.2,262.4c3.2,0,6.4-0.1,8.8-2.6c0.3-0.3,0.8-1.4,1.2-0.1c0.1,0.4-0.3,0.9-0.4,1.3
		C120.8,262.1,117.9,264.6,114.2,262.4z"/>
	<path class="st92" d="M148.3,258.8c-1.2-3,0.8-4.3,3.5-4.5c1.6-0.1,2.7-0.5,3.8-1.5c0.7,2.1-0.8,2.4-2.4,2.3
		C150.3,255,148.8,256.3,148.3,258.8z"/>
	<path class="st37" d="M255.1,254.3c-0.8,0.6-2,1.7-1.9-0.4c0.1-1.3-2.5-3.3,1-3.9C254.5,251.4,254.8,252.8,255.1,254.3z"/>
	<path class="st93" d="M200.5,52.5c-1.4,1.3-1.6-0.5-2.4-0.8c0.7-1.3,1.5-2.7,3-5.4C200.8,49.4,200.7,51,200.5,52.5z"/>
	<path class="st21" d="M173.3,273.2c1.7,1,1.1,2.3,0.8,3.7c0,0,0,0,0,0c-1.4,0.8-2.8,1.1-4.1-0.2C170.4,275,173.5,275.5,173.3,273.2
		z"/>
	<path class="st94" d="M110,45.2c0.2-0.2,0.5-0.5,0.7-0.7c2.7,0,4,1.2,4,3.7c-0.3,0.2-0.5,0.5-0.8,0.7
		C112.6,47.7,111.3,46.4,110,45.2z"/>
	<path class="st95" d="M204.4,223.7c-0.3,2.5,2.6,0.7,3.4,2.2c-1.9,1.2-3.4,1.4-4.7-0.8C203.5,224.6,204,224.2,204.4,223.7z"/>
	<path class="st96" d="M169.9,276.7c1.4,0.1,2.8,0.1,4.1,0.2c-0.8,1-1.6,2.3-3.3,1.9C169.8,278.5,169.8,277.6,169.9,276.7z"/>
	<path class="st97" d="M290.9,521.4c0,2.8,0,4.2,0,6.1C289.1,525.6,289.4,524.3,290.9,521.4z"/>
	<path class="st98" d="M93,255.4c-0.1-2.3,3.8-1,3.6-3.3C97.9,255.4,94.6,254.7,93,255.4z"/>
	<path class="st99" d="M197.3,261.9c1.3,1.1,3.3-3,4.3,0.4C200.2,262.4,198.5,264.1,197.3,261.9z"/>
	<path class="st100" d="M104.3,257.7c0.2-4.6,4.1-3.1,6.9-3.3C109,255.7,105.5,254.7,104.3,257.7z"/>
	<path class="st101" d="M243.8,348.3c-1,1.3-2.2-0.3-3.2,0.1c-0.5-0.5-0.7-1,0.1-1.3C242.2,346.3,242.9,347.6,243.8,348.3z"/>
	<path class="st26" d="M137.3,85.4c-1.1-0.2-2.2-0.4-3.3-0.7c1.3-0.1,2.6-0.1,3.8-0.2c0.9,0.7,2.6-0.8,3.2,0.9
		C139.8,86.3,138.5,86.4,137.3,85.4z"/>
	<path class="st102" d="M243,258.4c0.4-2.4,1.8-4,4.4-4.8C246,255.2,244.5,256.8,243,258.4z"/>
	<path class="st103" d="M158.5,262.4c2.4-0.5,4.8-1,7.2-1.5C163.5,262.3,161.4,263.8,158.5,262.4z"/>
	<path class="st104" d="M216.6,262.3c2.5,1.2,2.5-2.9,4.9-1.9C220.1,261.7,219.6,264.7,216.6,262.3z"/>
	<path class="st30" d="M270.2,381.8c1.9-2.8,6.4-4.2,4.8-9c-0.7-2,2.1-0.2,3.3-0.5c0,0,0,0,0,0c2.8,2.7,5.2,5.7,10.2,4.6
		c2.5-0.5,0.6,1.9,3.1,3.8c-4.4-1.7-6.9-2.9-9.6-3.7c-2.5-0.7-4.3,2.1-3.9,2.7c1.5,2.2,0.3,4.4,0.9,6.4c-2.7,0.3-3.8-1.8-5.6-2.9
		c-0.8,0-1.5,0-2.3,0C270.7,382.9,269.8,382.7,270.2,381.8z"/>
	<path class="st0" d="M231.8,395.7c0.7-1.6-0.8-4.3,2.2-4.7c2-0.3,2.9,1.9,3.1,3.2c0.5,2.3-1.6,2.9-3.8,3
		C232,397.3,231.9,396.5,231.8,395.7z"/>
	<path class="st57" d="M255.8,359.3c4,0,8,0,12,0c0.8,4.3-1,3.5-4.2,2.1C261.3,360.5,258,361.6,255.8,359.3z"/>
	<path class="st0" d="M259.8,349.1c-0.2,1.2-0.9,2.3-1.7,1.8c-1.8-1.1-4.6-1.1-5.1-3.5c-0.1-0.6,1.1-1.5,1.6-2.2
		C256.4,346.4,258.9,347.1,259.8,349.1z"/>
	<path class="st105" d="M273.5,383.3c1.9,1,3.7,2,5.6,2.9c2.1,0.7,5.4,2.6,4.7,3.5c-2,2.5-3.3-1.1-4.8-1.8
		C276.8,387,274.1,386,273.5,383.3z"/>
	<path class="st0" d="M287.9,400.7c-1.2-0.5-2.9,1.5-3.8-0.4c-0.2-0.5,0.3-1.7,0.9-2.1c0.8-0.5,2.3-1.1,2.9-0.7
		C289.5,398.4,287.7,399.6,287.9,400.7C287.9,400.7,287.9,400.7,287.9,400.7z"/>
	<path class="st48" d="M253.5,399.2c-1.1,0.2-1.7-0.2-1.5-1.1c0.3-1.4,1.6-0.8,2.6-1c1-0.1,2,0,2,1.2
		C256.3,400.7,254,397.4,253.5,399.2z"/>
	<path class="st54" d="M231.8,395.7c0.5,0.5,1,1,1.5,1.5c-0.2,1.2-0.7,2.8-2.2,1.9C229.2,398,230.8,396.7,231.8,395.7z"/>
	<path class="st0" d="M218.9,403.5c-0.8,0-1.6,0-2.4,0c0.4-1-1-2.8,1-2.8C219.2,400.7,218.9,402.4,218.9,403.5z"/>
	<path class="st0" d="M235.2,379.1c-1,0.7-1.7,1.4-2.5,1.6c-0.9,0.2-1-0.8-0.7-1.3c0.4-0.6,1-1.1,1.6-1.4
		C233.8,377.9,234.5,378.6,235.2,379.1z"/>
	<path class="st106" d="M270.2,381.8c0.3,0.5,0.6,1,1,1.5c-2.5,0.3-3.6-1.3-6-4.1C267.9,380.6,269.1,381.2,270.2,381.8z"/>
	<path class="st48" d="M248.5,414.7c1.7-1.1,2.8-1.1,4.1-0.2C251.4,415.8,250.3,415.4,248.5,414.7z"/>
	<path class="st52" d="M252.6,338.8c2.1,0.2,1.6,2.2,2.9,3.4C253,341.8,252.5,340.5,252.6,338.8
		C252.6,338.8,252.6,338.8,252.6,338.8z"/>
	<path class="st0" d="M281.8,314.7c0.4,1.6-1,1.8-1.6,1.7c-2.6-0.6-4.9-2-6.5-3.9c-0.6-0.8,0.8-1.3,1.8-1.2
		C278.3,311.4,280.4,312.8,281.8,314.7z"/>
	<path class="st107" d="M254.3,288.5c1.7,3.3,0,6.6,0.3,9.9c0,0.2-0.3,0.7-0.6,0.7c-0.3,0.1-0.8-0.1-1-0.3c-1.6-1.4-0.7-9.7,1.1-11
		c0.2,0.1,0.3,0.2,0.3,0.3C254.4,288.5,254.4,288.5,254.3,288.5z"/>
	<path class="st37" d="M253.5,263.1c1.2,2.9-4.3,1.6-3.2,4.3c-1.3-0.7-3.9,0.3-3.9-2.1c0-1.9,1.9-2.1,3.5-2.2c2.2-0.1,2-1.6,2-2.9
		C254.2,260.3,254.3,261.4,253.5,263.1z"/>
	<path class="st108" d="M253.5,263.1c0-1.2,0-2.4-1.7-2.9c-1.2-0.5-1.9-1.1-0.6-2.2c1.6-0.9,3.1-2.7,5.3-0.8c-2,1.4-4.2,2.8-0.1,4.5
		c1,0.4,0.9,0.7-1.2,1.5C254.6,263.2,254.1,263.1,253.5,263.1z"/>
	<path class="st109" d="M266.8,289.6c4.2,2.4,4.4,5,4.2,8.3C267.3,296,268.5,292.8,266.8,289.6z"/>
	<path class="st0" d="M254.3,288.5c-0.1-0.2-0.2-0.4-0.2-0.6c0.2-0.8,0.2-1.8,1.4-1.8c0.3,0,0.8,0.6,0.9,1
		C256.6,288.6,255.3,288.5,254.3,288.5z"/>
	<path class="st93" d="M238.9,275.4c1.3,0.2,2.3,0.6,2.3,2c0,0.2-0.6,0.6-0.8,0.6C238.9,277.7,239,276.5,238.9,275.4
		C238.9,275.4,238.9,275.4,238.9,275.4z"/>
	<path class="st110" d="M147.7,110.7c0.4-2.9,0.9-5.8,1.3-8.7c0.8-4.5,2-9.1,2.4-13.6c0.3-3.4,2.4-3,4.9-3.1c3.9,0,0.7,2.6,1.7,3.6
		c1.5,2.5,0.1,5-0.3,7.4c-0.7,4.5-0.8,4.5,4.2,4.9c0.7,0.1,1.3,0,2,0c1.3,0.2,2.5,0.5,3.8,0.7c-3.2,8.8-13.1,5.4-19.3,8.9
		C148.2,110.8,148,110.7,147.7,110.7z"/>
	<path class="st111" d="M163.9,101.3c-2.3,0.5-4.5,1-6.8,1.4c-2.4,0.4-1.4-1.2-1.2-2c0.7-3.9,1.5-7.8,2.2-11.7c1.3-0.7,2.7-1.4,4-2
		c1-0.7,1.7-0.4,1.9,0.6c0.2,1.3,0,2.5-1.2,3.5c-0.2,1-0.4,2-0.6,3.1c0.5,0.7,0.6,1.4-0.3,1.9C160.9,98.3,159.9,100.6,163.9,101.3z"
		/>
	<path class="st0" d="M177.4,83.9c-0.5-0.4-1.6-1-1.5-1.3c1.2-3.1,5.7-3.7,6.5-7.1c1.7,0.4,3.5,0.5,5,1.3c1.1,0.6,2.6,2.3,2.3,2.9
		c-0.7,1.4-2.6,0.5-3.8,0.2c-1.4-0.3-2.5-1.7-4,0c-1.4,1.7,0.5,2.6,0.8,3.9C180.9,85.2,179.2,85.2,177.4,83.9z"/>
	<path class="st0" d="M160.3,84.1c-2-0.1-4.1-0.1-6.1-0.2c-0.7-3.1-1.4-6.2-2-9.3c0-0.1,1.2-0.8,1.5-0.6c1.5,0.7,4.4,1.1,3.8,2.5
		C156.2,80,158.6,81.8,160.3,84.1z"/>
	<path class="st0" d="M170.7,96.2c-2.2-0.6-4.4-0.7-2.1-3.9c1.5-2.1,1.3-5.2,1.9-7.9c1.9,0.4,1.8,1.8,2,3.1
		C174.2,90.9,173.4,93.7,170.7,96.2z"/>
	<path class="st58" d="M177.4,83.9c1.8,0,3.5,0,5.3,0l0,0c1.1,2.1,2.9,0.9,4.4,0.7c0.2,0,0.4,0,0.6,0c0.2,0.2,0.5,0.4,0.7,0.6
		c-0.8,3.7-4.3,5.1-7.5,6.5c-1.5,0.7-2.2-0.8-2-1.9c0.8-3.3-1.4-3.8-4.1-4c-0.5-0.3-1-0.6-0.8-1.3C175.2,84.4,176.3,84.2,177.4,83.9
		z"/>
	<path class="st112" d="M174.1,84.7c0.3,0.2,0.6,0.4,0.8,0.7c0.1,6.4-0.5,12.6-4.2,18.2c-1.1,0-2-0.3-2.3-1.3c2.8-1.4,1.6-4,2.3-6
		c0.6-2.9,1.2-5.7,1.8-8.6C173,86.6,173.5,85.6,174.1,84.7z"/>
	<path class="st0" d="M162.8,91c-0.8-1.3,1.6-3-0.7-4.1c-1.8,0-3.1-0.4-1.7-2.4c5.2,0.7,5.8,3.4,3.7,7.2c-0.2,0.3-0.7,0.4-1,0.6
		C162.9,91.9,162.8,91.5,162.8,91z"/>
	<path class="st0" d="M211.5,79.7c-0.2-0.9-0.3-1.1-0.3-1.1c1.9-1.3,2.6-3.8,5.3-4.3c0.1,0,0.7,0.6,0.6,0.8
		C216.3,77.6,213.4,77.7,211.5,79.7z"/>
	<path class="st113" d="M203,76c-0.5,0.2-1,0.3-1.6,0.5c-0.8-2.5-1.2-4.9,2.2-6.5C203.4,72,203.2,74,203,76z"/>
	<path class="st0" d="M187.1,84.7c-1,1.5-2.5,2.3-4.3,1.7c-1.4-0.5,0.1-1.6-0.1-2.5C184.2,84.2,185.7,84.4,187.1,84.7z"/>
	<path class="st0" d="M197.3,86c0.7,1.1,2.1,2.2-0.3,3.1c-1-0.9-2-1.9-3-2.8C194.9,84.8,196.1,85.6,197.3,86z"/>
	<path class="st0" d="M161.9,96c0.1-0.6,0.2-1.3,0.3-1.9c1.1,0.2,2.5,0.3,2.7,1.6c0.1,0.5-0.7,1.3-1.3,1.6
		C162.2,97.8,162.1,96.7,161.9,96z"/>
	<path class="st0" d="M271.1,212.8c-4.5-0.7-2.6-3.5-2.4-5.8c2-0.4,4.3-0.8,5.2,1.2C274.7,210.2,272.9,211.7,271.1,212.8z"/>
	<path class="st0" d="M281.4,172.7c-0.2-1.5,4-4.3-1.5-4.3c-0.6-0.3-2.1,0.2-1.7-0.8c0.8-1.7,2.8-1.8,4.4-1c2.5,1.2,3.5,3.1,2.2,5.7
		C284,174.2,282.8,174.2,281.4,172.7z"/>
	<path class="st114" d="M275.2,201.7c-1.2-2.2-3.7,2.7-4-0.5c-0.3-2.7,3.4-2.8,5.4-3.1c2.3-0.3-0.7,1.6,0.5,2.8
		C278.3,202.2,276,201.3,275.2,201.7z"/>
	<path class="st0" d="M221.4,558.1c-36.7-1.1-73.4-2.2-110-3.3c-27.7-0.9-55.5-1.8-83.2-2.7c-3.1-1.6-2-4.1-1.8-6.3
		c-0.7,1.4-0.2,3-0.5,4.5c-0.2,1.1-1,1.6-2.3,1.6c-1.3-0.1-1.4-0.9-1.4-1.8c0.1-3-0.3-6,0.3-9c1.4-37,2.8-74,3.9-111
		c0.1-4.6,1.4-5.6,6.3-5.5c65.4,2.2,130.8,4.3,196.2,6.4c12.9,0.4,25.9,0.8,38.8,1.1c2.1,0.1,3.4,0.1,3.3,2.7
		c-1.7,40.9-3.2,81.7-4.8,122.6c-0.1,1.8-0.6,2.3-2.5,2.2c-13.6-0.5-27.2-1-40.8-1.5c-1.3-3.4-1.2-6.7,0.2-10
		c0.3-0.9,1.4-1.4,1.4-2.4c0,0.8-0.6,1.3-1.1,1.8c-1.4,2-1.3,4.2-1.3,6.5C222.1,555.4,222.5,556.9,221.4,558.1z"/>
	<path class="st115" d="M22.4,541.1c0,2.5,0,5.1,0.2,7.6c0,1-0.6,2.5,1.3,2.5c1.5,0,1.1-1.5,1.1-2.3c-0.3-2.6,0.4-5,2.6-7.5
		c1.8,3.7-2.2,7.5,0.7,10.8C20.7,552.3,20.3,551.6,22.4,541.1z"/>
	<path class="st114" d="M221.4,558.1c0.5-3.7-2.3-8,2.4-11l0,0c-0.3,3.7-0.6,7.3-0.8,11C222.4,558.2,221.9,558.1,221.4,558.1z"/>
	<path class="st90" d="M273.1,234.4c2.2-0.4,4.5-5.4,6.6,0C277.4,234.4,275.2,234.4,273.1,234.4z"/>
	<path class="st116" d="M287.8,232.3c0.4,0.3,0.8,0.6,1.2,1c-1.1,1.8-2.3,3.4-5.9,4.2C285.1,235.3,286.4,233.8,287.8,232.3z"/>
	<path class="st117" d="M183.7,29.2c1.7-1.4,3.7-2.3,5.5-0.7c1.8,1.6-1.2,3.4-1,4.1c1.3,4.7-3,1.1-4.1,2.4c-1,1-0.9-0.7-1.1-1.4
		C181.8,31.9,182.3,30.5,183.7,29.2z"/>
	<path class="st118" d="M183.7,29.2c-0.3,1.5-0.5,2.9-0.8,4.4c-1.9,0.4-3.2,3.7-5.6,1.4c-1.8-1.7-0.8-3.9,0.4-5.6
		C179.5,26.7,181.6,28,183.7,29.2z"/>
	<path class="st119" d="M190.6,33.6c1.2-2.1,0.7-4.4,2.9-5.7c0.1,3.2,4.5,0.8,3.8,1c-4.6,1.4,1.8,5.1-1.9,6.3
		C195.1,32.1,191,36.5,190.6,33.6z"/>
	<path class="st120" d="M200.7,30.9c0.8,1.3,3.5,2.1,1.6,4.1c-1.3,1.4-2.8,1-4.4-0.6c1.2-0.1,2-0.2,3-0.4c-1.2-1.6-3.9-2.9-1.6-5.2
		c1-1.1,2.5-1.4,4-0.9c0.9,0.3,1,0.9,0.8,1.8C203.6,31.9,201.8,29.5,200.7,30.9z"/>
	<path class="st121" d="M169.9,30.4c-0.1-1.3,0.5-2.3,1.8-2.3c1.8-0.1,0.4,1.9,1.5,2.4c1.3-0.6,1-2.9,3.9-2.2
		c-2.5,2.1-1.5,5.9-5.4,7.1C172.1,33.3,168.9,32.5,169.9,30.4z"/>
	<path class="st122" d="M169.9,30.4c0.6,1.6,2.3,2.9,1.8,4.8c-0.8,0.4-1.2-2.5-2.3-0.2c-0.2,0.4-2.2,1.1-2.2,0.1
		c0.1-2.3-1.7-5.2,0.3-6.8C169.7,26.7,168.5,30.1,169.9,30.4z"/>
	<path class="st0" d="M172.4,266.7c-1.6-1.4-0.2-2.8,0.1-4.2c0.5-0.2,1-0.5,1.6-0.7c1.8,1.7,3.4,3.9,2.3,6
		C175.7,269.1,173.8,267.3,172.4,266.7z"/>
	<path class="st123" d="M174.1,259.8c0.5-3.4,3.5-5.1,5.7-7.3C179.2,255.8,175.9,257.3,174.1,259.8z"/>
	<path class="st110" d="M233.9,174.2c3,0,4.9,0.9,4.7,3.4c-0.4,3.7-2.7,6-7,6.1c-2.9,0.1-4.8-1.2-4.6-3.9
		C227.3,175.8,230.5,174.5,233.9,174.2z"/>
	<path class="st124" d="M137.3,85.4c1.2,0,2.5,0,3.7,0c0.3,3.2,0.5,6.4,0.8,9.6c0.1,3.6-0.2,7.2,0.4,10.7c0.7,4-1.4,5.3-5,5.2
		c-3.4-0.1-1-2.9-1.8-4.2c-0.1-0.1,0-0.3-0.1-0.3c-0.2,0-0.3,0-0.5,0c-5.6-0.1-9.1,5.8-15.1,4.4c-0.4-0.3-0.8-0.8-0.5-1.3
		c2.5-4.3,4-9.3,8.3-12.6c1.4-2.4,2.8-4.8,4.2-7.2C133,87.8,134.1,85.4,137.3,85.4z"/>
	<path class="st124" d="M126.5,86.7c-0.2,0.5-0.3,1-0.5,1.5c-0.6,1.6-0.9,3.6-3.4,3.3c-4.7-0.4-5.8,2.1-6.3,5.6
		c-0.3,2.2-1.4,4.2-1.5,6.4c-0.4,4.7-3.3,6.8-8.1,7.2c0.8-4.1,1.6-8.2,2.4-12.3c3-6.3-1.3-5.4-5.5-4.5c-0.8-4.2-0.7-7.9,5.6-7.9
		c4.9-0.3,9.7-0.6,14.6-0.7C124.9,85.3,126.7,84.5,126.5,86.7z"/>
	<path class="st125" d="M119.4,104.9c0.7-2.4,1.1-4.9,2-7.3c0.9-2.4,3-2.5,5.2-1.5c-1,3.7-3.9,6.6-5.5,10c-0.2,0.5-0.6,1.3-1.4,1
		C118.7,106.7,119.1,105.7,119.4,104.9z"/>
	<path class="st126" d="M119.4,104.9c0,0.5-0.2,1.2,0.1,1.4c1.1,0.7,1.1-0.5,1.3-0.9c2-3.1,3.9-6.2,5.9-9.3c0.2,0.2,0.5,0.5,0.7,0.7
		c-2.6,4.6-5.2,9.2-7.8,13.9C116,108.9,119.1,106.9,119.4,104.9z"/>
	<path class="st127" d="M74.6,257.3c-0.5,1.6-1.6,2.8-3.8,2.8c-1.7,0-1.7-1.2-1.6-2.3c0.3-2.1,1.8-2.7,3.9-2.6
		C74.7,255.2,74.7,256.1,74.6,257.3z"/>
	<path class="st128" d="M118.2,255.1c2-0.1,2.9,0.4,2.7,1.6c-0.3,1.8-1.5,3.1-3.6,3.4c-2.3,0.3-2.3-1.8-2.2-2.6
		C115.3,255.8,117.3,255.5,118.2,255.1z"/>
	<path class="st6" d="M51.3,45.6c-2.9-3-5.9-2.5-9.1-1.9c-5.8,1.2-11.7,0.9-17.4-0.4c-4.6-1-9.9-1.5-10.5-7.2
		c-0.6-5.8,2.1-10.4,7.6-12.8c9-3.9,18.6-4.7,28.4-2.7c5,1,7.7,4.2,8.3,8.7c0.6,4.5-1.4,8-5.9,9.8C48.9,40.5,50.9,42.8,51.3,45.6z"
		/>
	<path class="st129" d="M114.7,48.2c-1.3-1.2-2.6-2.5-4-3.7c-3.5-2.3-4,1.8-6.2,2.4c-0.9,0.3-2.3,2.6-2.4,0
		c-0.1-4.4-2.3-3.9-5.5-2.9c-2.7,0.8-5.5,1.3-8.5,2c0.8-3.8,4.1-6.6,3.4-10.4c1.1-0.2,1.5-1.5,2.5-1.6c3.3-0.3,2.2-2.1,1.8-4.4
		c-1.4,2.5-2,4.8-4.3,6.1c-3-0.7-5.3-2.2-7.3-4.3c0.3,0,0.5,0,0.8,0c5.7,0,9-1.2,3.2-7c1.8,0.3,2.9,0.8,3.6,0.6
		c1.7-0.6,5.7,5,5.5-1.9c-0.1-2.2,6.8-1.7,8-7.8c2.3,10,7.2,5.7,11.2,4.5c2.4-0.7,3.3-1.2,3.1,2c-0.4,5.5,4.8,0.6,6.5,2.8
		c-0.4,1.8-1.4,3.4-4.1,3.8c-0.6,0.1-1.2,0.7-1.8,1.1c3.1,1.7-0.7,4.1,0.8,6c0,0.1,1.7-0.6,1.7-0.9c0.5-8.5,5.9-5.2,11.1-3.6
		c-5.1,3.6-14.9,4.3-8.9,14.2C117.4,38.8,118.1,47.5,114.7,48.2z"/>
	<path class="st3" d="M170.7,103.5c1.4-6.1,2.8-12.1,4.2-18.2c8.2-2.1,5.2,2.9,4.3,7.4c3.7-2.9,6.4-5.2,9.2-7.4
		c2.6-0.7,4.2,1.2,5.1,2.6c0.9,1.4-1.7,1.9-2.7,2.9c-0.5,0.5-1.2,1-1.8,1.4c-4.9,2.4-5.5,5.3-1.5,9c5.2,4.9,0.8,6.9-3.5,8.8
		c-1.9-3.2-3.7-6.3-5.6-9.6c-3.4,2.9,1,10.8-7.3,9.6C168,109.5,171.6,105.7,170.7,103.5z"/>
	<path class="st130" d="M216.5,173.7c-0.4,1.4-1.4,1.9-2.9,1.9c-1.1,0-1.8-0.2-1.4-1.4c0.3-1.2,0.3-2.5,2.2-2.3
		C215.6,172.1,216.4,172.5,216.5,173.7z"/>
	<path class="st131" d="M212.7,179.5c0.2,0.1,1.3,0.5,1.3,0.9c0.1,1.1-1,1.6-2.1,1.8c-0.7,0.1-1.8,0.3-1.6-0.8
		C210.5,180.4,210.7,179.4,212.7,179.5z"/>
	<path class="st132" d="M239.7,21.9c7.7-8.6,21.6-8.8,31.4-0.5c-5.5,0.7-4.9,5.2-6.3,8.5c-0.8,1.9-1.2,3.9-1.8,5.9
		c-0.3,0.3-0.6,0.4-1,0.3c-1.3-0.6-3-0.6-4.1-1.7c-1-1.8,0.1-3.4,0.4-5.1c0.3-1.7,1.2-3.3,0.1-5.1c-2.5-1.2-2.8,0.8-3.6,2.1
		c-1.4,2.4-1.1,5.5-3.5,7.5c-0.9,0.2-1.5-0.2-1.8-0.9c-0.2-0.5-0.3-1-0.5-1.6c-1.6-1.4-0.7-3.1-0.6-4.7c0-1.2,0.3-2.4-0.4-3.5
		c-2.2-4.2-4.9,0.6-7.3-0.4C239.9,22.8,239.5,22.6,239.7,21.9z"/>
	<path class="st133" d="M274.9,39.5c0.8,0.3,1.6,0.6,2.4,0.9c-5.2,7.3-13,9.1-21.5,7c-5.8-1.5-9.8,0.6-14.6,3.3
		c4.8-4.9,1.7-7.6-2.2-10.2c1.1-0.9,2.2-1.9,3.3-2.8c0.4,0.9,0.6,1.9,2.1,1.8c2,1.2,3.4-0.7,5.2-0.7c0.6,0,1.1,0,1.7,0.2
		c3.9,0.8,7.8-0.1,11.7-0.3c0.5,0,0.9,0,1.4,0c3.7,1.8,4.4-1.6,6.2-3.1C272.1,37,272.8,38.9,274.9,39.5z"/>
	<path class="st134" d="M263.1,38.7c-3.8,2.3-7.7,2.4-11.8,0.7c0.6-1.3,1.9-1.8,3.2-1.8c2.9,0,5.3-0.8,7.7-2.1
		c0.3,0,0.5,0.1,0.8,0.1C263.2,36.7,261.9,37.8,263.1,38.7z"/>
	<path class="st135" d="M270.6,35.7c-0.8,3.2-1.8,6-6.2,3.1c2.1-0.6,4.4-0.7,4.4-3.6C268.8,34.2,269.2,34.2,270.6,35.7z"/>
	<path class="st136" d="M272,21.8c0.7,0.4,1.3,0.9,2,1.3c-0.9,1.4-1.9,2.8-3.9,5.9C271,25.3,271.5,23.5,272,21.8z"/>
	<path class="st137" d="M277.5,30.4c0.3,1.3,0.6,2.6,0.9,3.9c-1.2-0.7-2.4-1.4-3.6-2.1C275.5,31.3,276.1,30.3,277.5,30.4z"/>
	<path class="st95" d="M85.9,179.9c1.3-1.8,2.1-3.1,3.2-4.6C90.5,178.3,89.5,179.4,85.9,179.9z"/>
	<path class="st95" d="M90.1,218.6c0.9,3.3,0.5,4.9-3.1,4.7C87.9,221.9,88.7,220.6,90.1,218.6z"/>
	<path class="st138" d="M195.2,179.9c1.3-1.8,2.2-3.1,3.3-4.8C199.6,178.1,198.9,179.5,195.2,179.9z"/>
	<path class="st139" d="M239.7,21.9c0.3,0.3,0.6,0.6,0.9,0.9c-1.1,3.8-2.1,7.6-4.5,10.9c-1.6-1.5-1.5-3.1,0-4.6
		c1.6-1.6,2-3.4,2.1-5.5C238.7,23,239.2,22.4,239.7,21.9z"/>
	<path class="st140" d="M249.7,39.5c-1.7,0.7-3.5,2.7-5.2,0c5-0.2,3.5-4.3,5-6.7c0.5,0.4,1,0.7,1.5,1.1
		C252.1,36,250.6,37.7,249.7,39.5z"/>
	<path class="st141" d="M236,29c0,1.5,0,3.1,0,4.6c-0.4,0.8-0.8,1.5-1.2,2.3c-1.3-2.3-0.6-4.8-0.8-7.2C234.7,28.8,235.4,28.9,236,29
		z"/>
	<path class="st142" d="M247.9,23.1c2.7,2.5,0.1,5.5,1,8.2C246.2,28.8,248.1,25.8,247.9,23.1z"/>
	<path class="st143" d="M183.7,270.6c-1,0.2-1.5,0.5-2,0.4c-0.6-0.1-1.1-0.4-1.6-0.6c0.6-0.4,1.1-1,1.7-1.1
		C182.2,269.3,182.7,270,183.7,270.6z"/>
	<path class="st1" d="M142.3,179.4c0.9-1.3,1.7-2.5,2.9-4.3C145.8,178,146,179.7,142.3,179.4z"/>
	<path class="st144" d="M250.9,238.9c0,1.9,0,3.7,0,5.6c-0.2,0-0.3,0-0.5,0c0-1.9,0-3.7,0-5.6C250.6,238.9,250.7,238.9,250.9,238.9z
		"/>
	<path class="st145" d="M46.5,442.7c-2.5,2.1-0.3,7.1-5,6.6c-3.1-0.3-0.3-3.7-1.6-5.7c-2,1.9-2,6.1-6.6,5c1.9-3.6,3.7-7.3,5.6-10.9
		c0.8-1.4,2.7-1.7,3.9-1.3c2.8,1.1-0.6,3.4,1,5.1c0.5-1.2,0.9-2.4,1.5-3.6c0.7-1.5,2.3-1.6,3.7-1.5c2.5,0.2,0.7,1.9,0.8,2.8
		c0.3,2,0.3,4.1,0.4,6.1c0.1,1.1,1.1,2.5-0.6,3.2c-0.8,0.3-1.8,0.3-2.7,0.4c-0.2-1-0.4-2.1-0.4-3.1
		C46.4,444.8,46.5,443.9,46.5,442.7z"/>
	<path class="st146" d="M93.1,445.8c-1.2,0.7-1.2,1.7-1.1,2.8c0.1,1.6-2,2.1-2.3,1.7c-2.9-3.9-5.8,1-8.5-0.1c1.7-3.7,3.5-7.3,5.1-11
		c0.9-2.1,3.2-1.7,4.7-1.7c1.4-0.1,0.2,1.8,0.5,2.7c0.6,1.8-1.5,4.2,1.6,5.3L93.1,445.8z"/>
	<path class="st40" d="M93.1,445.8c0,0,0-0.3,0-0.3c0.8-3.7,1.9-7.2,6.7-7.9c1.6-0.2,3.6,0.2,3.8,1.9c0.2,1.3-1.4,2.2-3,2.2
		c-3.6-0.1-3.8,2.5-4.2,4.7c-0.1,0.5,0.6,1.3,1.1,1.7c0.2,0.2,1.2,0.1,1.5-0.2c1.5-1.4-0.9-0.9-0.9-1.4c-0.1-0.5,0.1-1.5,0.4-1.6
		c1.5-0.3,3.1-0.3,4.6-0.4c0.1,0,0.5,1.1,0.3,1.5c-1.2,2.7-3.2,5.1-6.6,4.9C93.6,450.8,93.2,448.2,93.1,445.8z"/>
	<path class="st147" d="M108,448.1c1.7-0.2,2.8-0.4,3.9-0.5c0.7-0.1,1.7-0.6,1.8,0.6c0,0.7-0.4,1.9-0.8,1.9
		c-2.7,0.4-5.5,0.6-8.3,0.8c-0.1,0-0.5-1-0.4-1.4c0.5-2.9,1.1-5.8,1.5-8.8c0.3-1.8,1.9-1.6,3-1.7c2.3-0.2,4.7-0.1,7.1-0.2
		c0,0.4-0.1,0.9-0.1,1.3c-0.3,2-2.1,1.3-3.4,1.7c-1.1,0.3-3.2-0.2-3,1.6c0.2,1.5,1.7-0.1,2.6,0.3c0.4,0.2,0.8,0.4,1.2,0.6
		c-0.4,0.6-0.7,1.4-1.3,1.6C110.6,446.3,109.2,446.1,108,448.1z"/>
	<path class="st146" d="M56.5,441.3c0.4,2.2,4.8-1.2,3.1,2.7c-0.6,1.3-3.6-0.3-4.1,2.4c1.4-0.2,2.6-0.3,3.8-0.4
		c0.7,0,1.9-0.4,1.5,0.8c-0.2,0.7-0.8,1.9-1.4,2c-2.6,0.3-5.3,0.2-7.9,0.2c-0.1,0-0.3-1.5-0.1-2.3c0.5-2.3,1.7-4.5,1.3-7
		c-0.2-1.6,1.1-2.4,2.8-2.4c2.5,0,5,0.1,7.5,0.1c-0.3,1.2,0.1,2.7-2.2,2.8C59.2,440.2,57.3,439.7,56.5,441.3z"/>
	<path class="st148" d="M73.1,440c2-2.1,4.4-3.4,7.6-2.8c1.9,0.4,3.2,0.9,2.2,3.1c-0.7,1.6-0.9,3.2-3.3,1.3
		c-0.7-0.6-1.9-0.8-2.4,0.1c-0.8,1.3,0.8,1.6,1.5,2.1c1.8,1.5,2.6,3.3,1,5.1c-1.6,1.8-3.9,1.7-6.1,0.6c-0.8-0.4-1.7-0.8-0.9-1.9
		c0.6-0.9,1.1-0.7,1.9-0.3c0.8,0.4,1.7,1.2,2.3,0.1c0.6-1-0.8-1.4-1.4-1.8C73.2,444.2,72.5,442.3,73.1,440L73.1,440z"/>
	<path class="st148" d="M73.1,439.9c-1.2,0.2,0,3-2.3,2c-1.3-0.5-2.7-2-3.7-0.5c-0.8,1.3,1.4,1.7,2.2,2.5c1.4,1.6,2,3.4,0.2,4.8
		c-1.9,1.5-4.3,1.4-6.3,0.1c-1.6-1-1-2.2,0.9-2.1c1,0.1,1.8,0.8,3.1,0c-1.9-2.3-6.5-4-3.3-7.9c1.6-2,3.8-2.7,6.7-2.2
		C72.8,437.2,73.5,438.1,73.1,439.9C73.1,440,73.1,439.9,73.1,439.9z"/>
	<path class="st82" d="M197.2,553c-0.9-4.3-3.5-7.1-1.4-11.3C197.2,545.4,198.6,548.3,197.2,553z"/>
	<path class="st114" d="M223.8,547.2c0-1.8,0-3.6,0-5.4C225.1,543.7,226.7,545.8,223.8,547.2C223.7,547.2,223.8,547.2,223.8,547.2z"
		/>
	<path class="st149" d="M181.5,31.2c-0.4,1.5-0.6,2.8-2.2,2.9c-0.3,0-1-1.1-1-1.6c0.1-1.1,0.5-2.2,1.9-2.4
		C180.5,30.1,181.1,30.9,181.5,31.2z"/>
	<path class="st150" d="M131,101.3c1.2-1.9,2.1-3.4,3.3-5.2C135.7,99.1,134.9,100.7,131,101.3z"/>
	<path class="st151" d="M45,35c-2,0.8-3.5,0.6-3.2-2.3c-1.2,1.3-0.5,3.2-2.5,3c-2-0.1-0.2-2.1-1.4-2.8c-1.2,0.8-1.1,3-3.6,2.5
		c1-2,1.9-3.9,2.8-5.8c0.9-1.8,1.8-2.3,3.1-0.3c0.1,0.1,0,0.2,0.1,0.4c7.8-4.9,1.2,4.6,4.7,3.9c0.2,0,0.4-0.3,0.6-0.5
		C46.3,34.1,46.5,34.8,45,35z"/>
	<path class="st152" d="M25.3,31.3c0.6-1,1.3-2,2.4-3.6c0.8,3.4,1.1,6.2-1.8,7.6c-1.7,0.9,0-1.8-1.4-2.1c-1.2,0.4-0.8,2.9-2.8,2.1
		c-0.3-0.1-0.1-2,0.3-2.9c0.6-1.4,0.2-3.7,2.2-3.9C26.2,28.4,23.3,30.7,25.3,31.3z"/>
	<path class="st120" d="M45,35c0.2-0.6,0.4-1.1,0.6-1.7c1-1.7-1.6-5,2.9-5c1.1,0,2.7-1,3.1,0.3c0.5,1.6-1.6,1-2.4,1.5
		c-1.1,0.7,2.3,3.3-1.4,3.5c0.9,0.1,1.9,0.2,2.8,0.4c-0.1,0.3-0.1,0.9-0.3,0.9C48.5,35.4,46.8,36.4,45,35z"/>
	<path class="st153" d="M28.6,32.6c0.4-2.4,1.2-4.5,4.1-4.8c2-0.1,2.7,1.5,2.5,3.1c-0.3,2.3-1.3,4.4-4.1,4.7
		C28.9,35.8,28.8,34,28.6,32.6z"/>
	<path class="st154" d="M105.9,33.4c-1.4,2.1-3.8,2.5-6.2,2.3c-1.6-0.1-0.9-1.3-0.4-1.9c1.6-1.8-0.8-5.8,3.8-6
		c4-0.2,0.8,3.5,2.8,4.5C106.3,32.7,106.3,33,105.9,33.4z"/>
	<path class="st152" d="M105.9,33.4c0-0.4,0-0.7,0-1.1c1.4-1.6,1.5-4.3,4.4-4.5c2.6-0.2,2.3,2.3,3.5,3.4c0.7,0.9,0.7,1.6-0.8,1.8
		C110.8,35,108.6,37.9,105.9,33.4z"/>
	<path class="st155" d="M113,32.9c0.3-0.6,0.5-1.2,0.8-1.8c0.2-1.2,0.5-2.3,2.5-2.9c-0.3,2-0.5,3.6-0.9,5.6c2.7-1.3,1.2-4.5,5.6-6.1
		c-3,3.1,0.3,7-4.8,7.9C113.7,36,112.6,35.2,113,32.9z"/>
	<path class="st155" d="M91.6,35.7c0.6-1.2,1.2-2.4,1.7-3.6c0.8-1.7,0.6-4.8,3.6-3.9c1,0.3,1.5,4.3,0.7,6
		C97.1,35.3,93.6,35.2,91.6,35.7C91.5,35.6,91.6,35.7,91.6,35.7z"/>
	<path class="st27" d="M249.7,39.5c-0.6-2.1,0.7-3.8,1.3-5.6c1.1-3.2,1.9-6.6,3.4-9.6c0.8-1.8,2.5-3.9,4.8-0.8
		c0.6,2.9-0.9,5.5-1.4,8.3c-0.2,1-0.6,1.8,0.6,2.5c1.3,0.4,3.5-1.3,3.8,1.4c-1.8,5.5-7.7,1.6-10.9,3.9
		C250.7,39.5,250.2,39.5,249.7,39.5z"/>
	<path class="st156" d="M258.4,34.2c-1.8,0.4-2-0.5-1.6-1.8c0.8-3,1.6-6,2.4-9c2.9,2.2-0.2,4.4-0.1,6.6
		C259.2,31.4,258.7,32.8,258.4,34.2z"/>
	<path class="st157" d="M31.4,34.2c-1.2-0.3-1.2-1.3-0.9-2c0.4-0.8,1.1-1.9,1.8-2.1c1.2-0.3,1.4,0.9,1.1,1.8
		C33.3,32.9,33,34.1,31.4,34.2z"/>
	<path class="st157" d="M111.3,31.7c-0.4,1-0.6,2.3-2,2.4c-1.1,0.1-1.1-0.9-1.1-1.6c0.1-1.1,0.6-2.3,1.9-2.4
		C111.2,30,111.3,30.9,111.3,31.7z"/>
</g>
</svg>
