<?xml version="1.0" encoding="utf-8"?>
<!-- Generator: Adobe Illustrator 23.1.0, SVG Export Plug-In . SVG Version: 6.00 Build 0)  -->
<svg version="1.1" xmlns="http://www.w3.org/2000/svg" xmlns:xlink="http://www.w3.org/1999/xlink" x="0px" y="0px"
	 viewBox="0 0 750 500" style="enable-background:new 0 0 750 500;" xml:space="preserve">
<style type="text/css">
	.st0{fill:#FFFFFF;}
	.st1{fill:#F4F2D6;}
</style>
<g id="BACKGROUND">
</g>
<g id="OBJECTS_1_">
	<g>
		<g>
			<polygon points="372.6,270.9 314.3,394.4 363.4,266.9 			"/>
			<polygon points="326.4,343.1 297.1,412.1 316.9,339.8 			"/>
			<polygon points="214.9,342.1 101.2,438.5 208.2,334.7 			"/>
			<polygon points="144.9,235.4 80.2,237.1 143.8,225.5 			"/>
			<polygon points="266.4,202.8 154.1,106.6 272.7,195 			"/>
			<polygon points="422.3,176.9 400.2,94.7 431.8,173.7 			"/>
			<polygon points="408.1,212.6 383.6,78.4 417.9,210.4 			"/>
			<polygon points="529,163.8 623.5,74.5 536.2,170.8 			"/>
			<polygon points="562,294.2 677.6,336.6 558.9,303.7 			"/>
			<polygon points="470.2,328.1 509.3,416.3 461.2,332.7 			"/>
			<g>
				<g>
					<g>
						<path class="st0" d="M554.7,371.5c-20.3-23.1-54.8-32-88.4-29.8c-33.6,2.3-64.7,27.4-80.5,52.9
							c-22.1-26.9-57.6-42.2-92.3-39.7s-73.6,27.3-91.6,57.1c-3.4-38.7-17.6-61.6-44.7-77.3C130,318.9,94.2,319.5,65.8,320
							c25.8-19.3,47.2-47.2,54.6-79.1c7.4-32-2.6-67.3-12-96.9c31.7,26.5,74.6,49.7,115.4,37.8c40.8-11.9,73-48.9,79.4-90.9
							c19.7,30.3,52.7,51.7,88.8,51.7s78.2-24.3,97.9-54.6c16.4,28.2,42.9,50.3,73.6,61.3c30.7,11,65.3,10.7,95.8-0.7
							c-17.3,21.4-27.2,50.2-22.5,77.6c4.7,27.5,23,49.1,47.2,65.6c-29.8-2.6-55.6,2.3-79,16.7C581.8,322.9,563.6,345.6,554.7,371.5
							z"/>
					</g>
				</g>
				<g>
					<g>
						<path d="M198.9,413.6c-3.1-35.8-15.6-57.5-41.8-72.7c-21.3-12.4-48.8-14.1-72.8-14.1c-5.3,0-10.4,0.1-15.4,0.2l-18.6,0.3
							l14.8-11.1c26.8-20,45.8-47.6,52.4-75.7c7-29.9-2-62.7-11.8-93.7l-6.2-19.6l15.8,13.2c39,32.7,69.8,39.6,88.7,39.6
							c7.3,0,14.4-1,21.1-3c38.3-11.2,69.2-46.5,75.1-86l2.3-15.6l8.6,13.2c19.6,30.2,51.8,48.9,83.8,48.9
							c33.1,0,73.9-22.8,92.9-51.9l5.3-8.2l4.9,8.4c15.6,26.8,41.3,48.2,70.5,58.7c14.3,5.1,29.4,7.7,44.9,7.7
							c16.2,0,31.9-2.8,46.8-8.4l20.6-7.7l-13.8,17.1c-17.4,21.6-25.4,48.8-21.2,72.8c4.1,23.5,19.1,44.3,44.7,61.6l19,12.9l-22.9-2
							c-4.9-0.4-9.6-0.6-14.2-0.6c-23.2,0-43.2,5.4-61.2,16.5c-22,13.6-39.5,35.4-48,59.9l-3.4,9.7l-6.8-7.7
							c-15.7-17.8-42.6-28.1-73.8-28.1c-3.2,0-6.4,0.1-9.7,0.3c-32.2,2.2-61.3,26.7-75.8,50.1l-4.4,7.1l-5.3-6.5
							c-19.4-23.6-49.3-37.8-80.2-37.8c-2.3,0-4.7,0.1-7,0.3c-32.3,2.3-69.7,25.7-86.8,54.2l-9.5,15.8L198.9,413.6z"/>
						<path d="M198.9,413.6c-3.1-35.8-15.6-57.5-41.8-72.7c-21.3-12.4-48.8-14.1-72.8-14.1c-5.3,0-10.4,0.1-15.4,0.2l-18.6,0.3
							l14.8-11.1c26.8-20,45.8-47.6,52.4-75.7c7-29.9-2-62.7-11.8-93.7l-6.2-19.6l15.8,13.2c39,32.7,69.8,39.6,88.7,39.6
							c7.3,0,14.4-1,21.1-3c38.3-11.2,69.2-46.5,75.1-86l2.3-15.6l8.6,13.2c19.6,30.2,51.8,48.9,83.8,48.9
							c33.1,0,73.9-22.8,92.9-51.9l5.3-8.2l4.9,8.4c15.6,26.8,41.3,48.2,70.5,58.7c14.3,5.1,29.4,7.7,44.9,7.7
							c16.2,0,31.9-2.8,46.8-8.4l20.6-7.7l-13.8,17.1c-17.4,21.6-25.4,48.8-21.2,72.8c4.1,23.5,19.1,44.3,44.7,61.6l19,12.9l-22.9-2
							c-4.9-0.4-9.6-0.6-14.2-0.6c-23.2,0-43.2,5.4-61.2,16.5c-22,13.6-39.5,35.4-48,59.9l-3.4,9.7l-6.8-7.7
							c-15.7-17.8-42.6-28.1-73.8-28.1c-3.2,0-6.4,0.1-9.7,0.3c-32.2,2.2-61.3,26.7-75.8,50.1l-4.4,7.1l-5.3-6.5
							c-19.4-23.6-49.3-37.8-80.2-37.8c-2.3,0-4.7,0.1-7,0.3c-32.3,2.3-69.7,25.7-86.8,54.2l-9.5,15.8L198.9,413.6z"/>
					</g>
				</g>
				<g>
					<g>
						<path class="st1" d="M554.7,371.5c-20.3-23.1-54.8-32-88.4-29.8c-33.6,2.3-64.7,27.4-80.5,52.9
							c-22.1-26.9-57.6-42.2-92.3-39.7s-73.6,27.3-91.6,57.1c-3.4-38.7-17.6-61.6-44.7-77.3C130,318.9,94.2,319.5,65.8,320
							c25.8-19.3,47.2-47.2,54.6-79.1c7.4-32-2.6-67.3-12-96.9c31.7,26.5,74.6,49.7,115.4,37.8c40.8-11.9,73-48.9,79.4-90.9
							c19.7,30.3,52.7,51.7,88.8,51.7s78.2-24.3,97.9-54.6c16.4,28.2,42.9,50.3,73.6,61.3c30.7,11,65.3,10.7,95.8-0.7
							c-17.3,21.4-27.2,50.2-22.5,77.6c4.7,27.5,23,49.1,47.2,65.6c-29.8-2.6-55.6,2.3-79,16.7C581.8,322.9,563.6,345.6,554.7,371.5
							z"/>
						<path class="st1" d="M554.7,371.5c-20.3-23.1-54.8-32-88.4-29.8c-33.6,2.3-64.7,27.4-80.5,52.9
							c-22.1-26.9-57.6-42.2-92.3-39.7s-73.6,27.3-91.6,57.1c-3.4-38.7-17.6-61.6-44.7-77.3C130,318.9,94.2,319.5,65.8,320
							c25.8-19.3,47.2-47.2,54.6-79.1c7.4-32-2.6-67.3-12-96.9c31.7,26.5,74.6,49.7,115.4,37.8c40.8-11.9,73-48.9,79.4-90.9
							c19.7,30.3,52.7,51.7,88.8,51.7s78.2-24.3,97.9-54.6c16.4,28.2,42.9,50.3,73.6,61.3c30.7,11,65.3,10.7,95.8-0.7
							c-17.3,21.4-27.2,50.2-22.5,77.6c4.7,27.5,23,49.1,47.2,65.6c-29.8-2.6-55.6,2.3-79,16.7C581.8,322.9,563.6,345.6,554.7,371.5
							z"/>
					</g>
				</g>
			</g>
		</g>
		<g>
			<polygon points="611.8,398.8 576.6,394.1 607,375.7 600.5,340.7 627.4,363.9 658.7,347 644.9,379.8 670.7,404.2 635.3,401.3 
				619.9,433.4 			"/>
			<polygon class="st1" points="603.6,348.2 625.5,367.1 650.9,353.3 639.7,380 660.7,399.9 631.9,397.5 619.4,423.6 612.8,395.5 
				584.1,391.7 608.8,376.7 			"/>
		</g>
		<g>
			<polygon points="128.1,405.5 98.1,402.4 123.5,386 117.1,356.5 140.5,375.5 166.6,360.4 155.8,388.5 178.2,408.7 148.1,407.1 
				135.9,434.7 			"/>
			<polygon class="st1" points="120.4,363.9 138.7,378.8 159.1,366.9 150.6,388.9 168.1,404.6 144.6,403.4 135.1,424.9 129,402.1 
				105.6,399.7 125.4,386.9 			"/>
		</g>
		<g>
			<polygon points="212.5,107.4 184.8,104.5 208.2,89.5 202.4,62.2 224,79.8 248.1,65.9 238,91.9 258.7,110.5 230.9,108.9 
				219.6,134.3 			"/>
			<polygon class="st1" points="248.6,106.4 227.4,105.2 218.8,124.6 213.4,104.1 192.3,101.9 210.1,90.4 205.7,69.6 222.1,83 
				240.5,72.4 232.8,92.2 			"/>
		</g>
		<g>
			<polygon points="546.6,95.8 517.7,99 538.2,78.4 526.1,51.9 552.1,65.1 573.6,45.4 569.1,74.2 594.4,88.5 565.7,93.2 
				559.9,121.7 			"/>
			<polygon class="st1" points="567.7,53.1 564.2,75.3 583.8,86.4 561.6,90 557.1,112 546.8,92 524.5,94.5 540.3,78.6 531,58.1 
				551.1,68.2 			"/>
		</g>
		<g>
			<polygon points="436,410.3 416.9,418.5 426.6,400.1 412.9,384.5 433.4,388.1 443.9,370.2 446.9,390.8 467.2,395.3 448.5,404.5 
				450.5,425.2 			"/>
			<polygon class="st1" points="445,416.3 435.2,406.1 422.2,411.7 428.8,399.2 419.4,388.6 433.4,391 440.6,378.8 442.6,392.8 
				456.4,395.9 443.7,402.2 			"/>
		</g>
		<g>
			<polygon points="148.2,145.1 132.9,143.1 146,135.1 143.1,120 154.8,130 168.3,122.6 162.4,136.8 173.6,147.3 158.3,146.1 
				151.8,160 			"/>
			<polygon class="st1" points="166.2,144.1 155.8,143.3 151.3,152.8 148.9,142.6 138.5,141.3 147.4,135.8 145.4,125.6 153.4,132.3 
				162.6,127.3 158.6,137 			"/>
		</g>
	</g>
</g>
</svg>
