<?xml version="1.0" encoding="utf-8"?>
<!-- Generator: Adobe Illustrator 23.1.0, SVG Export Plug-In . SVG Version: 6.00 Build 0)  -->
<svg version="1.1" id="Capa_1" xmlns="http://www.w3.org/2000/svg" xmlns:xlink="http://www.w3.org/1999/xlink" x="0px" y="0px"
	 viewBox="0 0 50 50" style="enable-background:new 0 0 50 50;" xml:space="preserve">
<style type="text/css">
	.st0{fill:#030303;}
	.st1{fill:#FEFEFE;}
</style>
<path class="st0" d="M50,27.6c0,5.6-2.6,9.8-7.2,13c-4.3,3-9.1,4.2-14.4,3.8c-3-0.2-5.9-0.5-8.9-1.2c-0.7-0.2-1.5-0.7-2.2-0.5
	c-0.6,0.1-1,1-1.6,1.5c-3.5,3-7.5,4.3-12.1,3.9C2.4,48,2,47.4,2.4,46.5c0.2-0.4,0.5-0.5,0.9-0.6c2-0.7,3.7-1.7,4.9-3.5
	c0.6-0.8,0.9-1.7,1.1-2.7c0.1-0.3,0.1-0.5-0.2-0.7C5.2,36.5,3,32.7,2,28.2C0.2,19.9,2.4,12.9,9.1,7.6c4.7-3.8,10.1-5.3,16.1-4.7
	c9.4,1,16.6,5.6,21.6,13.6C48.9,19.8,50,23.6,50,27.6z M8.3,45.6c0.1,0,0.1,0,0.2,0c0.2,0,0.3-0.1,0.5-0.1c2.8-0.8,5.3-2.3,7.1-4.7
	c0.5-0.6,0.8-0.7,1.5-0.4c1,0.4,2,0.7,3,0.9c2.9,0.7,5.9,0.9,8.8,1.1C34.5,42.7,39,41.2,43,38c3.1-2.5,4.8-5.6,5-9.6
	c0.1-3.2-0.7-6.3-2.1-9.2C43,13.4,38.6,9.4,32.8,6.9c-6-2.6-12.1-3-18.2-0.2C6.7,10.2,1.7,18.1,4,27.8c1,4.2,3.1,7.7,7.2,9.7
	c0.4,0.2,0.5,0.6,0.5,1c-0.2,2.5-1.1,4.7-3,6.5C8.6,45.2,8.4,45.3,8.3,45.6z M8.2,45.7C8.2,45.6,8.3,45.6,8.2,45.7
	C8.2,45.6,8.2,45.6,8.2,45.7C8.2,45.6,8.2,45.6,8.2,45.7C8.2,45.6,8.2,45.6,8.2,45.7z"/>
<path class="st1" d="M8.2,45.7C8.2,45.6,8.2,45.6,8.2,45.7C8.2,45.6,8.2,45.6,8.2,45.7C8.2,45.6,8.2,45.6,8.2,45.7
	C8.3,45.6,8.2,45.6,8.2,45.7z"/>
</svg>
