<?xml version="1.0" encoding="utf-8"?>
<!-- Generator: Adobe Illustrator 23.1.0, SVG Export Plug-In . SVG Version: 6.00 Build 0)  -->
<svg version="1.1" id="Capa_1" xmlns="http://www.w3.org/2000/svg" xmlns:xlink="http://www.w3.org/1999/xlink" x="0px" y="0px"
	 viewBox="0 0 50 50" style="enable-background:new 0 0 50 50;" xml:space="preserve">
<style type="text/css">
	.st0{fill:#040404;}
	.st1{fill:#FEFEFE;}
</style>
<path class="st0" d="M24.1,8.1C28.7,8,33.4,7.9,38,7.7c1.9-0.1,3.9-0.2,5.8-0.1c0.8,0,1.6,0.1,2.3,0.4c1.7,0.6,2.6,1.9,3,3.6
	c0.5,2,0.6,4.1,0.8,6.1c0.2,2.9,0.1,5.7-0.3,8.5c-0.2,1.4-0.3,2.8-0.7,4.1c-0.5,1.5-1.5,2.3-3.2,2.4c-3.1,0.1-6.1,0.1-9.2,0.2
	c-5.8,0.1-11.6,0.2-17.4,0.3c-0.5,0-0.6,0-0.5,0.5c0.6,3.2,2.5,5.4,5.6,6.6c0,0,0.1,0,0.1,0c0.6,0.2,0.8,0.4,0.7,0.8
	c-0.1,0.4-0.4,0.7-0.9,0.7c-0.3,0-0.7,0-1,0c-2-0.5-3.8-1.3-5.5-2.4c-1.8-1.2-2.9-2.9-4-4.8c-0.2-0.4-0.5-0.9-0.7-1.3
	c-0.1-0.3-0.3-0.3-0.6-0.3c-1.5,0.1-3,0.4-4.6,0.4c-1.2,0-2.5-0.1-3.7-0.3c-2-0.4-3.2-1.7-3.6-3.8c-0.2-1.4-0.2-2.8-0.2-4.3
	C0.2,21.1,0.1,17.1,0,13c0-0.5,0-1,0.1-1.5C0.4,9.9,1.5,9,3.3,8.8c2.4-0.2,4.7-0.2,7.1-0.3C15,8.4,19.6,8.3,24.1,8.1
	C24.1,8.1,24.1,8.1,24.1,8.1z"/>
<path class="st1" d="M19.4,38.9c-1.3-0.6-2.2-1.7-3.1-2.7c-1-1.2-1.7-2.5-2.4-3.9c-0.2-0.4-0.5-0.6-1-0.6c-1.4,0.2-2.7,0.3-4.1,0.4
	c-1.6,0.1-3.2,0-4.7-0.4c-1-0.2-1.7-0.9-2-1.9c-0.3-0.8-0.3-1.7-0.3-2.5c-0.1-4.8-0.3-9.6-0.4-14.4C1.4,11,2,10.3,3.9,10.2
	c3.8-0.2,7.5-0.3,11.3-0.4c6.5-0.2,13-0.4,19.4-0.6c2.8-0.1,5.6-0.2,8.4-0.3c0.7,0,1.5,0,2.2,0.2c1.2,0.3,1.9,1,2.3,2.1
	c0.5,1.3,0.6,2.7,0.8,4.1c0.2,2.3,0.3,4.6,0.2,7c-0.1,2.3-0.4,4.5-0.7,6.7c0,0.2-0.1,0.5-0.2,0.7c-0.3,1.1-0.9,1.5-2.1,1.5
	c-2.1,0-4.3,0.1-6.4,0.1c-7,0.1-14,0.3-21,0.4c-0.7,0-0.9,0.3-0.9,1C17.2,35.1,18,37.1,19.4,38.9C19.5,38.9,19.5,38.9,19.4,38.9z"/>
</svg>
