<?xml version="1.0" encoding="utf-8"?>
<!-- Generator: Adobe Illustrator 23.1.0, SVG Export Plug-In . SVG Version: 6.00 Build 0)  -->
<svg version="1.1" id="Capa_1" xmlns="http://www.w3.org/2000/svg" xmlns:xlink="http://www.w3.org/1999/xlink" x="0px" y="0px"
	 viewBox="0 0 50 50" style="enable-background:new 0 0 50 50;" xml:space="preserve">
<style type="text/css">
	.st0{fill:#FEFEFE;}
	.st1{fill:#030303;}
</style>
<path class="st0" d="M25.4,37.7c-3.2-3.3-7.5-2.4-9.7,0.4c-0.3-0.4-0.5-0.9-0.7-1.3c-0.9-1.4-2-2.7-3.5-3.5
	c-1.4-0.7-2.8-0.9-4.3-0.5c-0.1,0-0.1,0-0.2,0c0,0,0,0-0.1,0c0.3-1.7,0.1-3.4-0.7-4.9c-0.8-1.6-2.1-2.6-3.8-3.4c1.1-0.5,2-1.1,2.8-2
	c1.2-1.4,1.5-3,0.9-4.8c-0.1-0.2-0.1-0.3,0.2-0.3c2-0.3,3.4-1.4,4.4-3.1c0.2-0.3,0.2-0.3,0.5-0.1c1.5,1,3.1,1.4,4.8,1
	c1.1-0.3,1.9-1,2.6-1.8c0.3-0.3,0.5-0.7,0.7-1c3.4,2.8,6.4,1.6,7.7-0.8c4,3.4,8.2,3.8,12.8,1c0.8,4.3,3.4,6.7,7.8,7.1
	c-1,3.3-1.1,6.5,0.8,9.6c-0.9,0-1.7,0.1-2.6,0.2c-2.9,0.4-5.4,1.6-7,4.2c-0.2,0.3-0.2,0.6-0.5,0.7c-0.2,0.1-0.5-0.2-0.8-0.4
	c-4.3-2.1-9.3-0.8-11.8,3.3C25.6,37.5,25.5,37.6,25.4,37.7z"/>
<path class="st1" d="M0,24.3c0.3-0.3,0.7-0.4,1.2-0.6C2.1,23.4,3,23,3.9,22.3c1.1-0.9,1.7-1.9,1.5-3.4c-0.1-0.6-0.4-1.1-1-1.4
	c-0.3-0.2-0.5-0.4-0.4-0.8c0.2-0.4,0.4-0.6,0.9-0.5c2.5,0.5,4.6-1.1,5.2-3.2c0.2-0.7,0.8-0.8,1.3-0.3c1.1,1,2.4,1.6,3.9,1.4
	c0.9-0.1,1.5-0.6,2.1-1.2c0.4-0.5,0.8-1,1.1-1.6c0.3-0.6,1-0.6,1.3-0.1c0.4,0.6,1,1,1.6,1.3c1.7,0.9,3.4,0.3,4.2-1.4
	c0.1-0.2,0.2-0.4,0.2-0.6c0.2-0.6,0.8-0.7,1.2-0.3c0.1,0.1,0.3,0.3,0.4,0.4c2.8,3.2,7.9,3.5,11.2,0.8c0.1-0.1,0.3-0.2,0.4-0.3
	c0.5-0.3,1-0.1,1.1,0.4c0.3,1.1,0.5,2.2,1,3.3c0.7,1.5,1.7,2.5,3.4,3c0.6,0.2,1.2,0.4,1.8,0.5c0.4,0.1,0.8,0.1,1.2-0.3
	c0.3-0.3,0.6-0.3,0.9-0.1c0.4,0.2,0.3,0.6,0.1,0.9c-0.9,1.7-1.3,3.5-1.2,5.4c0.1,1.8,0.7,3.5,2.1,4.7c0.3,0.2,0.3,0.5,0.2,0.8
	s-0.4,0.5-0.8,0.4c-1.3-0.1-2.7,0-4,0.2c-1.8,0.3-3.4,0.9-4.7,2.2c-0.7,0.7-1.1,1.4-1.4,2.3c-0.3,0.7-0.7,0.8-1.3,0.4
	c-4-2.8-9.4-1.3-11.4,3.1c-0.1,0.3-0.4,0.6-0.7,0.6c-0.4,0-0.5-0.2-0.7-0.5c-2.1-3.1-6.5-2.8-8.2,0.4c-0.2,0.3-0.3,0.6-0.8,0.6
	c-0.4,0-0.6-0.3-0.7-0.6c-0.6-1.4-1.3-2.7-2.5-3.8s-2.5-1.8-4.2-1.6c-0.7,0.1-1.3,0.3-1.8,0.8c-0.3,0.3-0.6,0.4-1,0.1
	c-0.3-0.2-0.4-0.6-0.2-1c1.7-3.7-0.6-7.7-4.7-8.2c-0.3,0-0.5-0.2-0.7-0.4C0,24.7,0,24.5,0,24.3z M19.3,12.8c-0.2,0.3-0.5,0.7-0.7,1
	c-0.7,0.8-1.5,1.5-2.5,1.7c-1.7,0.4-3.3,0-4.7-0.9c-0.2-0.1-0.3-0.1-0.4,0.1c-1,1.7-2.4,2.7-4.3,3c-0.2,0-0.2,0.1-0.1,0.3
	c0.7,1.9,0.2,3.5-1.2,4.9C4.7,23.6,3.9,24,3,24.5c1.6,0.7,2.9,1.7,3.7,3.2s1,3.1,0.7,4.8c1-0.3,1.9-0.3,2.9-0.1
	c2.1,0.4,3.5,1.7,4.7,3.4c0.4,0.6,0.7,1.2,1.1,1.8c1.2-1.5,2.7-2.3,4.6-2.4c1.9-0.1,3.5,0.7,4.8,2c0.1-0.2,0.2-0.4,0.4-0.5
	c0.9-1.4,2.1-2.5,3.7-3.2c2.8-1.3,5.5-1,8.2,0.4c0.2,0.1,0.3,0.1,0.5-0.1c0.8-1.6,2-2.8,3.7-3.6c1.3-0.6,2.6-0.9,4.1-1
	C46.4,29,47,29,47.6,29c-1.8-2.9-1.7-6-0.7-9.1c-4.3-0.4-6.9-2.7-7.6-6.8c-4.5,2.6-8.6,2.3-12.4-1C25.1,14.8,22.6,15,19.3,12.8z"/>
</svg>
