<?xml version="1.0" encoding="utf-8"?>
<!-- Generator: Adobe Illustrator 23.1.0, SVG Export Plug-In . SVG Version: 6.00 Build 0)  -->
<svg version="1.1" id="Capa_1" xmlns="http://www.w3.org/2000/svg" xmlns:xlink="http://www.w3.org/1999/xlink" x="0px" y="0px"
	 viewBox="0 0 50 50" style="enable-background:new 0 0 50 50;" xml:space="preserve">
<style type="text/css">
	.st0{fill:#040404;}
	.st1{fill:#FEFEFE;}
	.st2{fill:#FDFDFD;}
</style>
<path class="st0" d="M25.4,4.6c0.5,0.1,1,0.2,1.4,0.4c2.2,0.7,3.8,2.2,4.8,4.2c0.2,0.3,0.2,0.3,0.5,0.2c4.8-2.9,10.9,0.1,11.4,5.8
	c0,0,0,0,0,0c0,0.5,0.1,0.7,0.7,0.8c3.5,0.5,6,3.7,5.7,7.3c-0.3,3.8-2.3,6.4-5.5,8.1c-1.2,0.6-2.4,1.2-3.8,1.3
	c-0.6,0.1-1.1,0-1.6-0.1c-0.4-0.1-0.4,0.1-0.4,0.4c0.1,1.2,0.1,2.3-0.3,3.4c-1.2,3.4-5.2,4.8-8.4,2.9c-0.4-0.3-0.5-0.1-0.7,0.2
	c-1,1.8-2.6,3-4.6,3.2c-2.2,0.3-4-0.8-5-3c-0.1-0.3-0.2-0.5-0.4-0.8c-0.8,0.6-1.7,1-2.6,1.1c-2.4,0.3-4.6-1.1-5.4-3.4
	c-0.1-0.4-0.3-0.4-0.7-0.4c-3.8,0.6-7.5-2-7.4-6.5c0-1,0.2-1.9,0.7-2.7c0.1-0.2,0.1-0.3-0.1-0.5c-1.2-0.9-2.2-1.8-3-3.1
	c-0.7-1.2-0.8-2.4-0.4-3.7c0.4-1.5,1.7-2.5,3.4-2.7c0.7-0.1,1.4-0.1,2.1,0c0.5,0.1,0.5-0.1,0.4-0.5c-0.2-1.2-0.4-2.5-0.4-3.7
	C5.8,11,6.3,9.2,7.9,7.7c1.6-1.4,3.5-1.7,5.5-1.3c1.4,0.3,2.8,0.9,4.1,1.6c0.2,0.1,0.3,0.1,0.5-0.1c1.4-1.8,3.2-2.9,5.5-3.2
	c0,0,0.1-0.1,0.1-0.1C24.2,4.6,24.8,4.6,25.4,4.6z M42,16.2c-0.1-2.5-1.1-4.6-3.4-5.7c-2.3-1.1-4.5-0.7-6.5,0.9
	c-0.8,0.6-1.3,0.5-1.6-0.5c-0.9-2.5-2.6-4.2-5.2-4.5c-2.7-0.4-4.9,0.8-6.4,3.1c-0.5,0.7-0.8,0.8-1.5,0.4c-1.3-0.7-2.6-1.4-4-1.7
	c-2.8-0.7-5.2,0.6-5.9,3.5c-0.3,1.2-0.3,2.5-0.1,3.7c0.1,1,0.4,1.9,0.5,2.8c0.1,0.7-0.3,1.1-1,1c-0.1,0-0.2,0-0.3-0.1
	c-1-0.2-2-0.4-3-0.2c-1.2,0.2-1.9,0.9-2,2.2c-0.1,0.8,0.2,1.5,0.6,2.1C2.9,24.3,4,25.1,5,25.8c0.8,0.6,0.9,0.8,0.4,1.7
	c-1.3,2.1-1,4.8,0.8,6.3c1.5,1.3,3.2,1.4,5,0.8c0.6-0.2,1,0,1.2,0.7c0,0.1,0,0.2,0,0.2c0.3,2,2.1,3.4,4,3.1c1-0.1,1.8-0.6,2.4-1.4
	c0.3-0.4,0.6-0.6,1.1-0.5c0.4,0.1,0.5,0.5,0.5,0.9c0.1,0.6,0.3,1.1,0.5,1.6c1,2.1,2.9,2.7,4.9,1.7c1.3-0.7,2.1-1.7,2.5-3.1
	c0.2-0.9,0.9-1.1,1.5-0.4c0.1,0.1,0.1,0.1,0.2,0.2c1.3,1.1,2.7,1.5,4.4,1c1.6-0.6,2.5-1.8,2.7-3.4c0.1-1,0-2.1-0.1-3.1
	c-0.1-0.8,0.4-1.2,1.1-1c0.7,0.2,1.5,0.4,2.2,0.2c2.8-0.5,5.2-1.8,6.9-4.2c1-1.5,1.4-3.3,1.1-5.1c-0.5-2.6-2.8-4.4-5.4-4.3
	c-0.6,0-0.9-0.3-0.9-0.9C42,16.6,42,16.4,42,16.2z"/>
<path class="st0" d="M16.4,45.3c0,1.2-0.7,2-2,2.2c-2,0.3-3.8-1.4-3.5-3.4c0.1-0.9,0.5-1.3,1.2-1.6c1.9-0.6,3.8,0.5,4.2,2.4
	C16.3,45,16.4,45.2,16.4,45.3z M13.1,43.9c-0.7,0-0.9,0.3-0.6,1c0.3,0.7,1,1,1.7,0.9c0.5-0.1,0.6-0.4,0.5-0.8
	C14.5,44.3,13.9,43.9,13.1,43.9z"/>
<path class="st0" d="M5.9,48.2c0-1,1-2.1,2-2.3c1.2-0.1,2.2,1.3,1.8,2.6c-0.3,1-1.3,1.7-2.3,1.5C6.5,49.9,5.9,49.1,5.9,48.2z
	 M7.8,48.4c0.3-0.1,0.4-0.3,0.4-0.5c0-0.2-0.1-0.4-0.3-0.3c-0.2,0.1-0.4,0.3-0.4,0.5C7.5,48.3,7.6,48.4,7.8,48.4z"/>
<path class="st1" d="M42,16.2c0,0.2,0,0.4,0,0.6c0,0.6,0.4,0.9,0.9,0.9c2.6-0.2,4.9,1.6,5.4,4.3c0.3,1.9-0.1,3.6-1.1,5.1
	c-1.6,2.5-4,3.7-6.9,4.2c-0.7,0.1-1.5-0.1-2.2-0.2c-0.8-0.2-1.2,0.2-1.1,1c0.1,1,0.2,2,0.1,3.1c-0.2,1.7-1.1,2.9-2.7,3.4
	c-1.6,0.6-3.1,0.2-4.4-1c-0.1-0.1-0.1-0.1-0.2-0.2c-0.6-0.6-1.3-0.5-1.5,0.4c-0.4,1.4-1.2,2.5-2.5,3.1c-2,1-3.9,0.4-4.9-1.7
	c-0.2-0.5-0.4-1.1-0.5-1.6c-0.1-0.4-0.1-0.7-0.5-0.9c-0.4-0.1-0.8,0.1-1.1,0.5c-0.6,0.8-1.4,1.3-2.4,1.4c-1.9,0.3-3.8-1.1-4-3.1
	c0-0.1,0-0.2,0-0.2c-0.1-0.6-0.6-0.9-1.2-0.7c-1.8,0.6-3.5,0.4-5-0.8c-1.8-1.5-2.1-4.3-0.8-6.3c0.5-0.8,0.5-1.1-0.4-1.7
	c-1.1-0.8-2.1-1.5-2.9-2.7c-0.4-0.7-0.6-1.4-0.6-2.1c0.1-1.3,0.8-2,2-2.2c1-0.1,2,0,3,0.2c0.1,0,0.2,0.1,0.3,0.1
	c0.7,0.1,1.1-0.3,1-1c-0.2-1-0.4-1.9-0.5-2.8c-0.2-1.2-0.2-2.5,0.1-3.7c0.7-2.9,3.1-4.2,5.9-3.5c1.4,0.4,2.7,1,4,1.7
	c0.8,0.4,1,0.4,1.5-0.4c1.5-2.3,3.7-3.5,6.4-3.1c2.6,0.4,4.3,2,5.2,4.5c0.3,0.9,0.8,1.1,1.6,0.5c2-1.6,4.2-2,6.5-0.9
	C40.9,11.6,41.9,13.6,42,16.2z"/>
<path class="st2" d="M13.1,43.9c0.7,0,1.4,0.4,1.6,1.1c0.2,0.4,0,0.7-0.5,0.8c-0.7,0.1-1.4-0.2-1.7-0.9
	C12.2,44.2,12.4,43.9,13.1,43.9z"/>
<path class="st2" d="M7.8,48.4c-0.2,0-0.3-0.1-0.3-0.3c0-0.3,0.2-0.5,0.4-0.5c0.2-0.1,0.3,0.2,0.3,0.3C8.2,48.2,8,48.4,7.8,48.4z"/>
</svg>
