<?xml version="1.0" encoding="utf-8"?>
<!-- Generator: Adobe Illustrator 23.1.0, SVG Export Plug-In . SVG Version: 6.00 Build 0)  -->
<svg version="1.1" id="Capa_1" xmlns="http://www.w3.org/2000/svg" xmlns:xlink="http://www.w3.org/1999/xlink" x="0px" y="0px"
	 viewBox="0 0 50 50" style="enable-background:new 0 0 50 50;" xml:space="preserve">
<style type="text/css">
	.st0{fill:#FEFEFE;}
	.st1{fill:#040404;}
</style>
<path class="st0" d="M42,40.5c-1.7-0.6-3.1-1.4-4.3-2.6c-0.5-0.5-0.9-0.6-1.6-0.4c-4.1,1.2-8.2,1.7-12.5,1.7
	c-5.9,0-11.6-0.8-17.2-2.8c-2.6-1-4.7-2.6-5.5-5.5c-0.6-2.1-0.5-4.2,0-6.3c1.4-6.3,5.5-10.2,11.4-12.4c3.2-1.2,6.6-1.8,10-2.2
	c3.6-0.5,7.3-0.8,11-0.7c3.1,0.1,6.2,0.4,9,1.8c6,2.8,8.8,10.1,6,16.1c-1.5,3.2-4,5.2-7.2,6.4c-0.9,0.3-1.1,0.6-1.1,1.6
	c0,1.7,0.5,3.3,1.4,4.7C41.7,40.1,41.8,40.2,42,40.5z"/>
<path class="st1" d="M0,27.1c0.4-5,2.1-9.3,5.9-12.6c2.5-2.1,5.4-3.4,8.5-4.2c4.3-1.3,8.8-1.9,13.3-2.2c2.8-0.2,5.6-0.3,8.3,0
	c3.8,0.4,7.4,1.4,10.2,4.2c7,6.9,5,18.1-4,22.1c-0.6,0.3-0.7,0.6-0.6,1.2c0.5,2,1.7,3.5,3.4,4.5c0.5,0.3,0.9,0.5,0.7,1.2
	c-0.1,0.6-0.5,0.8-1.3,0.8C41.3,42,38.6,41,36.3,39c-0.3-0.2-0.5-0.3-0.9-0.2c-4.5,1.2-9,1.7-13.6,1.5C17,40,12,39.5,7.3,37.6
	c-2.8-1.1-5.2-2.8-6.5-5.7C0.3,30.6-0.1,28.8,0,27.1z M41.4,39.5c-0.2-0.3-0.3-0.4-0.4-0.6c-0.9-1.4-1.4-2.8-1.4-4.5
	c0-0.9,0.2-1.2,1.1-1.5c3.1-1.2,5.4-3.1,6.8-6.1c2.6-5.6,0-12.6-5.7-15.3c-2.7-1.3-5.6-1.6-8.6-1.7c-3.5-0.1-7,0.2-10.4,0.6
	c-3.2,0.4-6.4,1-9.5,2.1c-5.7,2-9.5,5.8-10.9,11.8c-0.5,2-0.6,4,0,6c0.8,2.7,2.8,4.3,5.3,5.2c5.3,2,10.7,2.7,16.3,2.7
	c4,0,8-0.5,11.9-1.6c0.6-0.2,1.1-0.1,1.5,0.4C38.4,38.1,39.7,39,41.4,39.5z"/>
</svg>
